<svg xmlns="http://www.w3.org/2000/svg" viewBox="1104.5 3473.5 45.606 35.472">
  <defs>
    <style>
      .cls-1 {
        fill: #fff;
      }
    </style>
  </defs>
  <path id="book-open" class="cls-1" d="M42.932,32c-4.339.246-12.963,1.143-18.287,4.4a1.217,1.217,0,0,0-.576,1.043v28.81a1.253,1.253,0,0,0,1.843,1.068c5.478-2.757,13.4-3.509,17.316-3.715a2.469,2.469,0,0,0,2.377-2.428V34.431A2.482,2.482,0,0,0,42.932,32ZM20.961,36.4C15.638,33.143,7.014,32.247,2.675,32A2.483,2.483,0,0,0,0,34.431v26.75a2.468,2.468,0,0,0,2.377,2.428c3.919.206,11.844.959,17.322,3.717a1.249,1.249,0,0,0,1.838-1.066V37.43A1.192,1.192,0,0,0,20.961,36.4Z" transform="translate(1104.5 3441.505)"/>
</svg>
