<svg xmlns="http://www.w3.org/2000/svg" xmlns:xlink="http://www.w3.org/1999/xlink" viewBox="4073 2979 1890 2074">
  <defs>
    <style>
      .cls-1 {
        clip-path: url(#clip-create_exam);
      }

      .cls-18, .cls-2, .cls-5 {
        fill: #a7289e;
      }

      .cls-11, .cls-13, .cls-15, .cls-16, .cls-3, .cls-4, .cls-9 {
        fill: #fff;
      }

      .cls-12, .cls-17, .cls-3, .cls-6 {
        font-size: 25px;
      }

      .cls-10, .cls-14, .cls-17, .cls-3, .cls-6, .cls-9 {
        font-family: Montserrat-Regular, Montserrat;
      }

      .cls-5 {
        font-size: 48px;
        font-family: Montserrat-Medium, Montserrat;
        font-weight: 500;
      }

      .cls-6 {
        fill: #272727;
      }

      .cls-20, .cls-7 {
        fill: none;
      }

      .cls-7 {
        stroke: #dcdcdc;
      }

      .cls-8 {
        fill: #b54cad;
      }

      .cls-14, .cls-9 {
        font-size: 20px;
      }

      .cls-10, .cls-12, .cls-14, .cls-17 {
        fill: #3f3d56;
      }

      .cls-10 {
        font-size: 30px;
      }

      .cls-11, .cls-18 {
        stroke: #95989a;
      }

      .cls-12 {
        font-family: SegoeUI, Segoe UI;
      }

      .cls-13 {
        stroke: rgba(149,152,154,0.3);
      }

      .cls-15 {
        stroke: rgba(149,152,154,0.16);
      }

      .cls-16 {
        stroke: #a7289e;
      }

      .cls-19 {
        stroke: none;
      }

      .cls-21 {
        fill: #f9f9f9;
      }

      .cls-22 {
        filter: url(#base-4);
      }

      .cls-23 {
        filter: url(#base-3);
      }

      .cls-24 {
        filter: url(#title_base-3);
      }

      .cls-25 {
        filter: url(#base-2);
      }

      .cls-26 {
        filter: url(#base);
      }

      .cls-27 {
        filter: url(#title_base-2);
      }

      .cls-28 {
        filter: url(#title_base);
      }

      .cls-29 {
        filter: url(#Path_254);
      }
    </style>
    <filter id="Path_254" x="3998" y="3068" width="2070" height="216" filterUnits="userSpaceOnUse">
      <feOffset dy="3" input="SourceAlpha"/>
      <feGaussianBlur stdDeviation="25" result="blur"/>
      <feFlood flood-color="#a7289e" flood-opacity="0.161"/>
      <feComposite operator="in" in2="blur"/>
      <feComposite in="SourceGraphic"/>
    </filter>
    <filter id="title_base" x="4173" y="3185" width="1721" height="249" filterUnits="userSpaceOnUse">
      <feOffset dy="3" input="SourceAlpha"/>
      <feGaussianBlur stdDeviation="25" result="blur-2"/>
      <feFlood flood-color="#3f3d56" flood-opacity="0.161"/>
      <feComposite operator="in" in2="blur-2"/>
      <feComposite in="SourceGraphic"/>
    </filter>
    <filter id="title_base-2" x="4173" y="3752" width="1721" height="1034" filterUnits="userSpaceOnUse">
      <feOffset dy="3" input="SourceAlpha"/>
      <feGaussianBlur stdDeviation="25" result="blur-3"/>
      <feFlood flood-color="#3f3d56" flood-opacity="0.161"/>
      <feComposite operator="in" in2="blur-3"/>
      <feComposite in="SourceGraphic"/>
    </filter>
    <filter id="base" x="4377.5" y="4345.5" width="549" height="78" filterUnits="userSpaceOnUse">
      <feOffset input="SourceAlpha"/>
      <feGaussianBlur stdDeviation="1.5" result="blur-4"/>
      <feFlood flood-color="#a7289e" flood-opacity="0.161"/>
      <feComposite operator="in" in2="blur-4"/>
      <feComposite in="SourceGraphic"/>
    </filter>
    <filter id="base-2" x="4377.5" y="4547.5" width="549" height="78" filterUnits="userSpaceOnUse">
      <feOffset input="SourceAlpha"/>
      <feGaussianBlur stdDeviation="1.5" result="blur-5"/>
      <feFlood flood-color="#a7289e" flood-opacity="0.161"/>
      <feComposite operator="in" in2="blur-5"/>
      <feComposite in="SourceGraphic"/>
    </filter>
    <filter id="title_base-3" x="4173" y="3333" width="1721" height="523" filterUnits="userSpaceOnUse">
      <feOffset dy="3" input="SourceAlpha"/>
      <feGaussianBlur stdDeviation="25" result="blur-6"/>
      <feFlood flood-color="#3f3d56" flood-opacity="0.161"/>
      <feComposite operator="in" in2="blur-6"/>
      <feComposite in="SourceGraphic"/>
    </filter>
    <filter id="base-3" x="4296.5" y="3500.5" width="549" height="78" filterUnits="userSpaceOnUse">
      <feOffset input="SourceAlpha"/>
      <feGaussianBlur stdDeviation="1.5" result="blur-7"/>
      <feFlood flood-color="#a7289e" flood-opacity="0.161"/>
      <feComposite operator="in" in2="blur-7"/>
      <feComposite in="SourceGraphic"/>
    </filter>
    <filter id="base-4" x="4296.5" y="3649.5" width="549" height="78" filterUnits="userSpaceOnUse">
      <feOffset input="SourceAlpha"/>
      <feGaussianBlur stdDeviation="1.5" result="blur-8"/>
      <feFlood flood-color="#a7289e" flood-opacity="0.161"/>
      <feComposite operator="in" in2="blur-8"/>
      <feComposite in="SourceGraphic"/>
    </filter>
    <clipPath id="clip-create_exam">
      <rect x="4073" y="2979" width="1890" height="2074"/>
    </clipPath>
  </defs>
  <g id="create_exam" data-name="create exam" class="cls-1">
    <rect class="cls-21" x="4073" y="2979" width="1890" height="2074"/>
    <g id="navigation-bar" transform="translate(4073 2979)">
      <g class="cls-29" transform="matrix(1, 0, 0, 1, -4073, -2979)">
        <path id="Path_254-2" data-name="Path 254" class="cls-2" d="M0,0H1920V66H0Z" transform="translate(4073 3140)"/>
      </g>
      <text id="login-link" class="cls-3" transform="translate(410 204)"><tspan x="0" y="0">My exams</tspan></text>
      <text id="login-link-2" data-name="login-link" class="cls-3" transform="translate(175 204)"><tspan x="0" y="0">Dashboard</tspan></text>
      <text id="login-link-3" data-name="login-link" class="cls-3" transform="translate(631 204)"><tspan x="0" y="0">Students</tspan></text>
    </g>
    <rect id="navigation-marker" class="cls-4" width="125" height="6" rx="3" transform="translate(4483 3140)"/>
    <g id="header" transform="translate(4073 2979)">
      <rect id="header-base" class="cls-4" width="1920" height="162"/>
      <text id="logo" class="cls-5" transform="translate(173 101)"><tspan x="0" y="0">MyQuiz</tspan></text>
      <text id="login-link-4" data-name="login-link" class="cls-6" transform="translate(1657 93)"><tspan x="0" y="0">Logout</tspan></text>
      <path id="Path_255" data-name="Path 255" class="cls-7" d="M0,0H1920" transform="translate(0 161.5)"/>
      <text id="login-link-5" data-name="login-link" class="cls-6" transform="translate(1430 93)"><tspan x="0" y="0">Welcome Anver!</tspan></text>
    </g>
    <g id="footer" transform="translate(4073 3972)">
      <rect id="footer-base" class="cls-8" width="1920" height="70" transform="translate(0 1010)"/>
      <text id="copyright_text" data-name="copyright text" class="cls-9" transform="translate(175 1052)"><tspan x="0" y="0">Copyright 2020 @ M.A.Dole</tspan></text>
      <line id="Line_2" data-name="Line 2" class="cls-7" x2="1920" transform="translate(0 1010.5)"/>
    </g>
    <g id="page_title" data-name="page title" transform="translate(4073 2979)">
      <g class="cls-28" transform="matrix(1, 0, 0, 1, -4073, -2979)">
        <rect id="title_base-4" data-name="title base" class="cls-4" width="1571" height="99" rx="20" transform="translate(4248 3257)"/>
      </g>
      <text id="login-link-6" data-name="login-link" class="cls-10" transform="translate(224 338)"><tspan x="0" y="0">Create exam</tspan></text>
    </g>
    <g class="cls-27" transform="matrix(1, 0, 0, 1, 0, 0)">
      <rect id="title_base-5" data-name="title base" class="cls-4" width="1571" height="884" rx="20" transform="translate(4248 3824)"/>
    </g>
    <g id="Ellipse_72" data-name="Ellipse 72" class="cls-11" transform="translate(4301 3882)">
      <circle class="cls-19" cx="34" cy="34" r="34"/>
      <circle class="cls-20" cx="34" cy="34" r="33.5"/>
    </g>
    <text id="login-link-7" data-name="login-link" class="cls-10" transform="translate(4406 3929)"><tspan x="0" y="0">Quetion</tspan></text>
    <text id="_01" data-name="01" class="cls-12" transform="translate(4321 3927)"><tspan x="0" y="0">01</tspan></text>
    <g id="title_base-6" data-name="title base" class="cls-13" transform="translate(4301 3986)">
      <rect class="cls-19" width="1464" height="187" rx="5"/>
      <rect class="cls-20" x="0.5" y="0.5" width="1463" height="186" rx="4.5"/>
    </g>
    <text id="quetion" class="cls-14" transform="translate(4315 4005)"><tspan x="0" y="19">Etiam vitae tortor. Morbi vestibulum volutpat enim. Maecenas egestas arcu quis ligula mattis placerat. Curabitur ullamcorper ultricies nisi.</tspan><tspan x="0" y="43"></tspan><tspan x="0" y="67">Curabitur turpis. Pellentesque habitant morbi tristique senectus et netus et malesuada fames ac turpis egestas. Proin pretium, leo ac </tspan><tspan x="0" y="91">pellentesque mollis, felis nunc ultrices eros, sed gravida augue augue mollis justo. Integer tincidunt.</tspan><tspan x="0" y="115"></tspan><tspan x="0" y="139">Phasellus magna. Donec vitae sapien ut libero venenatis faucibus. Duis leo. Fusce ac felis sit amet ligula pharetra condimentum.</tspan></text>
    <text id="login-link-8" data-name="login-link" class="cls-10" transform="translate(4301 4231)"><tspan x="0" y="0">Answers</tspan></text>
    <g id="view_exam_button" data-name="view exam button" transform="translate(5404 3187)">
      <rect id="Rectangle_129" data-name="Rectangle 129" class="cls-2" width="151.933" height="49" rx="20" transform="translate(209 705)"/>
      <text id="login-link-9" data-name="login-link" class="cls-9" transform="translate(303.244 737)"><tspan x="-41.33" y="0">Remove</tspan></text>
      <path id="minus-circle" class="cls-4" d="M18,8A10,10,0,1,0,28,18,10,10,0,0,0,18,8ZM12.677,19.613a.485.485,0,0,1-.484-.484V16.871a.485.485,0,0,1,.484-.484H23.323a.485.485,0,0,1,.484.484v2.258a.485.485,0,0,1-.484.484Z" transform="translate(223.378 712)"/>
    </g>
    <g id="view_exam_button-2" data-name="view exam button" transform="translate(5368 3531)">
      <rect id="Rectangle_129-2" data-name="Rectangle 129" class="cls-2" width="187.933" height="49" rx="20" transform="translate(209 705)"/>
      <text id="login-link-10" data-name="login-link" class="cls-9" transform="translate(318.244 737)"><tspan x="-59.45" y="0">Add answer</tspan></text>
      <path id="plus-circle" class="cls-4" d="M18,8A10,10,0,1,0,28,18,10,10,0,0,0,18,8Zm5.806,11.129a.485.485,0,0,1-.484.484h-3.71v3.71a.485.485,0,0,1-.484.484H16.871a.485.485,0,0,1-.484-.484v-3.71h-3.71a.485.485,0,0,1-.484-.484V16.871a.485.485,0,0,1,.484-.484h3.71v-3.71a.485.485,0,0,1,.484-.484h2.258a.485.485,0,0,1,.484.484v3.71h3.71a.485.485,0,0,1,.484.484Z" transform="translate(224 712)"/>
    </g>
    <g id="Group_44" data-name="Group 44" transform="translate(4073 3344)">
      <g id="Rectangle_145" data-name="Rectangle 145" class="cls-15" transform="translate(228 913)">
        <rect class="cls-19" width="655" height="184" rx="5"/>
        <rect class="cls-20" x="0.5" y="0.5" width="654" height="183" rx="4.5"/>
      </g>
      <g id="radio_button" data-name="radio button" transform="translate(2533 594)">
        <rect id="outer_circule" data-name="outer circule" class="cls-8" width="27.9" height="28.615" rx="13.95" transform="translate(-2279 432)"/>
        <rect id="inner_circule" data-name="inner circule" class="cls-4" width="23.608" height="24.323" rx="11.804" transform="translate(-2276.854 434.146)"/>
      </g>
      <g id="Input" transform="translate(-851 547)">
        <g class="cls-26" transform="matrix(1, 0, 0, 1, -3222, -3891)">
          <g id="base-5" data-name="base" class="cls-16" transform="translate(4382 4350)">
            <rect class="cls-19" width="540" height="69" rx="5"/>
            <rect class="cls-20" x="0.5" y="0.5" width="539" height="68" rx="4.5"/>
          </g>
        </g>
        <text id="placeholder" class="cls-14" transform="translate(1195 503)"><tspan x="0" y="0">example@email.com</tspan></text>
      </g>
      <text id="login-link-11" data-name="login-link" class="cls-17" transform="translate(254 966)"><tspan x="0" y="0">Answer 1</tspan></text>
      <g id="view_exam_button-3" data-name="view exam button" transform="translate(488 228)">
        <rect id="Rectangle_129-3" data-name="Rectangle 129" class="cls-2" width="151.933" height="49" rx="20" transform="translate(209 705)"/>
        <text id="login-link-12" data-name="login-link" class="cls-9" transform="translate(303.244 737)"><tspan x="-41.33" y="0">Remove</tspan></text>
        <path id="minus-circle-2" data-name="minus-circle" class="cls-4" d="M18,8A10,10,0,1,0,28,18,10,10,0,0,0,18,8ZM12.677,19.613a.485.485,0,0,1-.484-.484V16.871a.485.485,0,0,1,.484-.484H23.323a.485.485,0,0,1,.484.484v2.258a.485.485,0,0,1-.484.484Z" transform="translate(223.378 712)"/>
      </g>
    </g>
    <g id="Group_45" data-name="Group 45" transform="translate(4073 3546)">
      <g id="Rectangle_145-2" data-name="Rectangle 145" class="cls-15" transform="translate(228 913)">
        <rect class="cls-19" width="655" height="184" rx="5"/>
        <rect class="cls-20" x="0.5" y="0.5" width="654" height="183" rx="4.5"/>
      </g>
      <g id="radio_button-2" data-name="radio button" transform="translate(2533 594)">
        <rect id="outer_circule-2" data-name="outer circule" class="cls-8" width="27.9" height="28.615" rx="13.95" transform="translate(-2279 432)"/>
        <rect id="inner_circule-2" data-name="inner circule" class="cls-4" width="23.608" height="24.323" rx="11.804" transform="translate(-2276.854 434.146)"/>
      </g>
      <g id="Input-2" data-name="Input" transform="translate(-851 547)">
        <g class="cls-25" transform="matrix(1, 0, 0, 1, -3222, -4093)">
          <g id="base-6" data-name="base" class="cls-16" transform="translate(4382 4552)">
            <rect class="cls-19" width="540" height="69" rx="5"/>
            <rect class="cls-20" x="0.5" y="0.5" width="539" height="68" rx="4.5"/>
          </g>
        </g>
        <text id="placeholder-2" data-name="placeholder" class="cls-14" transform="translate(1195 503)"><tspan x="0" y="0">example@email.com</tspan></text>
      </g>
      <text id="login-link-13" data-name="login-link" class="cls-17" transform="translate(254 966)"><tspan x="0" y="0">Answer 2</tspan></text>
      <g id="view_exam_button-4" data-name="view exam button" transform="translate(488 228)">
        <rect id="Rectangle_129-4" data-name="Rectangle 129" class="cls-2" width="151.933" height="49" rx="20" transform="translate(209 705)"/>
        <text id="login-link-14" data-name="login-link" class="cls-9" transform="translate(303.244 737)"><tspan x="-41.33" y="0">Remove</tspan></text>
        <path id="minus-circle-3" data-name="minus-circle" class="cls-4" d="M18,8A10,10,0,1,0,28,18,10,10,0,0,0,18,8ZM12.677,19.613a.485.485,0,0,1-.484-.484V16.871a.485.485,0,0,1,.484-.484H23.323a.485.485,0,0,1,.484.484v2.258a.485.485,0,0,1-.484.484Z" transform="translate(223.378 712)"/>
      </g>
    </g>
    <g id="pink_button" data-name="pink button" transform="translate(3706 3983)">
      <path id="base-7" data-name="base" class="cls-18" d="M20,.5H181A19.5,19.5,0,0,1,200.5,20V42A19.5,19.5,0,0,1,181,61.5H20A19.5,19.5,0,0,1,.5,42V20A19.5,19.5,0,0,1,20,.5Z" transform="translate(1109 898)"/>
      <text id="content" class="cls-3" transform="translate(1210 938)"><tspan x="-46.275" y="0">Submit</tspan></text>
    </g>
    <g id="pink_button-2" data-name="pink button" transform="translate(3941 3983)">
      <path id="base-8" data-name="base" class="cls-18" d="M20,.5H181A19.5,19.5,0,0,1,200.5,20V42A19.5,19.5,0,0,1,181,61.5H20A19.5,19.5,0,0,1,.5,42V20A19.5,19.5,0,0,1,20,.5Z" transform="translate(1109 898)"/>
      <text id="content-2" data-name="content" class="cls-3" transform="translate(1210 938)"><tspan x="-42.587" y="0">Cancel</tspan></text>
    </g>
    <g class="cls-24" transform="matrix(1, 0, 0, 1, 0, 0)">
      <rect id="title_base-7" data-name="title base" class="cls-4" width="1571" height="373" rx="20" transform="translate(4248 3405)"/>
    </g>
    <text id="login-link-15" data-name="login-link" class="cls-10" transform="translate(4301 3480)"><tspan x="0" y="0">Subject</tspan></text>
    <g id="Drop_down_input" data-name="Drop down input" transform="translate(6520 2251)">
      <g class="cls-23" transform="matrix(1, 0, 0, 1, -6520, -2251)">
        <g id="base-9" data-name="base" class="cls-16" transform="translate(4301 3505)">
          <rect class="cls-19" width="540" height="69" rx="5"/>
          <rect class="cls-20" x="0.5" y="0.5" width="539" height="68" rx="4.5"/>
        </g>
      </g>
      <text id="placeholder-3" data-name="placeholder" class="cls-14" transform="translate(-2184 1298)"><tspan x="0" y="0">Choose one</tspan></text>
      <path id="caret-down" class="cls-2" d="M12.641,192H29.949a1.343,1.343,0,0,1,.949,2.294l-8.651,8.658a1.348,1.348,0,0,1-1.9,0l-8.651-8.658A1.343,1.343,0,0,1,12.641,192Z" transform="translate(-1743.295 1093)"/>
    </g>
    <g id="Input-3" data-name="Input" transform="translate(3141 3195)">
      <g class="cls-22" transform="matrix(1, 0, 0, 1, -3141, -3195)">
        <g id="base-10" data-name="base" class="cls-16" transform="translate(4301 3654)">
          <rect class="cls-19" width="540" height="69" rx="5"/>
          <rect class="cls-20" x="0.5" y="0.5" width="539" height="68" rx="4.5"/>
        </g>
      </g>
      <text id="placeholder-4" data-name="placeholder" class="cls-14" transform="translate(1195 503)"><tspan x="0" y="0">example@email.com</tspan></text>
    </g>
    <text id="login-link-16" data-name="login-link" class="cls-10" transform="translate(4301 3629)"><tspan x="0" y="0">Duration</tspan></text>
    <g id="view_exam_button-5" data-name="view exam button" transform="translate(5404 4042)">
      <rect id="Rectangle_129-5" data-name="Rectangle 129" class="cls-2" width="205.933" height="49" rx="20" transform="translate(209 705)"/>
      <text id="login-link-17" data-name="login-link" class="cls-9" transform="translate(325.674 737)"><tspan x="-62.64" y="0">Add quetion</tspan></text>
      <path id="plus-circle-2" data-name="plus-circle" class="cls-4" d="M18,8A10,10,0,1,0,28,18,10,10,0,0,0,18,8Zm5.806,11.129a.485.485,0,0,1-.484.484h-3.71v3.71a.485.485,0,0,1-.484.484H16.871a.485.485,0,0,1-.484-.484v-3.71h-3.71a.485.485,0,0,1-.484-.484V16.871a.485.485,0,0,1,.484-.484h3.71v-3.71a.485.485,0,0,1,.484-.484h2.258a.485.485,0,0,1,.484.484v3.71h3.71a.485.485,0,0,1,.484.484Z" transform="translate(226.203 712)"/>
    </g>
  </g>
</svg>
