<svg xmlns="http://www.w3.org/2000/svg" xmlns:xlink="http://www.w3.org/1999/xlink" viewBox="3980 1170 1920 1080">
  <defs>
    <style>
      .cls-1 {
        clip-path: url(#clip-Frogot_password_step_3);
      }

      .cls-2 {
        fill: rgba(167,40,158,0.1);
      }

      .cls-3 {
        fill: none;
      }

      .cls-12, .cls-4, .cls-6 {
        fill: #3f3d56;
      }

      .cls-4 {
        font-size: 20px;
      }

      .cls-4, .cls-6, .cls-7, .cls-8 {
        font-family: Montserrat-Regular, Montserrat;
      }

      .cls-10, .cls-11, .cls-5, .cls-7, .cls-8 {
        fill: #a7289e;
      }

      .cls-5 {
        font-size: 48px;
        font-family: Montserrat-Medium, Montserrat;
        font-weight: 500;
      }

      .cls-6, .cls-8 {
        font-size: 25px;
      }

      .cls-7 {
        font-size: 35px;
      }

      .cls-20, .cls-9 {
        fill: #fff;
      }

      .cls-9 {
        stroke: #a7289e;
      }

      .cls-10, .cls-13 {
        opacity: 0.1;
      }

      .cls-14 {
        fill: #a8a8a8;
      }

      .cls-15 {
        opacity: 0.2;
      }

      .cls-16 {
        fill: #ffb9b9;
      }

      .cls-17 {
        fill: #ff6584;
      }

      .cls-18 {
        fill: #2f2e41;
      }

      .cls-19 {
        fill: #f2f2f2;
      }

      .cls-21 {
        stroke: none;
      }

      .cls-22 {
        filter: url(#base-2);
      }

      .cls-23 {
        filter: url(#Rectangle_3);
      }

      .cls-24 {
        filter: url(#base);
      }
    </style>
    <filter id="base" x="4150.5" y="1626.5" width="549" height="78" filterUnits="userSpaceOnUse">
      <feOffset input="SourceAlpha"/>
      <feGaussianBlur stdDeviation="1.5" result="blur"/>
      <feFlood flood-color="#a7289e" flood-opacity="0.161"/>
      <feComposite operator="in" in2="blur"/>
      <feComposite in="SourceGraphic"/>
    </filter>
    <filter id="Rectangle_3" x="4526.5" y="1866.5" width="173" height="72" filterUnits="userSpaceOnUse">
      <feOffset input="SourceAlpha"/>
      <feGaussianBlur stdDeviation="1.5" result="blur-2"/>
      <feFlood flood-opacity="0.161"/>
      <feComposite operator="in" in2="blur-2"/>
      <feComposite in="SourceGraphic"/>
    </filter>
    <filter id="base-2" x="4150.5" y="1765.5" width="549" height="78" filterUnits="userSpaceOnUse">
      <feOffset input="SourceAlpha"/>
      <feGaussianBlur stdDeviation="1.5" result="blur-3"/>
      <feFlood flood-color="#a7289e" flood-opacity="0.161"/>
      <feComposite operator="in" in2="blur-3"/>
      <feComposite in="SourceGraphic"/>
    </filter>
    <clipPath id="clip-Frogot_password_step_3">
      <rect x="3980" y="1170" width="1920" height="1080"/>
    </clipPath>
  </defs>
  <g id="Frogot_password_step_3" data-name="Frogot password – step 3" class="cls-1">
    <rect class="cls-20" x="3980" y="1170" width="1920" height="1080"/>
    <ellipse id="Ellipse_7" data-name="Ellipse 7" class="cls-2" cx="907" cy="829.5" rx="907" ry="829.5" transform="translate(4993 881)"/>
    <g id="simple-footer" transform="translate(3980 1170)">
      <rect id="footer-base" class="cls-3" width="1920" height="97" transform="translate(0 983)"/>
      <text id="copyright_text" data-name="copyright text" class="cls-4" transform="translate(173 1038)"><tspan x="0" y="0">Copyright 2020 @ M.A.Dole</tspan></text>
    </g>
    <g id="simple-header" transform="translate(3980 1170)">
      <rect id="header-base" class="cls-3" width="1920" height="162"/>
      <text id="logo" class="cls-5" transform="translate(173 101)"><tspan x="0" y="0">MyQuiz</tspan></text>
      <text id="login-link" class="cls-6" transform="translate(1506 93)"><tspan x="0" y="0">Login</tspan></text>
      <text id="sign-up-link" class="cls-6" transform="translate(1620 93)"><tspan x="0" y="0">Signup</tspan></text>
    </g>
    <g id="login" transform="translate(2995 1172)">
      <text id="FROGOT_PASSWORD" data-name="FROGOT PASSWORD" class="cls-7" transform="translate(1242 348)"><tspan x="0" y="0">FROGOT PASSWORD</tspan></text>
      <text id="New_password" data-name="New password" class="cls-8" transform="translate(1160 440)"><tspan x="0" y="0">New password</tspan></text>
      <g id="Input">
        <g class="cls-24" transform="matrix(1, 0, 0, 1, -2995, -1172)">
          <g id="base-3" data-name="base" class="cls-9" transform="translate(4155 1631)">
            <rect class="cls-21" width="540" height="69" rx="5"/>
            <rect class="cls-3" x="0.5" y="0.5" width="539" height="68" rx="4.5"/>
          </g>
        </g>
        <text id="placeholder" class="cls-4" transform="translate(1195 503)"><tspan x="0" y="0">Enter your password..</tspan></text>
      </g>
      <g id="button" transform="translate(0 -17)">
        <g class="cls-23" transform="matrix(1, 0, 0, 1, -2995, -1155)">
          <g id="Rectangle_3-2" data-name="Rectangle 3" class="cls-9" transform="translate(4531 1871)">
            <rect class="cls-21" width="164" height="63" rx="5"/>
            <rect class="cls-3" x="0.5" y="0.5" width="163" height="62" rx="4.5"/>
          </g>
        </g>
        <text id="Update" class="cls-8" transform="translate(1618 757)"><tspan x="-46.612" y="0">Update</tspan></text>
      </g>
      <text id="Confirm_new_password" data-name="Confirm new password" class="cls-8" transform="translate(1160 579)"><tspan x="0" y="0">Confirm new password</tspan></text>
      <g id="Input-2" data-name="Input" transform="translate(0 139)">
        <g class="cls-22" transform="matrix(1, 0, 0, 1, -2995, -1311)">
          <g id="base-4" data-name="base" class="cls-9" transform="translate(4155 1770)">
            <rect class="cls-21" width="540" height="69" rx="5"/>
            <rect class="cls-3" x="0.5" y="0.5" width="539" height="68" rx="4.5"/>
          </g>
        </g>
        <text id="placeholder-2" data-name="placeholder" class="cls-4" transform="translate(1195 503)"><tspan x="0" y="0">Re enter your password..</tspan></text>
      </g>
    </g>
    <g id="undraw_my_password_d6kg_1_" data-name="undraw_my_password_d6kg (1)" transform="translate(5165 1454)">
      <path id="Path_218" data-name="Path 218" class="cls-10" d="M670.51,345.294c-3.4,29.089-10.45,52.444-20.133,71.069-12.885,24.817-34.926,34.816-54.615,45.279a124.521,124.521,0,0,1-17.692,7.693c-35.828,12.434-75.927,9.136-107.426,2.571a423.476,423.476,0,0,0-67.062-8.479q-9.645-.435-19.309-.432c-9.935.013-188.816,3.408-232.369-84.767-10.753-21.751-18.123-48.32-20.771-80.708-7.493-91.564,33.689-151.7,86.809-191.007,100.487-74.355,238.226-71.237,337.231,5.077C621.12,162.424,682.867,239.356,670.51,345.294Z" transform="translate(-123.646 -52.509)"/>
      <path id="Path_219" data-name="Path 219" class="cls-11" d="M313.281,374.5c0,72.781-43.267,98.194-96.641,98.194S120,447.28,120,374.5s96.641-165.371,96.641-165.371S313.281,301.716,313.281,374.5Z" transform="translate(-120 -108.223)"/>
      <path id="Path_220" data-name="Path 220" class="cls-12" d="M123.09,409.05l.99-60.912,41.191-75.356-41.036,65.8.445-27.388,28.389-54.52L124.8,303.947h0l.8-49.259,30.4-43.4-30.274,35.658.5-90.324L123.081,276.19l.258-4.933L92.432,223.949l30.412,56.777-2.88,55.014-.086-1.461L84.248,284.5l35.522,54.943-.36,6.88-.064.1.03.565-7.306,139.575h9.761L123,414.469l35.435-54.809Z" transform="translate(-29.969 -55.713)"/>
      <path id="Path_221" data-name="Path 221" class="cls-11" d="M973.281,381.5c0,72.781-43.267,98.194-96.641,98.194S780,454.28,780,381.5s96.641-165.371,96.641-165.371S973.281,308.716,973.281,381.5Z" transform="translate(-354.781 -110.713)"/>
      <path id="Path_222" data-name="Path 222" class="cls-12" d="M783.09,416.05l.99-60.912,41.191-75.356-41.036,65.8.445-27.388,28.389-54.52L784.8,310.947h0l.8-49.259,30.4-43.4-30.274,35.658.5-90.324L783.081,283.19l.258-4.933-30.907-47.308,30.411,56.777-2.88,55.014-.086-1.461L744.248,291.5l35.522,54.943-.36,6.88-.064.1.03.565-7.306,139.576h9.761L783,421.469l35.435-54.809Z" transform="translate(-264.751 -58.204)"/>
      <path id="Path_223" data-name="Path 223" class="cls-11" d="M651.321,277.034c0,79.575-47.306,107.359-105.66,107.359S440,356.608,440,277.034,545.66,96.228,545.66,96.228,651.321,197.459,651.321,277.034Z" transform="translate(-233.833 -68.061)"/>
      <path id="Path_224" data-name="Path 224" class="cls-12" d="M454.578,319.711l1.082-66.6L500.7,170.725,455.83,242.667l.486-29.944,31.038-59.608L456.445,204.8h0l.875-53.857,33.237-47.456-33.1,38.987L458,43.719l-3.435,130.732.282-5.393-33.791-51.723,33.25,62.076L451.16,239.56l-.093-1.6-38.956-54.431L450.949,243.6l-.394,7.522-.07.113.032.617-7.988,152.6H453.2l1.28-78.822,38.743-59.924Z" transform="translate(-146.6 -15.552)"/>
      <path id="Path_225" data-name="Path 225" class="cls-12" d="M675.954,707.9c0,17.079-111.919,70.226-249.977,70.226S176,724.978,176,707.9s102.9-55.407,240.957-55.407S675.954,690.819,675.954,707.9Z" transform="translate(-139.921 -265.94)"/>
      <path id="Path_226" data-name="Path 226" class="cls-13" d="M675.954,707.9c0,17.079-111.919,70.226-249.977,70.226S176,724.978,176,707.9s102.9-55.407,240.957-55.407S675.954,690.819,675.954,707.9Z" transform="translate(-139.921 -265.94)"/>
      <path id="Path_227" data-name="Path 227" class="cls-12" d="M675.954,707.9c0,17.079-111.919,30.925-249.977,30.925S176,724.978,176,707.9s102.9-55.407,240.957-55.407S675.954,690.819,675.954,707.9Z" transform="translate(-139.921 -265.94)"/>
      <path id="Path_228" data-name="Path 228" class="cls-12" d="M694.429,605.571c0,24.5,15.371,44.327,34.366,44.327" transform="translate(-324.341 -249.249)"/>
      <path id="Path_229" data-name="Path 229" class="cls-11" d="M747.769,649.623c0-24.776,17.153-44.825,38.35-44.825" transform="translate(-343.316 -248.975)"/>
      <path id="Path_230" data-name="Path 230" class="cls-11" d="M713.755,609.018c0,23.273,9.8,42.106,21.914,42.106" transform="translate(-331.216 -250.476)"/>
      <path id="Path_231" data-name="Path 231" class="cls-12" d="M747.769,642.748c0-31.659,19.826-57.276,44.327-57.276" transform="translate(-343.316 -242.1)"/>
      <path id="Path_232" data-name="Path 232" class="cls-14" d="M736.548,673.4s4.874-.15,6.342-1.2,7.5-2.295,7.861-.617,7.324,8.343,1.822,8.387-12.785-.857-14.251-1.75S736.548,673.4,736.548,673.4Z" transform="translate(-339.324 -272.443)"/>
      <path id="Path_233" data-name="Path 233" class="cls-15" d="M752.671,680.844c-5.5.044-12.785-.857-14.251-1.75-1.116-.68-1.561-3.12-1.71-4.246l-.163.006s.309,3.931,1.775,4.824,8.749,1.794,14.251,1.75c1.588-.013,2.137-.578,2.107-1.415C754.459,680.519,753.854,680.835,752.671,680.844Z" transform="translate(-339.324 -273.893)"/>
      <ellipse id="Ellipse_58" data-name="Ellipse 58" class="cls-13" cx="85.044" cy="13.53" rx="85.044" ry="13.53" transform="translate(204.234 425.207)"/>
      <rect id="Rectangle_51" data-name="Rectangle 51" class="cls-16" width="8.376" height="19.328" transform="translate(318.27 408.456)"/>
      <rect id="Rectangle_52" data-name="Rectangle 52" class="cls-17" width="32.214" height="57.984" transform="translate(295.076 147.526)"/>
      <path id="Path_234" data-name="Path 234" class="cls-16" d="M527.073,399.312l1.115,8.92-29.36,8.919L495.111,400.8Z" transform="translate(-176.125 -142.047)"/>
      <path id="Path_235" data-name="Path 235" class="cls-16" d="M591.483,317.07s-.743,6.69-2.23,6.69-6.69,2.6-6.69,2.6l-1.487,7.061,10.406,6.318,17.1-1.858,4.831-7.433-4.831-4.831s-4.088-8.92-2.6-10.778S591.483,317.07,591.483,317.07Z" transform="translate(-284.019 -145.656)"/>
      <path id="Path_236" data-name="Path 236" class="cls-13" d="M591.483,317.07s-.743,6.69-2.23,6.69-6.69,2.6-6.69,2.6l-1.487,7.061,10.406,6.318,17.1-1.858,4.831-7.433-4.831-4.831s-4.088-8.92-2.6-10.778S591.483,317.07,591.483,317.07Z" transform="translate(-284.019 -145.656)"/>
      <path id="Path_237" data-name="Path 237" class="cls-16" d="M520.71,677.948s-3.345,22.3-7.433,23.786,15.609,4.088,15.609,4.088l1.487-8.176s.372-14.866,1.858-17.1S520.71,677.948,520.71,677.948Z" transform="translate(-259.701 -274.996)"/>
      <path id="Path_238" data-name="Path 238" class="cls-18" d="M561.855,470.185s53.889-9.663,54.261-11.521,11.149,14.123,4.46,45.341-23.414,104.805-23.414,104.805-17.1,5.2-16.724,1.115,5.946-75.073,5.946-75.073l-3.716-30.1-6.318,3.716L549.963,560.5l-13.38,44.969s-17.1,2.973-14.494-3.345,11.149-55.376,11.149-55.376l23.414-69.127S555.909,470.185,561.855,470.185Z" transform="translate(-262.939 -196.939)"/>
      <circle id="Ellipse_59" data-name="Ellipse 59" class="cls-16" cx="15.609" cy="15.609" r="15.609" transform="translate(296.872 145.213)"/>
      <path id="Path_239" data-name="Path 239" class="cls-19" d="M612.671,332.413s-7.433,7.061-24.9,5.2,4.831,39.767,4.831,39.767l7.061,42S630.882,415.663,632,408.6,612.671,332.413,612.671,332.413Z" transform="translate(-284.022 -152.079)"/>
      <path id="Path_240" data-name="Path 240" class="cls-18" d="M594.969,367.937s-8.92-4.46-12.264-16.724-6.318-24.9-8.176-24.529c-1.569.314-16.12,5.927-20.836,9.68-.87.692-1.4,1.321-1.463,1.841C551.858,341.549,565.609,375,565.609,375s10.778,24.157,6.318,31.962-4.831,17.839,3.345,17.1,35.307-2.23,31.59-23.042c0,0,7.061,14.494,26.759,4.088,0,0,11.893-1.858,11.521-5.946s-18.954-39.4-18.954-39.4-2.973-15.609,2.6-21.556l-12.636-14.866s-2.973-4.46-5.946-2.23a76.741,76.741,0,0,1-10.778,6.318c-1.115.372-1.848-1.336-1.848-1.336a32.313,32.313,0,0,0-2.983,17.317C595.713,353.07,594.969,367.937,594.969,367.937Z" transform="translate(-273.754 -147.836)"/>
      <path id="Path_241" data-name="Path 241" class="cls-18" d="M508.824,703.431s-.83-2.6-5.618,0c0,0,1.53-8.176-3.673-8.176s-7.062,9.663-7.062,9.663-1.487,6.318-11.521,8.92-2.23,11.521,4.831,11.521,16.353-5.575,16.353-5.575,19.326.372,19.7-3.345-1.858-14.866-3.345-14.866-4.46,5.2-4.46,5.2Z" transform="translate(-246.7 -281.152)"/>
      <path id="Path_242" data-name="Path 242" class="cls-18" d="M618.182,696.877s-5.2-5.575-8.176,3.717-5.2,13.008-3.345,14.494,3.345.743,2.6,3.716,2.23,9.291,8.92,9.291,8.548-4.831,8.176-8.176-3.345-7.433-3.345-7.433L620.04,702.08Z" transform="translate(-292.878 -281.14)"/>
      <path id="Path_243" data-name="Path 243" class="cls-16" d="M652.982,292.033l-19.7,6.69s-17.839,10.406-10.035,12.636,14.494-6.69,14.494-6.69l17.1-4.46Z" transform="translate(-298.318 -137.715)"/>
      <path id="Path_244" data-name="Path 244" class="cls-17" d="M580.865,262.775a28.819,28.819,0,0,0-5.97,6.011c-3.6,4.5-7.121,9.872-6.234,15.564.337,2.162,1.3,4.173,1.838,6.293a33.158,33.158,0,0,1,.629,8.807,11.894,11.894,0,0,1-.461,3.713,24.483,24.483,0,0,1-1.831,3.385c-1.79,3.334-1.834,7.3-1.835,11.079a9.448,9.448,0,0,0,.51,3.757,14.941,14.941,0,0,0,2.153,3.012,12.992,12.992,0,0,1,2,11.77,5.1,5.1,0,0,0,4.632-2.921,6.458,6.458,0,0,1-1.651,5.252c4.254-1.264,8.815-3.4,10.368-7.554a16.011,16.011,0,0,0,.763-4.366c.826-10.429,1.3-21.248-2.443-31.019-1.2-3.126-2.825-6.152-3.227-9.475s.825-7.163,3.878-8.535a3.52,3.52,0,0,0,1.063,2.24c.68.5,1.936.188,1.948-.658l1.475,2.053a3.6,3.6,0,0,0,1.4-1.222l1.011,1.238,2.15-1.564,1.867,2.013a3.973,3.973,0,0,0,1.639-1.784c.4.6.9,1.26,1.617,1.325,1.566.141,1.889-2.343,3.256-3.118a2.308,2.308,0,0,1,2.881.873,4.7,4.7,0,0,1,.58,3.184c-.566,5.11-4.927,9.774-3.634,14.75.727,2.8,3.175,5.042,3.36,7.927.148,2.306-1.208,4.487-1.187,6.8.024,2.708,1.9,5.008,3.721,7.007q4.876,5.337,10.264,10.174l-1.11-1.941a3.6,3.6,0,0,1,2.826,1.039,4.886,4.886,0,0,0-.709-3.326c-2.988-6.274-5.4-12.955-5.76-19.9-.5-9.647,2.968-19.444.77-28.851a24.9,24.9,0,0,0-8.394-13.419c-2.033-1.674-3.575-2.676-6.208-2.861a46.852,46.852,0,0,0-8.843.069,20.242,20.242,0,0,0-9.106,3.174Z" transform="translate(-279.003 -126.091)"/>
      <path id="Path_245" data-name="Path 245" class="cls-18" d="M646.838,308.526a30.05,30.05,0,0,0,5.946,0,15.473,15.473,0,0,0,4.46-2.23l14.123-10.406L659.1,297.748s2.23-17.1,1.487-17.468,36.05-7.433,35.307,4.088-21.556,34.192-33.448,38.652l-7.8,1.115Z" transform="translate(-307.412 -132.652)"/>
      <rect id="Rectangle_53" data-name="Rectangle 53" class="cls-20" width="175.242" height="41.233" transform="translate(204.234 307.634)"/>
      <rect id="Rectangle_54" data-name="Rectangle 54" class="cls-12" width="130.143" height="21.905" transform="translate(226.461 316.976)"/>
      <path id="Path_246" data-name="Path 246" class="cls-20" d="M508.878,556.395c-.052-.562-2.536-.812-5.945-.671,1.975-2.782,3.119-5,2.677-5.351-.418-.33-2.126,1.1-4.207,3.412-.2-3.107-.653-5.285-1.185-5.285-.58,0-1.071,2.592-1.232,6.154-2.895-2.082-5.233-3.3-5.592-2.848-.344.435,1.221,2.271,3.708,4.469-3.283.487-5.6,1.174-5.544,1.726s2.536.812,5.945.671c-1.975,2.782-3.119,5-2.677,5.351.418.33,2.126-1.1,4.207-3.412.2,3.107.653,5.285,1.185,5.285.58,0,1.071-2.592,1.232-6.154,2.895,2.082,5.233,3.3,5.592,2.848.344-.435-1.221-2.271-3.708-4.469C506.617,557.634,508.93,556.946,508.878,556.395Z" transform="translate(-252.173 -228.948)"/>
      <path id="Path_247" data-name="Path 247" class="cls-20" d="M542.878,556.395c-.052-.562-2.536-.812-5.945-.671,1.975-2.782,3.119-5,2.677-5.351-.418-.33-2.126,1.1-4.207,3.412-.2-3.107-.653-5.285-1.185-5.285-.58,0-1.071,2.592-1.232,6.154-2.895-2.082-5.233-3.3-5.592-2.848-.344.435,1.221,2.271,3.708,4.469-3.283.487-5.6,1.174-5.544,1.726s2.536.812,5.945.671c-1.975,2.782-3.119,5-2.677,5.351.418.33,2.126-1.1,4.207-3.412.2,3.107.653,5.285,1.185,5.285.58,0,1.071-2.592,1.232-6.154,2.895,2.082,5.232,3.3,5.592,2.848.344-.435-1.221-2.271-3.708-4.469C540.617,557.634,542.93,556.946,542.878,556.395Z" transform="translate(-264.268 -228.948)"/>
      <path id="Path_248" data-name="Path 248" class="cls-20" d="M576.878,556.395c-.052-.562-2.536-.812-5.945-.671,1.975-2.782,3.119-5,2.677-5.351-.418-.33-2.126,1.1-4.207,3.412-.2-3.107-.653-5.285-1.185-5.285-.58,0-1.071,2.592-1.232,6.154-2.895-2.082-5.233-3.3-5.592-2.848-.344.435,1.221,2.271,3.708,4.469-3.283.487-5.6,1.174-5.544,1.726s2.536.812,5.945.671c-1.975,2.782-3.119,5-2.677,5.351.418.33,2.126-1.1,4.207-3.412.2,3.107.653,5.285,1.185,5.285.58,0,1.071-2.592,1.232-6.154,2.895,2.082,5.232,3.3,5.592,2.848.344-.435-1.221-2.271-3.708-4.469C574.617,557.634,576.93,556.946,576.878,556.395Z" transform="translate(-276.363 -228.948)"/>
      <path id="Path_249" data-name="Path 249" class="cls-20" d="M610.878,556.395c-.052-.562-2.536-.812-5.945-.671,1.975-2.782,3.119-5,2.677-5.351-.418-.33-2.126,1.1-4.207,3.412-.2-3.107-.653-5.285-1.185-5.285-.58,0-1.071,2.592-1.232,6.154-2.895-2.082-5.233-3.3-5.592-2.848-.344.435,1.221,2.271,3.708,4.469-3.283.487-5.6,1.174-5.544,1.726s2.536.812,5.945.671c-1.975,2.782-3.119,5-2.677,5.351.418.33,2.126-1.1,4.207-3.412.2,3.107.653,5.285,1.185,5.285.58,0,1.071-2.592,1.232-6.154,2.895,2.082,5.232,3.3,5.592,2.848.344-.435-1.221-2.271-3.708-4.469C608.617,557.634,610.93,556.946,610.878,556.395Z" transform="translate(-288.458 -228.948)"/>
      <path id="Path_250" data-name="Path 250" class="cls-20" d="M644.878,556.395c-.052-.562-2.536-.812-5.945-.671,1.975-2.782,3.119-5,2.677-5.351-.417-.33-2.126,1.1-4.207,3.412-.2-3.107-.653-5.285-1.185-5.285-.58,0-1.071,2.592-1.232,6.154-2.895-2.082-5.232-3.3-5.592-2.848-.344.435,1.221,2.271,3.708,4.469-3.283.487-5.6,1.174-5.544,1.726s2.536.812,5.945.671c-1.975,2.782-3.119,5-2.677,5.351.418.33,2.126-1.1,4.207-3.412.2,3.107.653,5.285,1.185,5.285.58,0,1.071-2.592,1.232-6.154,2.895,2.082,5.232,3.3,5.592,2.848.344-.435-1.221-2.271-3.708-4.469C642.617,557.634,644.93,556.946,644.878,556.395Z" transform="translate(-300.553 -228.948)"/>
      <path id="Path_251" data-name="Path 251" class="cls-16" d="M548.684,501.354s-1.858,24.529,7.061,25.644.743-27.874.743-27.874Z" transform="translate(-272.438 -211.383)"/>
      <path id="Path_252" data-name="Path 252" class="cls-18" d="M551.459,346.835l-2.6.743S538.08,433.8,545.141,450.525c0,0,7.433-4.088,11.15-3.345l5.946-70.242Z" transform="translate(-270.382 -157.21)"/>
    </g>
  </g>
</svg>
