<svg xmlns="http://www.w3.org/2000/svg" xmlns:xlink="http://www.w3.org/1999/xlink" viewBox="0 1170 1920 1080">
  <defs>
    <style>
      .cls-1 {
        clip-path: url(#clip-Frogot_password_step_1);
      }

      .cls-2 {
        fill: rgba(167,40,158,0.1);
      }

      .cls-12, .cls-13, .cls-3 {
        fill: none;
      }

      .cls-4, .cls-6 {
        fill: #3f3d56;
      }

      .cls-4 {
        font-size: 20px;
      }

      .cls-4, .cls-6, .cls-7, .cls-9 {
        font-family: Montserrat-Regular, Montserrat;
      }

      .cls-11, .cls-15, .cls-5, .cls-7, .cls-9 {
        fill: #a7289e;
      }

      .cls-5 {
        font-size: 48px;
        font-family: Montserrat-Medium, Montserrat;
        font-weight: 500;
      }

      .cls-6, .cls-9 {
        font-size: 25px;
      }

      .cls-7 {
        font-size: 35px;
      }

      .cls-20, .cls-23, .cls-8 {
        fill: #fff;
      }

      .cls-8 {
        stroke: #a7289e;
      }

      .cls-10, .cls-15, .cls-19 {
        opacity: 0.1;
      }

      .cls-12, .cls-13 {
        stroke: #535461;
        stroke-miterlimit: 10;
      }

      .cls-13 {
        stroke-width: 2px;
      }

      .cls-14 {
        opacity: 0.25;
      }

      .cls-16 {
        fill: url(#linear-gradient);
      }

      .cls-17 {
        fill: #fdc2cc;
      }

      .cls-18 {
        opacity: 0.03;
      }

      .cls-20 {
        opacity: 0.15;
      }

      .cls-21 {
        fill: #865a61;
      }

      .cls-22 {
        stroke: none;
      }

      .cls-24 {
        filter: url(#Rectangle_3);
      }

      .cls-25 {
        filter: url(#base);
      }
    </style>
    <filter id="base" x="170.5" y="1699.5" width="549" height="78" filterUnits="userSpaceOnUse">
      <feOffset input="SourceAlpha"/>
      <feGaussianBlur stdDeviation="1.5" result="blur"/>
      <feFlood flood-color="#a7289e" flood-opacity="0.161"/>
      <feComposite operator="in" in2="blur"/>
      <feComposite in="SourceGraphic"/>
    </filter>
    <filter id="Rectangle_3" x="546.5" y="1793.5" width="173" height="72" filterUnits="userSpaceOnUse">
      <feOffset input="SourceAlpha"/>
      <feGaussianBlur stdDeviation="1.5" result="blur-2"/>
      <feFlood flood-opacity="0.161"/>
      <feComposite operator="in" in2="blur-2"/>
      <feComposite in="SourceGraphic"/>
    </filter>
    <linearGradient id="linear-gradient" x1="0.5" y1="1" x2="0.5" gradientUnits="objectBoundingBox">
      <stop offset="0" stop-color="gray" stop-opacity="0.251"/>
      <stop offset="0.54" stop-color="gray" stop-opacity="0.122"/>
      <stop offset="1" stop-color="gray" stop-opacity="0.102"/>
    </linearGradient>
    <clipPath id="clip-Frogot_password_step_1">
      <rect y="1170" width="1920" height="1080"/>
    </clipPath>
  </defs>
  <g id="Frogot_password_step_1" data-name="Frogot password step 1" class="cls-1">
    <rect class="cls-23" y="1170" width="1920" height="1080"/>
    <ellipse id="Ellipse_7" data-name="Ellipse 7" class="cls-2" cx="907" cy="829.5" rx="907" ry="829.5" transform="translate(1013 881)"/>
    <g id="simple-footer" transform="translate(0 1170)">
      <rect id="footer-base" class="cls-3" width="1920" height="97" transform="translate(0 983)"/>
      <text id="copyright_text" data-name="copyright text" class="cls-4" transform="translate(173 1038)"><tspan x="0" y="0">Copyright 2020 @ M.A.Dole</tspan></text>
    </g>
    <g id="simple-header" transform="translate(0 1170)">
      <rect id="header-base" class="cls-3" width="1920" height="162"/>
      <text id="logo" class="cls-5" transform="translate(173 101)"><tspan x="0" y="0">MyQuiz</tspan></text>
      <text id="login-link" class="cls-6" transform="translate(1506 93)"><tspan x="0" y="0">Login</tspan></text>
      <text id="sign-up-link" class="cls-6" transform="translate(1620 93)"><tspan x="0" y="0">Signup</tspan></text>
    </g>
    <g id="login" transform="translate(-985 1245)">
      <text id="FROGOT_PASSWORD" data-name="FROGOT PASSWORD" class="cls-7" transform="translate(1242 348)"><tspan x="0" y="0">FROGOT PASSWORD</tspan></text>
      <text id="Email" class="cls-6" transform="translate(1160 440)"><tspan x="0" y="0">Email</tspan></text>
      <g id="Input">
        <g class="cls-25" transform="matrix(1, 0, 0, 1, 985, -1245)">
          <g id="base-2" data-name="base" class="cls-8" transform="translate(175 1704)">
            <rect class="cls-22" width="540" height="69" rx="5"/>
            <rect class="cls-3" x="0.5" y="0.5" width="539" height="68" rx="4.5"/>
          </g>
        </g>
        <text id="placeholder" class="cls-4" transform="translate(1195 503)"><tspan x="0" y="0">Example@email.com</tspan></text>
      </g>
      <g id="button" transform="translate(0 -163)">
        <g class="cls-24" transform="matrix(1, 0, 0, 1, 985, -1082)">
          <g id="Rectangle_3-2" data-name="Rectangle 3" class="cls-8" transform="translate(551 1798)">
            <rect class="cls-22" width="164" height="63" rx="5"/>
            <rect class="cls-3" x="0.5" y="0.5" width="163" height="62" rx="4.5"/>
          </g>
        </g>
        <text id="Next" class="cls-9" transform="translate(1618 757)"><tspan x="-29.275" y="0">Next</tspan></text>
      </g>
    </g>
    <g id="undraw_forgot_password_gi2d_2_" data-name="undraw_forgot_password_gi2d (2)" transform="translate(1245.007 1528.02)">
      <g id="Group_15" data-name="Group 15" class="cls-10" transform="translate(375.616 214.223)">
        <path id="Path_157" data-name="Path 157" class="cls-11" d="M907.007,619.143s-35.151-4.564-8.936,52.328c0,0,23.891-10.238,24.842-33.329a18.374,18.374,0,0,0-15.408-18.927Z" transform="translate(-888.357 -575.239)"/>
        <path id="Path_158" data-name="Path 158" class="cls-12" d="M919.485,619.06s7.958,31.722-9.425,52.417" transform="translate(-900.32 -575.241)"/>
        <path id="Path_159" data-name="Path 159" class="cls-13" d="M909,644.352s12.657-31.193,36.291-42.763A51.009,51.009,0,0,0,968.455,579.1a85.781,85.781,0,0,0,5.8-14.573" transform="translate(-899.735 -545.185)"/>
        <path id="Path_160" data-name="Path 160" class="cls-11" d="M1068.8,533.4c-2.464,3.1-15.215,7.63-15.215,7.63s1.535-13.465,4-16.539a7.181,7.181,0,1,1,11.22,8.923Z" transform="translate(-979.431 -521.428)"/>
        <path id="Path_161" data-name="Path 161" class="cls-11" d="M1056.972,585.407c-3.752,1.261-16.912-1.876-16.912-1.876s8.595-10.448,12.347-11.71a7.181,7.181,0,1,1,4.565,13.586Z" transform="translate(-971.973 -548.908)"/>
        <path id="Path_162" data-name="Path 162" class="cls-11" d="M1008.113,650.011c-3.873-.8-13.653-10.157-13.653-10.157s12.693-4.681,16.57-3.878a7.181,7.181,0,0,1-2.917,14.03Z" transform="translate(-946.839 -584.514)"/>
        <path id="Path_163" data-name="Path 163" class="cls-11" d="M955.245,689.643c-3.954-.139-15.175-7.7-15.175-7.7s11.723-6.768,15.677-6.625a7.181,7.181,0,0,1-.5,14.322Z" transform="translate(-916.86 -606.248)"/>
        <path id="Path_164" data-name="Path 164" class="cls-11" d="M1012.6,568.485c.507,3.927,9.075,14.394,9.075,14.394s5.642-12.3,5.139-16.225a7.181,7.181,0,1,0-14.214,1.831Z" transform="translate(-956.761 -542.646)"/>
        <path id="Path_165" data-name="Path 165" class="cls-11" d="M952.636,613.426c1.656,3.591,12.966,11.018,12.966,11.018s1.705-13.424.049-17.015a7.181,7.181,0,1,0-13.016,6Z" transform="translate(-923.309 -566.295)"/>
        <path id="Path_166" data-name="Path 166" class="cls-11" d="M902.149,668.717c1.023,3.824,10.92,13.052,10.92,13.052s3.949-12.939,2.922-16.763a7.181,7.181,0,1,0-13.842,3.712Z" transform="translate(-895.747 -597.377)"/>
        <path id="Path_167" data-name="Path 167" class="cls-14" d="M1068.8,533.4c-2.464,3.1-15.215,7.63-15.215,7.63s1.535-13.465,4-16.539a7.181,7.181,0,1,1,11.22,8.923Z" transform="translate(-979.431 -521.428)"/>
        <path id="Path_168" data-name="Path 168" class="cls-14" d="M1056.972,585.407c-3.752,1.261-16.912-1.876-16.912-1.876s8.595-10.448,12.347-11.71a7.181,7.181,0,1,1,4.565,13.586Z" transform="translate(-971.973 -548.908)"/>
        <path id="Path_169" data-name="Path 169" class="cls-14" d="M1008.113,650.011c-3.873-.8-13.653-10.157-13.653-10.157s12.693-4.681,16.57-3.878a7.181,7.181,0,0,1-2.917,14.03Z" transform="translate(-946.839 -584.514)"/>
        <path id="Path_170" data-name="Path 170" class="cls-14" d="M955.245,689.643c-3.954-.139-15.175-7.7-15.175-7.7s11.723-6.768,15.677-6.625a7.181,7.181,0,0,1-.5,14.322Z" transform="translate(-916.86 -606.248)"/>
        <path id="Path_171" data-name="Path 171" class="cls-14" d="M1012.6,568.485c.507,3.927,9.075,14.394,9.075,14.394s5.642-12.3,5.139-16.225a7.181,7.181,0,1,0-14.214,1.831Z" transform="translate(-956.761 -542.646)"/>
        <path id="Path_172" data-name="Path 172" class="cls-14" d="M952.636,613.426c1.656,3.591,12.966,11.018,12.966,11.018s1.705-13.424.049-17.015a7.181,7.181,0,1,0-13.016,6Z" transform="translate(-923.309 -566.295)"/>
        <path id="Path_173" data-name="Path 173" class="cls-14" d="M902.149,668.717c1.023,3.824,10.92,13.052,10.92,13.052s3.949-12.939,2.922-16.763a7.181,7.181,0,1,0-13.842,3.712Z" transform="translate(-895.747 -597.377)"/>
        <path id="Path_174" data-name="Path 174" class="cls-13" d="M946.56,675.967s12.657-31.193,36.291-42.763a51.008,51.008,0,0,0,23.15-22.49,85.782,85.782,0,0,0,5.8-14.573" transform="translate(-920.438 -562.608)"/>
        <path id="Path_175" data-name="Path 175" class="cls-11" d="M1106.315,565.838c-2.464,3.1-15.215,7.63-15.215,7.63s1.535-13.464,4-16.539a7.181,7.181,0,0,1,11.22,8.922Z" transform="translate(-1000.105 -539.685)"/>
        <path id="Path_176" data-name="Path 176" class="cls-11" d="M1094.5,617.369c-3.752,1.261-16.912-1.876-16.912-1.876s8.595-10.448,12.347-11.71a7.181,7.181,0,0,1,4.565,13.586Z" transform="translate(-992.659 -566.688)"/>
        <path id="Path_177" data-name="Path 177" class="cls-11" d="M1045.643,681.651c-3.873-.8-13.653-10.157-13.653-10.157s12.693-4.681,16.57-3.878a7.181,7.181,0,0,1-2.917,14.03Z" transform="translate(-967.525 -601.953)"/>
        <path id="Path_178" data-name="Path 178" class="cls-11" d="M992.765,721.239c-3.954-.139-15.175-7.7-15.175-7.7s11.723-6.759,15.677-6.62a7.181,7.181,0,0,1-.5,14.322Z" transform="translate(-937.541 -623.665)"/>
        <path id="Path_179" data-name="Path 179" class="cls-11" d="M1050.115,600.126c.507,3.927,9.075,14.394,9.075,14.394s5.641-12.3,5.139-16.225a7.181,7.181,0,1,0-14.214,1.831Z" transform="translate(-977.441 -560.086)"/>
        <path id="Path_180" data-name="Path 180" class="cls-11" d="M990.639,646.016c1.656,3.591,12.966,11.018,12.966,11.018s1.705-13.424.049-17.015a7.181,7.181,0,0,0-13.016,6Z" transform="translate(-944.468 -584.72)"/>
        <path id="Path_181" data-name="Path 181" class="cls-11" d="M939.98,701.465c1.023,3.824,10.92,13.052,10.92,13.052s3.95-12.94,2.922-16.763a7.181,7.181,0,0,0-13.842,3.712Z" transform="translate(-916.735 -615.933)"/>
      </g>
      <path id="Path_182" data-name="Path 182" class="cls-15" d="M63.3,474.07c7.791,33.3,24.286,62.09,50.353,76.043,54.172,29,176.345,14.043,267.527-3.142A208.8,208.8,0,0,0,499.906,479.11Z" transform="translate(-57.985 -281.102)"/>
      <path id="Path_183" data-name="Path 183" class="cls-15" d="M556.915,80.313h-50.03a4.324,4.324,0,0,1,0-8.649h8.649a4.324,4.324,0,1,1,0-8.649h-6.176a4.324,4.324,0,1,1,0-8.649H535.47A69.1,69.1,0,0,0,515.1,48.752c-71.2-9.147-96.622-3.1-105.589,3.142a99.711,99.711,0,0,1-36.6,16.041c-43.935,9.053-126.091,19.959-200.554-3.5-37.01-11.669-64.518,8.043-81,40.968H565.6a77.276,77.276,0,0,0-5.875-26.139A4.3,4.3,0,0,1,556.915,80.313Z" transform="translate(-73.451 -44.1)"/>
      <path id="Path_184" data-name="Path 184" class="cls-15" d="M52.519,319.2a220.4,220.4,0,0,0,1.943,58.1l439.249,16.063a206.456,206.456,0,0,0,30.52-46.542Zm173.729,41.448H217.6a4.324,4.324,0,1,1,0,8.649h-50.03a4.324,4.324,0,1,1,0-8.649h8.649a4.324,4.324,0,1,1,0-8.649h-6.176a4.324,4.324,0,0,1,0-8.649h50.03a4.324,4.324,0,0,1,0,8.649h6.176a4.324,4.324,0,1,1,0,8.649Z" transform="translate(-51.45 -195.741)"/>
      <path id="Path_185" data-name="Path 185" class="cls-15" d="M545.03,181.38,65.472,193.049A191.6,191.6,0,0,0,54,242.567H536.628A204.865,204.865,0,0,0,543.6,211,149.564,149.564,0,0,0,545.03,181.38ZM151.358,219.606h-8.649a4.324,4.324,0,0,1,0,8.649H92.679a4.324,4.324,0,0,1,0-8.649h8.649a4.324,4.324,0,1,1,0-8.649H95.152a4.324,4.324,0,1,1,0-8.649h50.03a4.324,4.324,0,1,1,0,8.649h6.176a4.324,4.324,0,1,1,0,8.649Z" transform="translate(-52.859 -119.777)"/>
      <path id="Path_186" data-name="Path 186" class="cls-16" d="M552.5,421.361s-20-109.691-58.135-127.491c-32.315-15.094-67.26-25.268-77.2-28.029a42.911,42.911,0,0,0-5.121-6.683c-13.581-14.178-21.741-13.913-23.06-13.738a69.049,69.049,0,0,1-1.346-8.528c-.04-.449-.081-.866-.117-1.311l.117-.058q-.121-1.272-.215-2.626a67.592,67.592,0,0,0,15.166-11.045c.058.193.108.386.171.583q14.681-12.41,28.756-25.493c2.693-2.518,5.52-5.251,6.436-8.8a12.916,12.916,0,0,0,.337-3.734c.121-2.693-.516-5.444-.624-8.173a9.36,9.36,0,0,1,.108-1.293c.628-4.466,3.734-8.133,6.283-11.88a56.022,56.022,0,0,0,9.528-32.073,54.305,54.305,0,0,0-2.244-16.157c-1.988-6.651-6.126-13.64-13.016-15.094-2.666-.561-5.435-.211-8.155-.386-11.261-.718-19.69-9.874-28.671-16.584a75.675,75.675,0,0,0-37.512-14.56c-4.241-.449-8.622-.48-12.657.866C342.272,72.091,336.77,81.4,328.04,85.232c-6.454,2.846-13.913,2.383-20.646,4.52-10.022,3.187-18.527,13.465-18.752,24.025v1.369c-.112,5.336,1.8,10.772,1.948,16.234q0,.741.022,1.486a48.855,48.855,0,0,1-2.9,17.356c-1.158,2.985-2.648,6.441-2.406,9.425a6.309,6.309,0,0,0,1.49,4.937l2.168-1.912a65.552,65.552,0,0,0,22.553,62.314q.126,2.015.242,4.318c.341,6.651.61,15,.534,24.088l-21.166,19.456L236.71,297.532s-49.765,10.511-39.047,80.424l5.117,43.41h45.434l-.1.229h67.435l.04-.229H476.029l-.031.229h6.283v-.229ZM389.389,246.533a46.64,46.64,0,0,1,3.232,8.887,36.4,36.4,0,0,1-3.487-9.371l.067.121Zm-77.116,8.976q0,1.284-.045,2.59l-.108.153a21.992,21.992,0,0,1,.153-2.765Z" transform="translate(-131.21 -57.246)"/>
      <path id="Path_187" data-name="Path 187" class="cls-17" d="M536.2,408.62l-8.976,85.724L479.2,509.6s-62.386-11.669-46.228-45.331c11.494-23.944,11.176-66.735,10.036-89.445-.449-9.219-1.059-15.13-1.059-15.13s81.685-71.362,74.953-7.181c-1.3,12.428-1.378,22.145-.655,29.739C519.271,413.872,536.2,408.62,536.2,408.62Z" transform="translate(-260.267 -199.347)"/>
      <path id="Path_188" data-name="Path 188" class="cls-18" d="M536.2,408.62l-8.976,85.724L479.2,509.6s-62.386-11.669-46.228-45.331c11.494-23.944,11.176-66.735,10.036-89.445-.449-9.219-1.059-15.13-1.059-15.13s81.685-71.362,74.953-7.181c-1.3,12.428-1.378,22.145-.655,29.739C519.271,413.872,536.2,408.62,536.2,408.62Z" transform="translate(-260.267 -199.347)"/>
      <path id="Path_189" data-name="Path 189" class="cls-19" d="M531.2,349.518c-1.3,12.428-1.378,22.145-.655,29.739a65.11,65.11,0,0,1-73.238-7.428c-.449-9.219-1.059-15.13-1.059-15.13S537.935,285.337,531.2,349.518Z" transform="translate(-274.572 -197.694)"/>
      <ellipse id="Ellipse_45" data-name="Ellipse 45" class="cls-17" cx="65.079" cy="65.079" rx="65.079" ry="65.079" transform="translate(159.686 56.679)"/>
      <ellipse id="Ellipse_46" data-name="Ellipse 46" class="cls-18" cx="65.079" cy="65.079" rx="65.079" ry="65.079" transform="translate(159.686 56.679)"/>
      <path id="Path_190" data-name="Path 190" class="cls-11" d="M553.913,643.234H216.4L211.464,600.6c-10.323-68.669,37.7-78.992,37.7-78.992l52.512-24.236,20.87-19.524c-6.732,25.583,44.209,78.768,44.209,78.768h0a12.058,12.058,0,0,0,.929-.965c1.373-1.5,4.654-5.251,12.338-14.56,2.747-3.335,6.064-7.379,10.058-12.289,19.209-23.608,9.353-51.5,6.409-57.269l-.184-.359c-.112-.206-.2-.372-.265-.489a.734.734,0,0,0-.067-.121.717.717,0,0,1-.049-.09l24.685,19.3s.947.251,2.693.745c9.6,2.693,43.347,12.706,74.5,27.531C534.613,535.517,553.913,643.234,553.913,643.234Z" transform="translate(-138.849 -279.118)"/>
      <path id="Path_191" data-name="Path 191" class="cls-11" d="M622.151,540.374c-4.039-4.039-31.417-8.976-31.417-8.976.9,10.772-32.315,27.378-32.315,27.378l2.469,84.378H544.963L542.27,567.3l7.63-10.772h0l.929-.965a148.14,148.14,0,0,0,12.338-14.56c2.747-3.335,6.063-7.379,10.058-12.289,19.209-23.608,9.353-51.5,6.409-57.269l-.184-.359c-.108-.211-.193-.373-.265-.489a.724.724,0,0,0-.067-.121.722.722,0,0,1-.049-.09h0s8.079-1.8,22.441,13.465a42.071,42.071,0,0,1,4.937,6.58C618.116,509.159,625.71,543.933,622.151,540.374Z" transform="translate(-321.985 -279.038)"/>
      <path id="Path_192" data-name="Path 192" class="cls-19" d="M622.151,540.374c-4.039-4.039-31.417-8.976-31.417-8.976.9,10.772-32.315,27.378-32.315,27.378l2.469,84.378H544.963L542.27,567.3l7.63-10.772h0l.929-.965a148.14,148.14,0,0,0,12.338-14.56c2.747-3.335,6.063-7.379,10.058-12.289,19.209-23.608,9.353-51.5,6.409-57.269l-.184-.359c-.108-.211-.193-.373-.265-.489a.724.724,0,0,0-.067-.121.722.722,0,0,1-.049-.09h0s8.079-1.8,22.441,13.465a42.071,42.071,0,0,1,4.937,6.58C618.116,509.159,625.71,543.933,622.151,540.374Z" transform="translate(-321.985 -279.038)"/>
      <path id="Path_193" data-name="Path 193" class="cls-19" d="M313.25,703.4s21.094,43.087,22.217,68.445" transform="translate(-195.753 -407.505)"/>
      <path id="Path_194" data-name="Path 194" class="cls-19" d="M766.359,714.31,760.3,758.07h6.059Z" transform="translate(-419.067 -393.725)"/>
      <path id="Path_195" data-name="Path 195" class="cls-19" d="M323.75,620.732l33.437-76.075s9.425-17.953,11.669-35.905,14.362-46.228,14.362-46.228,30.071-38.15,43.984-32.764-12.118,25.583-12.118,25.583,38.15,14.811,12.118,58.8-26.48,35.905-26.48,35.905l-12.791,70.689Z" transform="translate(-201.541 -256.393)"/>
      <path id="Path_196" data-name="Path 196" class="cls-17" d="M321.75,620.721l33.437-76.075s9.425-17.953,11.669-35.905c1.427-11.413,6.844-27,10.6-36.844a56.489,56.489,0,0,1,10.646-17.5c9.721-10.879,27.378-28.424,37.1-24.654,13.913,5.386-12.118,25.583-12.118,25.583s38.15,14.811,12.118,58.8-26.48,35.905-26.48,35.905l-12.791,70.689Z" transform="translate(-200.438 -256.381)"/>
      <ellipse id="Ellipse_47" data-name="Ellipse 47" class="cls-20" cx="1.346" cy="1.346" rx="1.346" ry="1.346" transform="translate(243.39 83.833)"/>
      <ellipse id="Ellipse_48" data-name="Ellipse 48" class="cls-20" cx="1.346" cy="1.346" rx="1.346" ry="1.346" transform="translate(237.107 86.526)"/>
      <path id="Path_197" data-name="Path 197" class="cls-19" d="M423.016,106.35c6.494-2.1,13.7-1.647,19.932-4.439,8.424-3.779,13.734-12.926,22.477-15.888,3.9-1.32,8.124-1.27,12.212-.848a72.291,72.291,0,0,1,36.2,14.3c8.667,6.593,16.8,15.583,27.665,16.288,2.626.171,5.3-.175,7.868.377,6.66,1.427,10.65,8.29,12.567,14.811A55.77,55.77,0,0,1,554.91,177c-2.459,3.68-5.458,7.284-6.064,11.669-.592,4.3,1.239,8.756.171,12.966-.9,3.487-3.591,6.171-6.212,8.644q-13.577,12.841-27.75,25.022c-4.91-15.6,2.293-32.4,1.171-48.715-.449-6.355-2.693-13.294-8.3-16.292-5.247-2.8-11.952-1.346-17.262-4.039-5.924-2.985-8.357-10.054-12.836-14.946-7.63-8.348-20.875-9.425-31.543-5.655S426.9,157.183,418.46,164.746L403.124,178.5c-2.994-3.375-.723-8.554.9-12.773,2.415-6.324,2.944-13.141,2.783-19.856-.13-5.386-1.988-10.7-1.881-15.947C405.139,119.586,413.344,109.478,423.016,106.35Z" transform="translate(-244.484 -66.604)"/>
      <path id="Path_198" data-name="Path 198" class="cls-21" d="M423.016,103.35c6.494-2.1,13.7-1.647,19.932-4.439,8.424-3.779,13.734-12.926,22.477-15.888,3.9-1.32,8.124-1.27,12.212-.848a72.291,72.291,0,0,1,36.2,14.3c8.667,6.593,16.8,15.583,27.665,16.288,2.626.171,5.3-.175,7.868.377,6.66,1.427,10.65,8.29,12.567,14.811A55.77,55.77,0,0,1,554.91,174c-2.459,3.68-5.458,7.284-6.064,11.669-.592,4.3,1.239,8.756.171,12.966-.9,3.487-3.591,6.171-6.212,8.644q-13.577,12.841-27.75,25.022c-4.91-15.6,2.293-32.4,1.171-48.715-.449-6.355-2.693-13.294-8.3-16.292-5.247-2.8-11.952-1.346-17.262-4.039-5.924-2.985-8.357-10.054-12.836-14.946-7.63-8.348-20.875-9.425-31.543-5.655S426.9,154.183,418.46,161.746L403.124,175.5c-2.994-3.375-.723-8.554.9-12.773,2.415-6.324,2.944-13.141,2.783-19.856-.13-5.386-1.988-10.7-1.881-15.947C405.139,116.586,413.344,106.478,423.016,103.35Z" transform="translate(-244.484 -64.951)"/>
    </g>
  </g>
</svg>
