<svg xmlns="http://www.w3.org/2000/svg" xmlns:xlink="http://www.w3.org/1999/xlink" viewBox="1990 1170 1920 1080">
  <defs>
    <style>
      .cls-1 {
        clip-path: url(#clip-Frogot_password_step_2);
      }

      .cls-2 {
        fill: rgba(167,40,158,0.1);
      }

      .cls-3 {
        fill: none;
      }

      .cls-10, .cls-4, .cls-6 {
        fill: #3f3d56;
      }

      .cls-4 {
        font-size: 20px;
      }

      .cls-4, .cls-6, .cls-7, .cls-9 {
        font-family: Montserrat-Regular, Montserrat;
      }

      .cls-12, .cls-5, .cls-7, .cls-9 {
        fill: #a7289e;
      }

      .cls-5 {
        font-size: 48px;
        font-family: Montserrat-Medium, Montserrat;
        font-weight: 500;
      }

      .cls-6, .cls-9 {
        font-size: 25px;
      }

      .cls-7 {
        font-size: 35px;
      }

      .cls-15, .cls-8 {
        fill: #fff;
      }

      .cls-8 {
        stroke: #a7289e;
      }

      .cls-11 {
        fill: #d0cde1;
      }

      .cls-13 {
        opacity: 0.1;
      }

      .cls-14 {
        stroke: none;
      }

      .cls-16 {
        filter: url(#Rectangle_3-2);
      }

      .cls-17 {
        filter: url(#Rectangle_3);
      }

      .cls-18 {
        filter: url(#base);
      }
    </style>
    <filter id="base" x="2160.5" y="1699.5" width="549" height="78" filterUnits="userSpaceOnUse">
      <feOffset input="SourceAlpha"/>
      <feGaussianBlur stdDeviation="1.5" result="blur"/>
      <feFlood flood-color="#a7289e" flood-opacity="0.161"/>
      <feComposite operator="in" in2="blur"/>
      <feComposite in="SourceGraphic"/>
    </filter>
    <filter id="Rectangle_3" x="2536.5" y="1793.5" width="173" height="72" filterUnits="userSpaceOnUse">
      <feOffset input="SourceAlpha"/>
      <feGaussianBlur stdDeviation="1.5" result="blur-2"/>
      <feFlood flood-opacity="0.161"/>
      <feComposite operator="in" in2="blur-2"/>
      <feComposite in="SourceGraphic"/>
    </filter>
    <filter id="Rectangle_3-2" x="2350.5" y="1793.5" width="173" height="72" filterUnits="userSpaceOnUse">
      <feOffset input="SourceAlpha"/>
      <feGaussianBlur stdDeviation="1.5" result="blur-3"/>
      <feFlood flood-opacity="0.161"/>
      <feComposite operator="in" in2="blur-3"/>
      <feComposite in="SourceGraphic"/>
    </filter>
    <clipPath id="clip-Frogot_password_step_2">
      <rect x="1990" y="1170" width="1920" height="1080"/>
    </clipPath>
  </defs>
  <g id="Frogot_password_step_2" data-name="Frogot password – step 2" class="cls-1">
    <rect class="cls-15" x="1990" y="1170" width="1920" height="1080"/>
    <ellipse id="Ellipse_7" data-name="Ellipse 7" class="cls-2" cx="907" cy="829.5" rx="907" ry="829.5" transform="translate(3003 881)"/>
    <g id="simple-footer" transform="translate(1990 1170)">
      <rect id="footer-base" class="cls-3" width="1920" height="97" transform="translate(0 983)"/>
      <text id="copyright_text" data-name="copyright text" class="cls-4" transform="translate(173 1038)"><tspan x="0" y="0">Copyright 2020 @ M.A.Dole</tspan></text>
    </g>
    <g id="simple-header" transform="translate(1990 1170)">
      <rect id="header-base" class="cls-3" width="1920" height="162"/>
      <text id="logo" class="cls-5" transform="translate(173 101)"><tspan x="0" y="0">MyQuiz</tspan></text>
      <text id="login-link" class="cls-6" transform="translate(1506 93)"><tspan x="0" y="0">Login</tspan></text>
      <text id="sign-up-link" class="cls-6" transform="translate(1620 93)"><tspan x="0" y="0">Signup</tspan></text>
    </g>
    <g id="login" transform="translate(1005 1245)">
      <text id="FROGOT_PASSWORD" data-name="FROGOT PASSWORD" class="cls-7" transform="translate(1242 348)"><tspan x="0" y="0">FROGOT PASSWORD</tspan></text>
      <text id="Verification_pin" data-name="Verification pin" class="cls-6" transform="translate(1160 440)"><tspan x="0" y="0">Verification pin</tspan></text>
      <g id="Input">
        <g class="cls-18" transform="matrix(1, 0, 0, 1, -1005, -1245)">
          <g id="base-2" data-name="base" class="cls-8" transform="translate(2165 1704)">
            <rect class="cls-14" width="540" height="69" rx="5"/>
            <rect class="cls-3" x="0.5" y="0.5" width="539" height="68" rx="4.5"/>
          </g>
        </g>
        <text id="placeholder" class="cls-4" transform="translate(1195 503)"><tspan x="0" y="0">00000000</tspan></text>
      </g>
      <g id="button" transform="translate(0 -163)">
        <g class="cls-17" transform="matrix(1, 0, 0, 1, -1005, -1082)">
          <g id="Rectangle_3-3" data-name="Rectangle 3" class="cls-8" transform="translate(2541 1798)">
            <rect class="cls-14" width="164" height="63" rx="5"/>
            <rect class="cls-3" x="0.5" y="0.5" width="163" height="62" rx="4.5"/>
          </g>
        </g>
        <text id="Next" class="cls-9" transform="translate(1618 757)"><tspan x="-29.275" y="0">Next</tspan></text>
      </g>
      <g id="button-2" data-name="button" transform="translate(-186 -163)">
        <g class="cls-16" transform="matrix(1, 0, 0, 1, -819, -1082)">
          <g id="Rectangle_3-4" data-name="Rectangle 3" class="cls-8" transform="translate(2355 1798)">
            <rect class="cls-14" width="164" height="63" rx="5"/>
            <rect class="cls-3" x="0.5" y="0.5" width="163" height="62" rx="4.5"/>
          </g>
        </g>
        <text id="Resend" class="cls-9" transform="translate(1618 757)"><tspan x="-47.213" y="0">Resend</tspan></text>
      </g>
    </g>
    <g id="undraw_two_factor_authentication_namy_3_" data-name="undraw_two_factor_authentication_namy (3)" transform="translate(3153 1486)">
      <path id="Path_199" data-name="Path 199" class="cls-10" d="M1090.752,359.882h-1.2V326.927a19.073,19.073,0,0,0-19.073-19.073h-69.821a19.074,19.074,0,0,0-19.073,19.073V507.721a19.073,19.073,0,0,0,19.073,19.073h69.819a19.074,19.074,0,0,0,19.074-19.074V383.34h1.2Z" transform="translate(-378.454 -176.004)"/>
      <path id="Path_200" data-name="Path 200" class="cls-11" d="M1088.361,331.293V511.823a14.246,14.246,0,0,1-14.245,14.246h-70.156a14.241,14.241,0,0,1-14.24-14.244V331.293a14.24,14.24,0,0,1,14.239-14.24h8.511a6.771,6.771,0,0,0,6.265,9.32h40a6.757,6.757,0,0,0,6.265-9.32h9.113a14.245,14.245,0,0,1,14.246,14.24Z" transform="translate(-381.325 -179.25)"/>
      <rect id="Rectangle_32" data-name="Rectangle 32" class="cls-12" width="81.553" height="22.006" transform="translate(612.201 230.231)"/>
      <path id="Path_201" data-name="Path 201" class="cls-10" d="M1082.506,475.154h-78.964a1.944,1.944,0,0,1-1.942-1.942V453.795a1.944,1.944,0,0,1,1.942-1.942h78.964a1.944,1.944,0,0,1,1.942,1.942v19.417A1.944,1.944,0,0,1,1082.506,475.154Zm-78.964-22.007a.648.648,0,0,0-.647.647v19.417a.648.648,0,0,0,.647.647h78.964a.648.648,0,0,0,.647-.647V453.795a.648.648,0,0,0-.647-.647Z" transform="translate(-385.515 -226.8)"/>
      <rect id="Rectangle_33" data-name="Rectangle 33" class="cls-10" width="10.356" height="1.294" transform="translate(621.263 242.529)"/>
      <rect id="Rectangle_34" data-name="Rectangle 34" class="cls-10" width="10.356" height="1.294" transform="translate(635.502 242.529)"/>
      <rect id="Rectangle_35" data-name="Rectangle 35" class="cls-10" width="10.356" height="1.294" transform="translate(649.741 242.529)"/>
      <rect id="Rectangle_36" data-name="Rectangle 36" class="cls-10" width="10.356" height="1.294" transform="translate(663.981 242.529)"/>
      <rect id="Rectangle_37" data-name="Rectangle 37" class="cls-10" width="10.356" height="1.294" transform="translate(678.22 242.529)"/>
      <path id="Path_202" data-name="Path 202" class="cls-13" d="M1088.361,553.6v18.356a14.247,14.247,0,0,1-14.245,14.246h-70.156a14.241,14.241,0,0,1-14.24-14.244V487.513Z" transform="translate(-381.325 -239.379)"/>
      <rect id="Rectangle_38" data-name="Rectangle 38" class="cls-11" width="306.149" height="150.162" transform="translate(64.629 297.545)"/>
      <path id="Path_203" data-name="Path 203" class="cls-13" d="M377.918,714.015H150.9a1.3,1.3,0,0,1-1.295-1.294V565.148a1.3,1.3,0,0,1,1.294-1.295h2.874Z" transform="translate(-84.972 -266.308)"/>
      <rect id="Rectangle_39" data-name="Rectangle 39" class="cls-10" width="474.434" height="1.294" transform="translate(206.376 317.61)"/>
      <path id="Path_204" data-name="Path 204" class="cls-10" d="M413.736,106.941H278.144v-2.795H216.661v2.795H80.51a9.172,9.172,0,0,0-9.172,9.172V301.78a9.172,9.172,0,0,0,9.172,9.172H413.736a9.172,9.172,0,0,0,9.172-9.172V116.113a9.172,9.172,0,0,0-9.172-9.172Z" transform="translate(-57.365 -104.147)"/>
      <rect id="Rectangle_40" data-name="Rectangle 40" class="cls-11" width="326.971" height="184.453" transform="translate(26.273 19.001)"/>
      <circle id="Ellipse_49" data-name="Ellipse 49" class="cls-12" cx="3.354" cy="3.354" r="3.354" transform="translate(186.125 7.266)"/>
      <path id="Path_205" data-name="Path 205" class="cls-10" d="M235.31,233.5h-7.767a1.944,1.944,0,0,1-1.942-1.942v-7.767a1.944,1.944,0,0,1,1.942-1.942h7.767a1.944,1.944,0,0,1,1.942,1.942v7.767a1.944,1.944,0,0,1-1.942,1.942Zm-7.767-10.356a.648.648,0,0,0-.647.647v7.767a.648.648,0,0,0,.647.647h7.767a.648.648,0,0,0,.647-.647v-7.767a.648.648,0,0,0-.647-.647Z" transform="translate(-111.781 -145.668)"/>
      <rect id="Rectangle_41" data-name="Rectangle 41" class="cls-10" width="147.573" height="1.294" transform="translate(114.467 86.542)"/>
      <rect id="Rectangle_42" data-name="Rectangle 42" class="cls-12" width="34.304" height="10.356" transform="translate(223.852 122.14)"/>
      <path id="Path_206" data-name="Path 206" class="cls-10" d="M434.258,298.5H402.543a1.944,1.944,0,0,1-1.942-1.942v-7.767a1.944,1.944,0,0,1,1.942-1.942h31.715a1.944,1.944,0,0,1,1.942,1.942v7.767A1.944,1.944,0,0,1,434.258,298.5Zm-31.715-10.356a.648.648,0,0,0-.647.647v7.767a.648.648,0,0,0,.647.647h31.715a.648.648,0,0,0,.647-.647v-7.767a.648.648,0,0,0-.647-.647Z" transform="translate(-173.513 -168.597)"/>
      <rect id="Rectangle_43" data-name="Rectangle 43" class="cls-12" width="64.725" height="45.307" transform="translate(455.567 133.791)"/>
      <path id="Path_207" data-name="Path 207" class="cls-10" d="M828.326,349.249H766.19a2.592,2.592,0,0,1-2.589-2.589V303.942a2.592,2.592,0,0,1,2.589-2.589h62.136a2.592,2.592,0,0,1,2.589,2.589V346.66a2.592,2.592,0,0,1-2.589,2.589ZM766.19,303.942V346.66h62.138l0-42.718Z" transform="translate(-301.561 -173.711)"/>
      <path id="Path_208" data-name="Path 208" class="cls-10" d="M826.5,289.8h-2.589a21.359,21.359,0,1,0-42.718,0H778.6a23.948,23.948,0,0,1,47.9,0Z" transform="translate(-306.852 -161.189)"/>
      <path id="Path_209" data-name="Path 209" class="cls-10" d="M818.546,326.821a6.473,6.473,0,1,0-9.9,5.484v6.947a3.427,3.427,0,0,0,3.427,3.427h0a3.427,3.427,0,0,0,3.427-3.427v-6.947A6.462,6.462,0,0,0,818.546,326.821Z" transform="translate(-316.376 -180.409)"/>
      <rect id="Rectangle_44" data-name="Rectangle 44" class="cls-10" width="10.356" height="1.294" transform="translate(184.046 364.212)"/>
      <rect id="Rectangle_45" data-name="Rectangle 45" class="cls-10" width="10.356" height="1.294" transform="translate(198.286 364.212)"/>
      <rect id="Rectangle_46" data-name="Rectangle 46" class="cls-10" width="10.356" height="1.294" transform="translate(212.525 364.212)"/>
      <rect id="Rectangle_47" data-name="Rectangle 47" class="cls-10" width="10.356" height="1.294" transform="translate(226.764 364.212)"/>
      <rect id="Rectangle_48" data-name="Rectangle 48" class="cls-10" width="10.356" height="1.294" transform="translate(241.004 364.212)"/>
      <path id="Path_210" data-name="Path 210" class="cls-10" d="M476.75,695.6H173.19a2.592,2.592,0,0,1-2.589-2.589V545.443a2.592,2.592,0,0,1,2.589-2.589H476.75a2.591,2.591,0,0,1,2.589,2.589V693.016A2.591,2.591,0,0,1,476.75,695.6ZM173.19,545.443V693.016H476.752l0-147.573Z" transform="translate(-92.38 -258.901)"/>
      <circle id="Ellipse_50" data-name="Ellipse 50" class="cls-10" cx="3.883" cy="3.883" r="3.883" transform="translate(90.518 300.781)"/>
      <circle id="Ellipse_51" data-name="Ellipse 51" class="cls-10" cx="3.883" cy="3.883" r="3.883" transform="translate(104.111 300.781)"/>
      <circle id="Ellipse_52" data-name="Ellipse 52" class="cls-10" cx="3.883" cy="3.883" r="3.883" transform="translate(117.703 300.781)"/>
      <path id="Path_211" data-name="Path 211" class="cls-10" d="M404.921,666.743H317.543A1.944,1.944,0,0,1,315.6,664.8V642.795a1.944,1.944,0,0,1,1.942-1.942h87.379a1.944,1.944,0,0,1,1.942,1.942V664.8a1.944,1.944,0,0,1-1.942,1.942Zm-87.379-24.6a.648.648,0,0,0-.647.647V664.8a.648.648,0,0,0,.647.647h87.379a.648.648,0,0,0,.647-.647V642.795a.648.648,0,0,0-.647-.647Z" transform="translate(-143.529 -293.47)"/>
      <circle id="Ellipse_53" data-name="Ellipse 53" class="cls-12" cx="11.65" cy="11.65" r="11.65" transform="translate(271.748 350.619)"/>
      <path id="Path_212" data-name="Path 212" class="cls-10" d="M486.9,666.448a12.3,12.3,0,1,1,12.3-12.3A12.3,12.3,0,0,1,486.9,666.448Zm0-23.3a11,11,0,1,0,11,11,11,11,0,0,0-11-11Z" transform="translate(-199.616 -293.823)"/>
      <path id="Path_213" data-name="Path 213" class="cls-10" d="M440.7,552.78l-6.266-6.267,1.83-1.83,4.09,4.089,11.412-16.217,2.117,1.491Z" transform="translate(-153.248 -187.859)"/>
      <path id="Path_214" data-name="Path 214" class="cls-13" d="M295.07,221.426H40.591V50.947Z" transform="translate(-14.318 -17.972)"/>
      <path id="Path_215" data-name="Path 215" class="cls-10" d="M424.473,411.8H392.562v-2.3a.456.456,0,0,0-.456-.456H381.166a.456.456,0,0,0-.456.456v2.3h-6.838v-2.3a.456.456,0,0,0-.456-.456H362.475a.456.456,0,0,0-.456.456v2.3h-6.838v-2.3a.456.456,0,0,0-.456-.456H343.784a.456.456,0,0,0-.456.456v2.3H336.49v-2.3a.456.456,0,0,0-.456-.456h-10.94a.456.456,0,0,0-.456.456v2.3H317.8v-2.3a.456.456,0,0,0-.456-.456H306.4a.456.456,0,0,0-.456.456v2.3h-6.839v-2.3a.456.456,0,0,0-.456-.456h-10.94a.456.456,0,0,0-.456.456v2.3h-6.838v-2.3a.456.456,0,0,0-.456-.456h-85.7a.456.456,0,0,0-.456.456v2.3h-6.838v-2.3a.456.456,0,0,0-.456-.456H175.569a.456.456,0,0,0-.456.456v2.3h-6.838v-2.3a.456.456,0,0,0-.456-.456H156.879a.456.456,0,0,0-.456.456v2.3h-6.838v-2.3a.456.456,0,0,0-.456-.456H138.188a.456.456,0,0,0-.456.456v2.3h-6.838v-2.3a.456.456,0,0,0-.456-.456H119.5a.456.456,0,0,0-.456.456v2.3H112.2v-2.3a.456.456,0,0,0-.456-.456H100.807a.456.456,0,0,0-.456.456v2.3H93.513v-2.3a.456.456,0,0,0-.456-.456H82.116a.456.456,0,0,0-.456.456v2.3H60.691A10.941,10.941,0,0,0,49.75,422.738v4.947A10.941,10.941,0,0,0,60.69,438.626H424.473a10.941,10.941,0,0,0,10.941-10.941v-4.947A10.941,10.941,0,0,0,424.473,411.8Z" transform="translate(-49.75 -211.699)"/>
      <path id="Path_216" data-name="Path 216" class="cls-10" d="M380.417,280.934H209.543a1.944,1.944,0,0,1-1.942-1.942v-71.2a1.944,1.944,0,0,1,1.942-1.942H380.417a1.944,1.944,0,0,1,1.942,1.942v71.2a1.944,1.944,0,0,1-1.942,1.942ZM209.543,207.147a.648.648,0,0,0-.647.647v71.2a.648.648,0,0,0,.647.647H380.417a.648.648,0,0,0,.647-.647v-71.2a.648.648,0,0,0-.647-.647Z" transform="translate(-105.432 -140.024)"/>
      <path id="Path_217" data-name="Path 217" class="cls-10" d="M235.31,263.5h-7.767a1.944,1.944,0,0,1-1.942-1.942v-7.767a1.944,1.944,0,0,1,1.942-1.942h7.767a1.944,1.944,0,0,1,1.942,1.942v7.767a1.944,1.944,0,0,1-1.942,1.942Zm-7.767-10.356a.648.648,0,0,0-.647.647v7.767a.648.648,0,0,0,.647.647h7.767a.648.648,0,0,0,.647-.647v-7.767a.648.648,0,0,0-.647-.647Z" transform="translate(-111.781 -156.25)"/>
      <rect id="Rectangle_49" data-name="Rectangle 49" class="cls-10" width="147.573" height="1.294" transform="translate(114.467 105.959)"/>
      <rect id="Rectangle_50" data-name="Rectangle 50" class="cls-10" width="474.434" height="1.294" transform="translate(171.425 174.568)"/>
      <circle id="Ellipse_54" data-name="Ellipse 54" class="cls-10" cx="9.061" cy="9.061" r="9.061" transform="translate(162.363 165.506)"/>
      <circle id="Ellipse_55" data-name="Ellipse 55" class="cls-10" cx="7.12" cy="7.12" r="7.12" transform="translate(638.739 168.742)"/>
      <circle id="Ellipse_56" data-name="Ellipse 56" class="cls-10" cx="7.12" cy="7.12" r="7.12" transform="translate(673.69 311.784)"/>
      <circle id="Ellipse_57" data-name="Ellipse 57" class="cls-10" cx="7.12" cy="7.12" r="7.12" transform="translate(201.198 311.784)"/>
    </g>
  </g>
</svg>
