<svg xmlns="http://www.w3.org/2000/svg" xmlns:xlink="http://www.w3.org/1999/xlink" viewBox="47 2979 1920 1080">
  <defs>
    <style>
      .cls-1 {
        clip-path: url(#clip-my_exams);
      }

      .cls-2 {
        fill: rgba(167,40,158,0.1);
      }

      .cls-10, .cls-3, .cls-8 {
        fill: #fff;
      }

      .cls-11, .cls-14, .cls-20, .cls-4, .cls-9 {
        fill: #a7289e;
      }

      .cls-4 {
        font-size: 48px;
        font-family: Montserrat-Medium, Montserrat;
        font-weight: 500;
      }

      .cls-12, .cls-13, .cls-5 {
        fill: #3f3d56;
      }

      .cls-10, .cls-5 {
        font-size: 25px;
      }

      .cls-10, .cls-11, .cls-13, .cls-5, .cls-8 {
        font-family: Montserrat-Regular, Montserrat;
      }

      .cls-6 {
        fill: none;
        stroke: #dcdcdc;
      }

      .cls-7 {
        fill: #b54cad;
      }

      .cls-11, .cls-8 {
        font-size: 20px;
      }

      .cls-13 {
        font-size: 30px;
      }

      .cls-14, .cls-16, .cls-29 {
        opacity: 0.1;
      }

      .cls-15 {
        fill: #c8cad7;
      }

      .cls-17 {
        fill: #474157;
      }

      .cls-18 {
        fill: #4c4c78;
      }

      .cls-19 {
        fill: #ededf4;
      }

      .cls-20, .cls-21, .cls-30 {
        opacity: 0.5;
      }

      .cls-21, .cls-31 {
        fill: #dce0ed;
      }

      .cls-22 {
        fill: url(#linear-gradient);
      }

      .cls-23 {
        fill: #65617d;
      }

      .cls-24 {
        fill: #a27772;
      }

      .cls-25 {
        fill: #fbbebe;
      }

      .cls-26 {
        fill: #ff748e;
      }

      .cls-27 {
        opacity: 0.05;
      }

      .cls-28 {
        fill: #7c5c5c;
      }

      .cls-32 {
        fill: #ffd037;
      }

      .cls-33 {
        fill: #a8a8a8;
      }

      .cls-34 {
        opacity: 0.2;
      }

      .cls-35 {
        fill: #f9f9f9;
      }

      .cls-36 {
        filter: url(#title_base);
      }

      .cls-37 {
        filter: url(#Path_327);
      }

      .cls-38 {
        filter: url(#Rectangle_58);
      }
    </style>
    <filter id="Rectangle_58" x="549" y="3336" width="511.68" height="309.65" filterUnits="userSpaceOnUse">
      <feOffset input="SourceAlpha"/>
      <feGaussianBlur stdDeviation="25" result="blur"/>
      <feFlood flood-color="#3f3d56" flood-opacity="0.161"/>
      <feComposite operator="in" in2="blur"/>
      <feComposite in="SourceGraphic"/>
    </filter>
    <filter id="Path_327" x="954.719" y="3336.5" width="510.68" height="308.65" filterUnits="userSpaceOnUse">
      <feOffset input="SourceAlpha"/>
      <feGaussianBlur stdDeviation="25" result="blur-2"/>
      <feFlood flood-color="#3f3d56" flood-opacity="0.161"/>
      <feComposite operator="in" in2="blur-2"/>
      <feComposite in="SourceGraphic"/>
    </filter>
    <filter id="title_base" x="147" y="3185" width="1721" height="249" filterUnits="userSpaceOnUse">
      <feOffset dy="3" input="SourceAlpha"/>
      <feGaussianBlur stdDeviation="25" result="blur-3"/>
      <feFlood flood-color="#3f3d56" flood-opacity="0.161"/>
      <feComposite operator="in" in2="blur-3"/>
      <feComposite in="SourceGraphic"/>
    </filter>
    <linearGradient id="linear-gradient" x1="0.5" y1="1" x2="0.5" gradientUnits="objectBoundingBox">
      <stop offset="0" stop-color="gray" stop-opacity="0.251"/>
      <stop offset="0.54" stop-color="gray" stop-opacity="0.122"/>
      <stop offset="1" stop-color="gray" stop-opacity="0.102"/>
    </linearGradient>
    <clipPath id="clip-my_exams">
      <rect x="47" y="2979" width="1920" height="1080"/>
    </clipPath>
  </defs>
  <g id="my_exams" data-name="my exams" class="cls-1">
    <rect class="cls-35" x="47" y="2979" width="1920" height="1080"/>
    <path id="background-curve" class="cls-2" d="M47,3542.83s205.7,108.926,929.9,100.533,988.3,216.672,988.3,216.672v258.194H47Z" transform="translate(0 -131.33)"/>
    <g id="header" transform="translate(47 2979)">
      <rect id="header-base" class="cls-3" width="1920" height="162"/>
      <text id="logo" class="cls-4" transform="translate(173 101)"><tspan x="0" y="0">MyQuiz</tspan></text>
      <text id="login-link" class="cls-5" transform="translate(1657 93)"><tspan x="0" y="0">Logout</tspan></text>
      <path id="Path_255" data-name="Path 255" class="cls-6" d="M0,0H1920" transform="translate(0 161.5)"/>
      <text id="login-link-2" data-name="login-link" class="cls-5" transform="translate(1430 93)"><tspan x="0" y="0">Welcome Anver!</tspan></text>
    </g>
    <g id="Group_16" data-name="Group 16" transform="translate(47 2979)">
      <rect id="footer-base" class="cls-7" width="1920" height="70" transform="translate(0 1010)"/>
      <text id="copyright_text" data-name="copyright text" class="cls-8" transform="translate(175 1052)"><tspan x="0" y="0">Copyright 2020 @ M.A.Dole</tspan></text>
      <line id="Line_2" data-name="Line 2" class="cls-6" x2="1920" transform="translate(0 1010.5)"/>
    </g>
    <path id="Path_254" data-name="Path 254" class="cls-9" d="M0,0H1920V66H0Z" transform="translate(47 3140)"/>
    <text id="login-link-3" data-name="login-link" class="cls-10" transform="translate(457 3183)"><tspan x="0" y="0">My exams</tspan></text>
    <path id="Path_253" data-name="Path 253" class="cls-6" d="M0,0H1920" transform="translate(47 3206.5)"/>
    <text id="login-link-4" data-name="login-link" class="cls-10" transform="translate(222 3183)"><tspan x="0" y="0">Dashboard</tspan></text>
    <rect id="Rectangle_57" data-name="Rectangle 57" class="cls-3" width="138" height="6" rx="3" transform="translate(223 3140)"/>
    <g id="Group_42" data-name="Group 42" transform="translate(88 2979)">
      <g class="cls-38" transform="matrix(1, 0, 0, 1, -88, -2979)">
        <rect id="Rectangle_58-2" data-name="Rectangle 58" class="cls-3" width="361.68" height="159.65" rx="20" transform="translate(624 3411)"/>
      </g>
      <text id="STUDENTS" class="cls-11" transform="translate(735 539)"><tspan x="0" y="0">STUDENTS</tspan></text>
      <text id="_500" data-name="500" class="cls-5" transform="translate(797 507)"><tspan x="0" y="0">500</tspan></text>
      <g id="Group_21" data-name="Group 21" transform="translate(-18.5 -20.995)">
        <path id="Path_259" data-name="Path 259" class="cls-12" d="M40.329.5A39.829,39.829,0,1,1,.5,40.329,39.829,39.829,0,0,1,40.329.5Z" transform="translate(613.5 492.495)"/>
        <path id="users" class="cls-3" d="M6,44a4,4,0,1,0-4-4A4,4,0,0,0,6,44Zm28,0a4,4,0,1,0-4-4A4,4,0,0,0,34,44Zm2,2H32a3.988,3.988,0,0,0-2.819,1.162A9.142,9.142,0,0,1,33.875,54H38a2,2,0,0,0,2-2V50A4,4,0,0,0,36,46ZM20,46a7,7,0,1,0-7-7A7,7,0,0,0,20,46Zm4.8,2h-.519a9.665,9.665,0,0,1-8.562,0H15.2A7.2,7.2,0,0,0,8,55.2V57a3,3,0,0,0,3,3H29a3,3,0,0,0,3-3V55.2A7.2,7.2,0,0,0,24.8,48Zm-13.981-.837A3.988,3.988,0,0,0,8,46H4a4,4,0,0,0-4,4v2a2,2,0,0,0,2,2H6.119A9.165,9.165,0,0,1,10.819,47.163Z" transform="translate(633.5 486.495)"/>
      </g>
    </g>
    <g id="Group_43" data-name="Group 43" transform="translate(88 2979)">
      <g class="cls-37" transform="matrix(1, 0, 0, 1, -88, -2979)">
        <path id="Path_327-2" data-name="Path 327" class="cls-3" d="M20,.5H341.68A19.5,19.5,0,0,1,361.18,20V139.65a19.5,19.5,0,0,1-19.5,19.5H20A19.5,19.5,0,0,1,.5,139.65V20A19.5,19.5,0,0,1,20,.5Z" transform="translate(1029.22 3411)"/>
      </g>
      <text id="EXAMS" class="cls-11" transform="translate(1178 543)"><tspan x="0" y="0">EXAMS</tspan></text>
      <text id="_10" data-name="10" class="cls-5" transform="translate(1223 511)"><tspan x="0" y="0">10</tspan></text>
      <g id="Group_20" data-name="Group 20" transform="translate(367.5 -192.5)">
        <path id="Path_260" data-name="Path 260" class="cls-12" d="M40.329.5A39.829,39.829,0,1,1,.5,40.329,39.829,39.829,0,0,1,40.329.5Z" transform="translate(632 664)"/>
        <path id="book-open" class="cls-3" d="M42.932,32c-4.339.246-12.963,1.143-18.287,4.4a1.217,1.217,0,0,0-.576,1.043v28.81a1.253,1.253,0,0,0,1.843,1.068c5.478-2.757,13.4-3.509,17.316-3.715a2.469,2.469,0,0,0,2.377-2.428V34.431A2.482,2.482,0,0,0,42.932,32ZM20.961,36.4C15.638,33.143,7.014,32.247,2.675,32A2.483,2.483,0,0,0,0,34.431v26.75a2.468,2.468,0,0,0,2.377,2.428c3.919.206,11.844.959,17.322,3.717a1.249,1.249,0,0,0,1.838-1.066V37.43A1.192,1.192,0,0,0,20.961,36.4Z" transform="translate(649 655.004)"/>
      </g>
    </g>
    <text id="login-link-5" data-name="login-link" class="cls-10" transform="translate(678 3183)"><tspan x="0" y="0">Students</tspan></text>
    <g id="page_title" data-name="page title" transform="translate(47 2979)">
      <g class="cls-36" transform="matrix(1, 0, 0, 1, -47, -2979)">
        <rect id="title_base-2" data-name="title base" class="cls-3" width="1571" height="99" rx="20" transform="translate(222 3257)"/>
      </g>
      <text id="login-link-6" data-name="login-link" class="cls-13" transform="translate(224 338)"><tspan x="0" y="0">Dashboard</tspan></text>
    </g>
    <g id="dashboard-illustration" transform="translate(783 3644.95)">
      <path id="Path_261" data-name="Path 261" class="cls-14" d="M528.241,94.321A91.64,91.64,0,0,0,510.473,70.39L264,68.337,466.931,44.243a133.722,133.722,0,0,0-41.172-6.9C406.223,24,381.115,16,353.728,16c-24.573,0-47.3,6.456-65.82,17.411a132.181,132.181,0,0,0-52.757-10.745c-54.762,0-100.393,32.064-110.631,74.587Z" transform="translate(-89.04 -15.95)"/>
      <path id="Path_262" data-name="Path 262" class="cls-14" d="M482.865,252.327a78.08,78.08,0,0,0-7.681-33.657L48.024,256.576a83.049,83.049,0,0,0-10.008,21.367l132.279,16.67L35,306.765c4.07,48.14,52.884,86.149,112.513,86.149,30.015,0,57.287-9.631,77.5-25.338,20.273,16,47.807,25.845,78.147,25.845,45.012,0,83.866-21.668,101.959-52.995,36.3-9.742,64.493-34.2,74.144-64.79L311.975,253.7h170.89Z" transform="translate(-35 -138.294)"/>
      <ellipse id="Ellipse_60" data-name="Ellipse 60" class="cls-14" cx="114.931" cy="5.129" rx="114.931" ry="5.129" transform="translate(83.232 333.833)"/>
      <path id="Path_263" data-name="Path 263" class="cls-15" d="M567.494,764.492v3.1H475.84v-2.517a30.122,30.122,0,0,0,2.073-55.634h88.959a30.122,30.122,0,0,0,.622,55.052Z" transform="translate(-301.117 -434.551)"/>
      <path id="Path_264" data-name="Path 264" class="cls-16" d="M570.035,709.44a30.166,30.166,0,0,0-16.646,19.972H497.726A30.173,30.173,0,0,0,481.08,709.44Z" transform="translate(-304.28 -434.551)"/>
      <path id="Path_265" data-name="Path 265" class="cls-15" d="M211,669.6V687c0,9.607,7.031,17.4,15.707,17.4H496.385c8.676,0,15.707-7.788,15.707-17.4V669.6Z" transform="translate(-141.244 -410.501)"/>
      <path id="Path_266" data-name="Path 266" class="cls-16" d="M567.494,843.493v3.1H475.84v-2.517a30.121,30.121,0,0,0,7.067-3.765h78.967A30.282,30.282,0,0,0,567.494,843.493Z" transform="translate(-301.117 -513.552)"/>
      <rect id="Rectangle_62" data-name="Rectangle 62" class="cls-15" width="152.231" height="9.183" rx="4.592" transform="translate(144.435 327.725)"/>
      <path id="Path_267" data-name="Path 267" class="cls-17" d="M512.092,164.683A15.7,15.7,0,0,0,496.385,149H226.719A15.7,15.7,0,0,0,211,164.683V358.72H512.092Z" transform="translate(-141.244 -96.237)"/>
      <path id="Path_268" data-name="Path 268" class="cls-18" d="M516.428,194.473V361.2a7.729,7.729,0,0,1-7.733,7.733h-269.2a7.729,7.729,0,0,1-7.733-7.733V194.473a7.733,7.733,0,0,1,7.733-7.733H508.676a7.733,7.733,0,0,1,7.752,7.733Z" transform="translate(-153.776 -119.019)"/>
      <ellipse id="Ellipse_61" data-name="Ellipse 61" class="cls-3" cx="3.627" cy="3.627" rx="3.627" ry="3.627" transform="translate(216.68 56.604)"/>
      <circle id="Ellipse_62" data-name="Ellipse 62" class="cls-3" cx="8.941" cy="8.941" r="8.941" transform="translate(211.365 268.282)"/>
      <path id="Path_269" data-name="Path 269" class="cls-3" d="M291.913,196.5V374.826h-52.42a7.729,7.729,0,0,1-7.733-7.733V200.364l.281-1.05.753-2.814Z" transform="translate(-153.776 -124.91)"/>
      <path id="Path_270" data-name="Path 270" class="cls-18" d="M263.639,187.65V203.7H196.76v-15l.281-1.05Z" transform="translate(-118.776 -113.246)"/>
      <path id="Path_271" data-name="Path 271" class="cls-15" d="M516.428,194.479H231.76a7.729,7.729,0,0,1,7.733-7.729H508.676a7.729,7.729,0,0,1,7.752,7.729Z" transform="translate(-153.776 -119.025)"/>
      <circle id="Ellipse_63" data-name="Ellipse 63" class="cls-19" cx="1.934" cy="1.934" r="1.934" transform="translate(83.783 69.655)"/>
      <circle id="Ellipse_64" data-name="Ellipse 64" class="cls-19" cx="1.934" cy="1.934" r="1.934" transform="translate(89.581 69.655)"/>
      <circle id="Ellipse_65" data-name="Ellipse 65" class="cls-19" cx="1.934" cy="1.934" r="1.934" transform="translate(95.379 69.655)"/>
      <rect id="Rectangle_63" data-name="Rectangle 63" class="cls-9" width="40.161" height="3.698" transform="translate(87.98 81.47)"/>
      <rect id="Rectangle_64" data-name="Rectangle 64" class="cls-20" width="40.161" height="3.698" transform="translate(87.98 99.504)"/>
      <rect id="Rectangle_65" data-name="Rectangle 65" class="cls-20" width="40.161" height="3.698" transform="translate(87.98 112.254)"/>
      <rect id="Rectangle_66" data-name="Rectangle 66" class="cls-20" width="40.161" height="3.698" transform="translate(87.98 125.004)"/>
      <rect id="Rectangle_67" data-name="Rectangle 67" class="cls-20" width="40.161" height="3.698" transform="translate(87.98 137.751)"/>
      <rect id="Rectangle_68" data-name="Rectangle 68" class="cls-20" width="40.161" height="3.698" transform="translate(87.98 150.501)"/>
      <rect id="Rectangle_69" data-name="Rectangle 69" class="cls-20" width="40.161" height="3.698" transform="translate(87.98 163.251)"/>
      <rect id="Rectangle_70" data-name="Rectangle 70" class="cls-20" width="40.161" height="3.698" transform="translate(87.98 175.998)"/>
      <rect id="Rectangle_71" data-name="Rectangle 71" class="cls-21" width="177.961" height="0.595" transform="translate(171.017 95.069)"/>
      <rect id="Rectangle_72" data-name="Rectangle 72" class="cls-21" width="177.961" height="0.595" transform="translate(171.017 108.873)"/>
      <rect id="Rectangle_73" data-name="Rectangle 73" class="cls-21" width="177.961" height="0.595" transform="translate(171.017 122.682)"/>
      <rect id="Rectangle_74" data-name="Rectangle 74" class="cls-21" width="177.961" height="0.595" transform="translate(171.017 136.486)"/>
      <rect id="Rectangle_75" data-name="Rectangle 75" class="cls-21" width="177.961" height="0.595" transform="translate(171.017 150.291)"/>
      <path id="Path_272" data-name="Path 272" class="cls-20" d="M609.123,308.418H430.94V281.269l16.341,8.054,16.912,2.291,14.839-4.475,17.9-13.884,9-5.2,6.583-1.268,6.3.337,10.36,5.117,14.078,8.969,11.05,1.423,8.763-3.02L581.641,264.4l9.481-3.381,9.92,1.534,8.081,4.665Z" transform="translate(-260.141 -157.537)"/>
      <path id="Path_273" data-name="Path 273" class="cls-9" d="M497,307.439c-16.044,0-30.875-9.813-31.057-9.94l.44-.658c.23.155,23.051,15.255,42.444,7.689,7.079-2.755,12.1-7.047,16.987-11.193,5.085-4.332,9.889-8.426,16.432-10.2a24.583,24.583,0,0,1,21.949,4.931c5.327,4.38,15.941,11.415,27.153,9.31,5.715-1.07,10.535-5.248,15.636-9.667,9.766-8.482,19.9-17.237,37.371-4.665l-.464.642c-16.983-12.2-26.856-3.65-36.4,4.621-5.184,4.494-10.083,8.719-16.008,9.849-11.534,2.16-22.37-5.01-27.8-9.477a23.8,23.8,0,0,0-21.236-4.776c-6.377,1.728-11.1,5.763-16.127,10.035-4.919,4.189-10.008,8.525-17.2,11.331A33.245,33.245,0,0,1,497,307.439Z" transform="translate(-295.141 -173.355)"/>
      <circle id="Ellipse_66" data-name="Ellipse 66" class="cls-9" cx="4.411" cy="4.411" r="4.411" transform="translate(252.239 104.759)"/>
      <path id="Path_274" data-name="Path 274" class="cls-22" d="M320.5,484.422a70.009,70.009,0,0,0-8.323-4.336l-.123-.087a5.017,5.017,0,0,1-1.522-1.922v-.357c.1-1.839,1.4-3.508,2.644-4.966q1.585-1.867,3.171-3.73a3.642,3.642,0,0,0,.816-1.324,2.969,2.969,0,0,0,.087-.793v-.325c0-.927-.044-1.855-.075-2.774-.032-.813-.238-1.831-1.05-1.982-.42-.087-.975.063-1.189-.3a.666.666,0,0,1-.055-.48v.036a.208.208,0,0,1,0-.044,10.96,10.96,0,0,0,.3-1.906,2.735,2.735,0,0,0-.131-.963c-.472-1.344-2.085-1.895-3.512-2.148s-3.028-.472-3.924-1.585a12.964,12.964,0,0,0-.793-1.074,3.123,3.123,0,0,0-1.462-.721,8.212,8.212,0,0,0-5.3.464,4.776,4.776,0,0,1-2.14.678c-.757-.044-1.459-.594-2.235-.725a3.192,3.192,0,0,0-3.072,1.8,4.36,4.36,0,0,0-.567,2.12v.123h0a3.115,3.115,0,0,0,.816,2.164c.539.563,1.344.947,1.585,1.684.091.3.071.626.151.927a.427.427,0,0,0,.036.115l-.044.052a9.421,9.421,0,0,0-1.982,5.794,9.615,9.615,0,0,0,6.738,9.116v.285a4.1,4.1,0,0,1-1.308,3.191l-8.553,3.432s-5.152-.61-7.007,6.916a12.746,12.746,0,0,0-.317,3.817,11.2,11.2,0,0,1-1.411,5.719c-2.112,4.138-1.633,13.63,2.687,14.569,4.078.888,5.676.519,5.842.476v.167c-.067,1.784-.713,17.146-3.064,19.024-.654.511-.531.86,0,1.094v.277c-.071,1.126-.436,5.4-2.009,7.84-1.807,2.81-1.6,19.06-1.6,19.06l-1.245,9.588s.765,5.921,0,6.956c-.686.923-1.585,22.833-1.791,27.581h-.079a2.311,2.311,0,0,0-1.847,1.126,32.685,32.685,0,0,1-4.55,4.665c-.765,1.09-3.6,2.132-5.1,2.624a3.272,3.272,0,0,0-.579.25,3.044,3.044,0,0,0-1.288,1.355,1.451,1.451,0,0,0-.135,1.13c.4.939,8.351,1.585,10.364.658,1.585-.737,7.863-1.712,10.471-2.093a2.148,2.148,0,0,0,1.863-1.863,1.228,1.228,0,0,0-.238-.931h0a8.422,8.422,0,0,1-.872-3.409,2.319,2.319,0,0,0,.587-.349,25,25,0,0,1,1.439-10.059c1.918-5.073,2.5-14.474,2.017-20.586,0,0,5.854-25.2,10.463-27.546h0c.071.087,2.307,2.957,2.592,11.843a35.913,35.913,0,0,0,3.547,14.946s-1.439,15.323,0,21.058l-1.891,9.033a2.929,2.929,0,0,1-.226-.206s.056.254.135.654l-.04.19.079.02a17.477,17.477,0,0,1,.4,4.257c-.075.662-.258,1.562-.4,2.449-.2,1.391-.254,2.743.48,3.036,1.189.484,8.256,1.145,9.457-.4a2.223,2.223,0,0,0,.349-2.323,2.379,2.379,0,0,0-.349-.591s-1.875-3.064-1.344-5.224a1.585,1.585,0,0,0-.226-1.237,63.84,63.84,0,0,1,1.645-10.142c1.189-4.522,3.734-14.439,1.871-20.963h0c-.071-.254-.151-.507-.238-.753a28.14,28.14,0,0,1-1.058-11,22.357,22.357,0,0,1,0-9.587c1.141-5.259,1.946-10.412,1.946-10.412a66.055,66.055,0,0,0,.079-11.22l-.036-.273.3-.067s-1.629-7.237-2.208-11.843c-.135-1.09-.313-2.465-.507-3.936a10.4,10.4,0,0,0,1.566-.4c5.184-1.788,6.813-17.958,6.813-17.958v-5.129S326.552,487.913,320.5,484.422ZM281.889,609.269l-.254-.135h0Z" transform="translate(-174.405 -279.388)"/>
      <path id="Path_275" data-name="Path 275" class="cls-23" d="M338.654,698.616c2.247,6.464-.4,16.956-1.585,21.64a65.672,65.672,0,0,0-1.585,10.3,21.8,21.8,0,0,1-8.244-.19l1.982-9.647c-1.4-5.715,0-20.986,0-20.986a36.677,36.677,0,0,1-3.464-14.9c-.277-8.85-2.457-11.712-2.529-11.8h0C318.7,675.391,313,700.491,313,700.491c.468,6.088-.1,15.457-1.982,20.519a25.385,25.385,0,0,0-1.407,10.023,3.092,3.092,0,0,1-2.548.488,17.46,17.46,0,0,1-5.882-2.739s1.03-27.348,1.78-28.386,0-6.932,0-6.932l1.217-9.556s-.186-16.206,1.585-19.024c1.538-2.43,1.891-6.694,1.962-7.812v-.277l2.711-3.246s26.234-1.982,28.2,0a5.535,5.535,0,0,1,.959,2.965,67.412,67.412,0,0,1-.079,11.181s-.793,5.152-1.91,10.4a22.75,22.75,0,0,0,0,9.556,28.536,28.536,0,0,0,1.05,10.971Z" transform="translate(-195.682 -400.28)"/>
      <path id="Path_276" data-name="Path 276" class="cls-24" d="M376.541,854.588c-1.169,1.546-8.054.892-9.227.4-.717-.3-.662-1.641-.468-3.028.123-.884.3-1.784.373-2.437a22.317,22.317,0,0,0-.559-5.109s1.546,1.641,1.918,0a1.783,1.783,0,0,1,1.336-1.268,3.5,3.5,0,0,1,2.434.151c1.217.527,3.246,1.653,2.881,3.171-.515,2.152,1.312,5.2,1.312,5.2a2.35,2.35,0,0,1,.341.591A2.247,2.247,0,0,1,376.541,854.588Z" transform="translate(-235.209 -515.171)"/>
      <path id="Path_277" data-name="Path 277" class="cls-16" d="M376.632,868.242c-1.169,1.546-8.054.892-9.227.4-.717-.3-.662-1.641-.468-3.028a7.939,7.939,0,0,0,4.09.44A11.455,11.455,0,0,1,372.5,866a33.713,33.713,0,0,0,4.471-.087A2.247,2.247,0,0,1,376.632,868.242Z" transform="translate(-235.301 -528.825)"/>
      <path id="Path_278" data-name="Path 278" class="cls-16" d="M321.957,728.774c.468,6.088-.1,15.457-1.982,20.519a25.385,25.385,0,0,0-1.407,10.023,3.092,3.092,0,0,1-2.548.488c.567-3.963,2.973-20.978,4.518-34.426a56.292,56.292,0,0,1,9.976-25.857l1.641,1.8C327.657,703.674,321.957,728.774,321.957,728.774Z" transform="translate(-204.64 -428.563)"/>
      <path id="Path_279" data-name="Path 279" class="cls-25" d="M355.42,507.78l-1.145,5.62-5.6,9.417-6.908-2.953s-9.393-9.837-3.492-11.24a5.2,5.2,0,0,0,1.962-.872,4.065,4.065,0,0,0,1.53-3.389,10.419,10.419,0,0,0-.959-4.031l12.084-3.793a19.229,19.229,0,0,0-.868,4.895c-.091,3.29,1.13,4.915,2.132,5.688A3.591,3.591,0,0,0,355.42,507.78Z" transform="translate(-216.898 -306.032)"/>
      <path id="Path_280" data-name="Path 280" class="cls-16" d="M359.714,496.54a19.232,19.232,0,0,0-.868,4.895,9.552,9.552,0,0,1-10.257,2.929,10.42,10.42,0,0,0-.959-4.031Z" transform="translate(-223.722 -306.032)"/>
      <path id="Path_281" data-name="Path 281" class="cls-25" d="M352.5,478.086a9.532,9.532,0,1,1-2.792-6.764A9.556,9.556,0,0,1,352.5,478.086Z" transform="translate(-215.126 -289.124)"/>
      <path id="Path_282" data-name="Path 282" class="cls-16" d="M355.42,523.9l-1.145,5.62-5.6,9.417-6.908-2.953s-9.393-9.837-3.492-11.24a5.2,5.2,0,0,0,1.962-.872c-1.066,2.929,3.333,9.021,3.333,9.021.511.753,1.688.281,1.688.281,2.83-.428,8.05-8.577,8.9-9.932A3.591,3.591,0,0,0,355.42,523.9Z" transform="translate(-216.898 -322.15)"/>
      <path id="Path_283" data-name="Path 283" class="cls-16" d="M349.592,656.557c-1.665.4-10.868,2.414-14.355,1.906-3.841-.563-11.312-.935-11.312-.935s-4.756.254-6.215-.4v-.277l2.711-3.246s26.234-1.982,28.2,0A5.24,5.24,0,0,1,349.592,656.557Z" transform="translate(-205.66 -400.316)"/>
      <path id="Path_284" data-name="Path 284" class="cls-26" d="M322.4,533.287s-4.942-6.845-3.08-9.512L310.97,527.2s-5.026-.61-6.837,6.888a13.08,13.08,0,0,0-.313,3.809,11.332,11.332,0,0,1-1.375,5.7c-2.061,4.122-1.585,13.587,2.624,14.522s5.715.468,5.715.468-.563,17.146-3,19.112,6.211,1.5,6.211,1.5,7.467.4,11.308.939,14.613-1.982,14.613-1.982-1.585-7.213-2.156-11.8-1.871-14.363-1.871-14.363l9.556-12.945s1.684-7.824-4.217-11.288a67.682,67.682,0,0,0-8.125-4.32s-5.945,9.659-9.021,10.127C324.085,533.564,322.912,534.04,322.4,533.287Z" transform="translate(-195.73 -322.265)"/>
      <path id="Path_285" data-name="Path 285" class="cls-16" d="M324.519,555.16a14.04,14.04,0,0,0,.472,4.308c.563,1.217,2.62,7.962,2.62,7.962H322.93s2.529-2.715,2.342-4.027S324.519,555.16,324.519,555.16Z" transform="translate(-208.812 -341.419)"/>
      <path id="Path_286" data-name="Path 286" class="cls-25" d="M339.19,594s-10.345-2.529-11.308-4.681-3.623-6.98-3.623-6.98l1.09-1.47,5.034,3.963s6,4.756,8.807,5.248S339.19,594,339.19,594Z" transform="translate(-209.614 -356.939)"/>
      <path id="Path_287" data-name="Path 287" class="cls-27" d="M339.19,594s-10.345-2.529-11.308-4.681-3.623-6.98-3.623-6.98l1.09-1.47,5.034,3.963s6,4.756,8.807,5.248S339.19,594,339.19,594Z" transform="translate(-209.614 -356.939)"/>
      <path id="Path_288" data-name="Path 288" class="cls-25" d="M356.031,583.2v5.612h-.9a26.254,26.254,0,0,0-12.738,3.3l-1.689.935-.456.254-2.905-6.54,2.719-2.437h.139a16.389,16.389,0,0,0,4.756-.107c1.217-.408,2.6-1.641,6-.769,1.68.428,3.111,2.311,4.756,1.724Z" transform="translate(-217.51 -358.309)"/>
      <path id="Path_289" data-name="Path 289" class="cls-16" d="M376.239,547.813l1.875,2.109v5.1s-1.585,16.115-6.651,17.895-14.09-1.03-14.09-1.03-2.334-6.183-1.245-6.559,9.647-2.632,9.647-2.632-.123-9.453,1.752-12.263c0,0-1.217-8.807,3-8.993S376.239,547.813,376.239,547.813Z" transform="translate(-228.677 -333.137)"/>
      <path id="Path_290" data-name="Path 290" class="cls-26" d="M376.929,547.813l1.875,2.109v5.1s-1.585,16.115-6.655,17.895-14.086-1.03-14.086-1.03-2.334-6.183-1.245-6.559,9.643-2.632,9.643-2.632-.119-9.453,1.756-12.263c0,0-1.221-8.807,3-8.993S376.929,547.813,376.929,547.813Z" transform="translate(-229.094 -333.137)"/>
      <path id="Path_291" data-name="Path 291" class="cls-16" d="M352.862,482.122a3.691,3.691,0,0,0-.214-1.823,1.4,1.4,0,0,0-1.482-.856c-.793.186-1.149,1.229-1.934,1.478a1.535,1.535,0,0,1-1.7-.876,4.478,4.478,0,0,1-.325-2.037v-2.35a3.872,3.872,0,0,0-.555-2.441,4.333,4.333,0,0,0-3.21-1.161,2.723,2.723,0,0,0-1.835.737,2.378,2.378,0,0,1-1.93.69,1.669,1.669,0,0,1-1.344-1.165.1.1,0,0,1,0-.032,9.556,9.556,0,1,1,14.213,12.683A26.464,26.464,0,0,0,352.862,482.122Z" transform="translate(-218.106 -289.102)"/>
      <path id="Path_292" data-name="Path 292" class="cls-28" d="M335.89,464.344a1.68,1.68,0,0,1-1.348-1.165c-.075-.3-.056-.626-.147-.924-.218-.737-1-1.122-1.53-1.68a3.768,3.768,0,0,1-.242-4.308,3.113,3.113,0,0,1,3-1.792c.757.135,1.411.674,2.18.721a4.425,4.425,0,0,0,2.089-.674,7.864,7.864,0,0,1,5.176-.46,3,3,0,0,1,1.427.717,12.127,12.127,0,0,1,.761,1.07c.872,1.114,2.438,1.332,3.829,1.585s2.969.793,3.424,2.144a5.625,5.625,0,0,1-.163,2.774.793.793,0,0,0,.036.575c.218.361.761.21,1.189.293.793.167.991,1.189,1.019,1.982q.055,1.379.075,2.774a3.566,3.566,0,0,1-.079,1.026,3.634,3.634,0,0,1-.793,1.288l-3.1,3.718c-1.371,1.649-2.826,3.567-2.552,5.7a1.322,1.322,0,0,1-1.633-.951,4.2,4.2,0,0,1,.1-2.109,25.9,25.9,0,0,0,.487-3.658,3.7,3.7,0,0,0-.214-1.827,1.4,1.4,0,0,0-1.486-.856c-.793.186-1.145,1.229-1.93,1.478a1.531,1.531,0,0,1-1.7-.876,4.531,4.531,0,0,1-.325-2.037v-2.35a3.872,3.872,0,0,0-.555-2.441,4.328,4.328,0,0,0-3.21-1.161,2.723,2.723,0,0,0-1.835.737,2.378,2.378,0,0,1-1.954.69Z" transform="translate(-214.328 -280.245)"/>
      <path id="Path_293" data-name="Path 293" class="cls-16" d="M347.15,554.57l2.937,12.049S352.4,566.607,347.15,554.57Z" transform="translate(-223.432 -341.063)"/>
      <path id="Path_294" data-name="Path 294" class="cls-16" d="M368.352,549.48s-3.845,6.294-2.342,12.8l.713.052S365.447,559.317,368.352,549.48Z" transform="translate(-234.607 -337.99)"/>
      <path id="Path_295" data-name="Path 295" class="cls-16" d="M378.59,638.8s4.716-1.562,5.061,2.061C383.651,640.861,382.759,638.376,378.59,638.8Z" transform="translate(-242.411 -391.707)"/>
      <path id="Path_296" data-name="Path 296" class="cls-16" d="M331.928,586.83s-.935,6.559.749,9.183a20.589,20.589,0,0,1-8.244,1.122l-.563-10.3Z" transform="translate(-209.379 -360.537)"/>
      <path id="Path_297" data-name="Path 297" class="cls-16" d="M340.7,594.843l-.456.254-2.905-6.54,2.719-2.437h.139C340.154,586.437,339.4,592.069,340.7,594.843Z" transform="translate(-217.51 -360.108)"/>
      <path id="Path_298" data-name="Path 298" class="cls-26" d="M327.793,586.12s-.935,6.559.749,9.183a20.587,20.587,0,0,1-8.244,1.122l-3.278-10.3Z" transform="translate(-205.244 -360.108)"/>
      <path id="Path_299" data-name="Path 299" class="cls-24" d="M289.921,850.288a2.116,2.116,0,0,1-1.819,1.855c-2.541.4-8.672,1.348-10.218,2.085-1.982.939-9.742.281-10.119-.654a1.486,1.486,0,0,1,.135-1.13,3.087,3.087,0,0,1,1.819-1.585c1.466-.491,4.233-1.526,4.978-2.612a31.859,31.859,0,0,0,4.431-4.649,2.243,2.243,0,0,1,1.8-1.122c.82-.04,1.732.377,2.109,2.172,0,0,4.494,2.564,5.711.317,0,0,.186,3.452.931,4.4h0A1.24,1.24,0,0,1,289.921,850.288Z" transform="translate(-175.478 -514.858)"/>
      <path id="Path_300" data-name="Path 300" class="cls-16" d="M289.921,860.765a2.116,2.116,0,0,1-1.819,1.855c-2.541.4-8.672,1.348-10.218,2.085-1.982.939-9.742.281-10.119-.654a1.486,1.486,0,0,1,.135-1.13,3,3,0,0,1,1.256-1.348c1.268.84,4.082,1.665,10.273.7,5.905-.923,8.827-1.827,10.253-2.441h0A1.24,1.24,0,0,1,289.921,860.765Z" transform="translate(-175.478 -525.336)"/>
      <g id="Group_33" data-name="Group 33" class="cls-29" transform="translate(117.737 178.015)">
        <path id="Path_301" data-name="Path 301" d="M388.209,472.362a.2.2,0,0,0,0-.048,8.542,8.542,0,0,0,.289-2.124,13.433,13.433,0,0,1-.289,1.7A1.038,1.038,0,0,0,388.209,472.362Z" transform="translate(-365.939 -468.141)"/>
        <path id="Path_302" data-name="Path 302" d="M348.865,478.008a2.775,2.775,0,0,1,.23,1.07,3.214,3.214,0,0,0-.23-1.49,1.407,1.407,0,0,0-1.486-.86c-.793.186-1.145,1.233-1.93,1.482a1.538,1.538,0,0,1-1.7-.88,4.427,4.427,0,0,1-.325-2.037v-2.346a3.872,3.872,0,0,0-.555-2.441,4.34,4.34,0,0,0-3.214-1.165,2.707,2.707,0,0,0-1.831.741,2.378,2.378,0,0,1-1.93.686,1.661,1.661,0,0,1-1.348-1.165c-.079-.3-.056-.622-.147-.923-.218-.737-1-1.118-1.53-1.677a3.084,3.084,0,0,1-.793-1.982,3.206,3.206,0,0,0,.793,2.4c.527.559,1.312.943,1.53,1.68.091.3.067.622.147.923a1.676,1.676,0,0,0,1.348,1.165,2.378,2.378,0,0,0,1.93-.69,2.747,2.747,0,0,1,1.827-.733,4.324,4.324,0,0,1,3.214,1.165,3.891,3.891,0,0,1,.555,2.441v2.346a4.435,4.435,0,0,0,.325,2.041,1.535,1.535,0,0,0,1.7.876c.793-.25,1.13-1.292,1.93-1.482a1.415,1.415,0,0,1,1.49.852Z" transform="translate(-332.06 -465.02)"/>
        <path id="Path_303" data-name="Path 303" d="M384.031,490.356a3.686,3.686,0,0,1-.793,1.292q-1.554,1.855-3.1,3.714c-1.3,1.565-2.679,3.377-2.58,5.374.1-1.831,1.371-3.5,2.58-4.95l3.1-3.718a3.671,3.671,0,0,0,.793-1.288,3.567,3.567,0,0,0,.079-1.03,2.57,2.57,0,0,1-.079.606Z" transform="translate(-359.525 -479.949)"/>
        <path id="Path_304" data-name="Path 304" d="M373.352,515.123a2.212,2.212,0,0,1-.1-.5,2.508,2.508,0,0,0,.1.923,1.32,1.32,0,0,0,1.633.951c0-.139-.028-.277-.032-.4A1.337,1.337,0,0,1,373.352,515.123Z" transform="translate(-356.923 -494.961)"/>
      </g>
      <path id="Path_305" data-name="Path 305" class="cls-16" d="M295,847.42s.979,1.72,4.53.2" transform="translate(-191.951 -517.844)"/>
      <path id="Path_306" data-name="Path 306" class="cls-16" d="M370.65,848.46s3.064,3.6,6.92,1.189" transform="translate(-237.618 -518.472)"/>
      <path id="Path_307" data-name="Path 307" class="cls-16" d="M389.721,740.94s-2.164,1.352-2.235,2.124,1.118-.563,1.118-.563Z" transform="translate(-247.779 -453.566)"/>
      <path id="Path_308" data-name="Path 308" class="cls-16" d="M389.368,767.08a4.49,4.49,0,0,1-2.663,1.038c-1.617.071-1.482,2.18-.424,1.546A26.609,26.609,0,0,0,389.368,767.08Z" transform="translate(-246.574 -469.346)"/>
      <path id="Path_309" data-name="Path 309" class="cls-16" d="M393.453,770.49s-1.038,5.1-1.883,4.114" transform="translate(-250.247 -471.405)"/>
      <g id="Group_34" data-name="Group 34" class="cls-30" transform="translate(186.744 181.812)">
        <rect id="Rectangle_76" data-name="Rectangle 76" class="cls-31" width="26.159" height="5.549"/>
        <rect id="Rectangle_77" data-name="Rectangle 77" class="cls-31" width="26.159" height="5.549" transform="translate(60.065)"/>
        <rect id="Rectangle_78" data-name="Rectangle 78" class="cls-31" width="26.159" height="5.549" transform="translate(120.131)"/>
      </g>
      <ellipse id="Ellipse_67" data-name="Ellipse 67" class="cls-14" cx="10.673" cy="1.803" rx="10.673" ry="1.803" transform="translate(366.933 315.811)"/>
      <ellipse id="Ellipse_68" data-name="Ellipse 68" class="cls-14" cx="10.673" cy="1.803" rx="10.673" ry="1.803" transform="translate(34.993 338.581)"/>
      <ellipse id="Ellipse_69" data-name="Ellipse 69" class="cls-9" cx="15.937" cy="2.695" rx="15.937" ry="2.695" transform="translate(338.309 334.245)"/>
      <path id="Path_310" data-name="Path 310" class="cls-9" d="M922.963,843.7a4.614,4.614,0,0,0,1.518-2.295,2.036,2.036,0,0,0-1.058-2.334c-.975-.372-2.017.3-2.81.987s-1.692,1.459-2.727,1.316a4.162,4.162,0,0,0,1.284-3.888,1.617,1.617,0,0,0-.357-.793c-.543-.579-1.522-.333-2.172.123-2.061,1.451-2.636,4.249-2.648,6.77a12.724,12.724,0,0,1-.036-2.774,2.866,2.866,0,0,0-1.046-2.469,3.171,3.171,0,0,0-1.585-.372,3.294,3.294,0,0,0-2.592.733,2.554,2.554,0,0,0,.1,3.171,10.315,10.315,0,0,0,2.683,2.148,6,6,0,0,1,1.918,1.827,1.908,1.908,0,0,1,.139.329h5.81a16.3,16.3,0,0,0,3.579-2.477Z" transform="translate(-562.13 -511.165)"/>
      <path id="Path_311" data-name="Path 311" class="cls-9" d="M142.321,807.19s2.18,2.85-1,7.134-5.806,7.927-4.756,10.61c0,0,4.8-7.986,8.72-8.1S146.621,811.994,142.321,807.19Z" transform="translate(-96.167 -493.559)"/>
      <path id="Path_312" data-name="Path 312" class="cls-16" d="M142.516,807.19a3.568,3.568,0,0,1,.448.9c3.813,4.479,5.842,8.66,2.176,8.763-3.412.1-7.507,6.2-8.49,7.745a3.667,3.667,0,0,0,.115.353s4.8-7.986,8.72-8.1S146.816,811.994,142.516,807.19Z" transform="translate(-96.362 -493.559)"/>
      <path id="Path_313" data-name="Path 313" class="cls-32" d="M160.9,815.361c0,1-.111,1.815-.25,1.815s-.25-.793-.25-1.815.139-.531.277-.531S160.9,814.359,160.9,815.361Z" transform="translate(-110.699 -498.1)"/>
      <path id="Path_314" data-name="Path 314" class="cls-32" d="M162.556,818.32c-.88.479-1.649.769-1.712.646s.591-.61,1.47-1.09.535-.131.6,0S163.436,817.841,162.556,818.32Z" transform="translate(-110.964 -499.862)"/>
      <path id="Path_315" data-name="Path 315" class="cls-9" d="M114.988,807.19s-2.18,2.85,1,7.134,5.806,7.927,4.756,10.61c0,0-4.8-7.986-8.719-8.1S110.687,811.994,114.988,807.19Z" transform="translate(-80.332 -493.559)"/>
      <path id="Path_316" data-name="Path 316" class="cls-16" d="M114.974,807.19a3.569,3.569,0,0,0-.448.9c-3.813,4.479-5.842,8.66-2.176,8.763,3.413.1,7.507,6.2,8.49,7.745a2.833,2.833,0,0,1-.119.353s-4.8-7.986-8.719-8.1S110.674,811.994,114.974,807.19Z" transform="translate(-80.318 -493.559)"/>
      <path id="Path_317" data-name="Path 317" class="cls-32" d="M112.22,815.361c0,1,.115,1.815.254,1.815s.25-.793.25-1.815-.139-.531-.277-.531S112.22,814.359,112.22,815.361Z" transform="translate(-81.615 -498.1)"/>
      <path id="Path_318" data-name="Path 318" class="cls-32" d="M107.9,818.32c.88.479,1.645.769,1.712.646s-.591-.61-1.47-1.09-.535-.131-.6,0S107.023,817.841,107.9,818.32Z" transform="translate(-78.685 -499.862)"/>
      <path id="Path_319" data-name="Path 319" class="cls-33" d="M114,846.038s6.088-.19,7.927-1.494,9.366-2.87,9.821-.773,9.148,10.42,2.275,10.475-15.969-1.07-17.8-2.184S114,846.038,114,846.038Z" transform="translate(-82.689 -515.023)"/>
      <path id="Path_320" data-name="Path 320" class="cls-34" d="M134.112,858.517c-6.873.055-15.973-1.07-17.8-2.184-1.391-.852-1.95-3.9-2.132-5.3h-.206s.4,4.907,2.219,6.024,10.927,2.239,17.8,2.184c1.982,0,2.667-.721,2.632-1.768C136.343,858.113,135.586,858.505,134.112,858.517Z" transform="translate(-82.671 -520.023)"/>
      <path id="Path_321" data-name="Path 321" class="cls-9" d="M495.886,544.94a14.4,14.4,0,0,1,14.7-14.324h.115V526.93h-.115A18.088,18.088,0,0,0,492.2,544.94a18.336,18.336,0,0,0,6.3,13.834l2.61-2.613A14.664,14.664,0,0,1,495.886,544.94Z" transform="translate(-310.993 -324.377)"/>
      <path id="Path_322" data-name="Path 322" class="cls-20" d="M521.207,526.94v3.686a14.692,14.692,0,1,1-9.587,25.909L509,559.147a18.374,18.374,0,1,0,12.2-32.207Z" transform="translate(-321.134 -324.383)"/>
      <path id="Path_323" data-name="Path 323" class="cls-20" d="M822.732,530.146a14.4,14.4,0,0,1,14.324,14.7v.115h3.686v-.115a18.09,18.09,0,0,0-18.01-18.382,18.327,18.327,0,0,0-13.832,6.3l2.612,2.612A14.665,14.665,0,0,1,822.732,530.146Z" transform="translate(-502.172 -324.094)"/>
      <path id="Path_324" data-name="Path 324" class="cls-9" d="M833.277,555.479h-3.686a14.692,14.692,0,1,1-25.909-9.587l-2.6-2.612a18.374,18.374,0,1,0,32.207,12.2Z" transform="translate(-494.711 -334.247)"/>
      <path id="Path_325" data-name="Path 325" class="cls-20" d="M671.013,529.66l-.733,3.67a14.388,14.388,0,0,1,8.842,13.626A14.692,14.692,0,1,1,658.541,533.5l-1.633-3.309a18.374,18.374,0,1,0,25.917,16.765A18.079,18.079,0,0,0,671.013,529.66Z" transform="translate(-403.88 -326.025)"/>
      <path id="Path_326" data-name="Path 326" class="cls-9" d="M682.12,530.076a12.833,12.833,0,0,1,5.117,1.062l.733-3.666a16.21,16.21,0,0,0-5.85-1.082,18.3,18.3,0,0,0-7.531,1.621l1.649,3.3A14.542,14.542,0,0,1,682.12,530.076Z" transform="translate(-421.093 -324.051)"/>
    </g>
  </g>
</svg>
