<svg xmlns="http://www.w3.org/2000/svg" xmlns:xlink="http://www.w3.org/1999/xlink" viewBox="3980 0 1920 1080">
  <defs>
    <style>
      .cls-1 {
        clip-path: url(#clip-Signup_page_-_Instructor_);
      }

      .cls-2 {
        fill: rgba(167,40,158,0.1);
      }

      .cls-16, .cls-22, .cls-3, .cls-7, .cls-8, .cls-9 {
        fill: #a7289e;
      }

      .cls-3 {
        font-size: 35px;
      }

      .cls-3, .cls-4, .cls-5, .cls-7, .cls-8 {
        font-family: Montserrat-Regular, Montserrat;
      }

      .cls-19, .cls-4, .cls-5 {
        fill: #3f3d56;
      }

      .cls-4, .cls-7 {
        font-size: 25px;
      }

      .cls-5, .cls-8 {
        font-size: 20px;
      }

      .cls-15, .cls-6 {
        fill: #fff;
      }

      .cls-6 {
        stroke: #a7289e;
      }

      .cls-13, .cls-17, .cls-9 {
        opacity: 0.1;
      }

      .cls-10 {
        fill: #454b69;
      }

      .cls-11 {
        fill: none;
      }

      .cls-12 {
        opacity: 0.4;
      }

      .cls-14 {
        fill: #efb7b9;
      }

      .cls-18 {
        opacity: 0.08;
      }

      .cls-20 {
        fill: #9c9ca1;
      }

      .cls-21 {
        fill: #939498;
      }

      .cls-22 {
        font-size: 48px;
        font-family: Montserrat-Medium, Montserrat;
        font-weight: 500;
      }

      .cls-23 {
        stroke: none;
      }

      .cls-24 {
        filter: url(#Rectangle_3);
      }

      .cls-25 {
        filter: url(#base-3);
      }

      .cls-26 {
        filter: url(#base-2);
      }

      .cls-27 {
        filter: url(#base);
      }
    </style>
    <filter id="base" x="5135.5" y="383.5" width="549" height="78" filterUnits="userSpaceOnUse">
      <feOffset input="SourceAlpha"/>
      <feGaussianBlur stdDeviation="1.5" result="blur"/>
      <feFlood flood-color="#a7289e" flood-opacity="0.161"/>
      <feComposite operator="in" in2="blur"/>
      <feComposite in="SourceGraphic"/>
    </filter>
    <filter id="base-2" x="5135.5" y="520.5" width="549" height="78" filterUnits="userSpaceOnUse">
      <feOffset input="SourceAlpha"/>
      <feGaussianBlur stdDeviation="1.5" result="blur-2"/>
      <feFlood flood-color="#a7289e" flood-opacity="0.161"/>
      <feComposite operator="in" in2="blur-2"/>
      <feComposite in="SourceGraphic"/>
    </filter>
    <filter id="base-3" x="5135.5" y="657.5" width="549" height="78" filterUnits="userSpaceOnUse">
      <feOffset input="SourceAlpha"/>
      <feGaussianBlur stdDeviation="1.5" result="blur-3"/>
      <feFlood flood-color="#a7289e" flood-opacity="0.161"/>
      <feComposite operator="in" in2="blur-3"/>
      <feComposite in="SourceGraphic"/>
    </filter>
    <filter id="Rectangle_3" x="5511.5" y="783.5" width="173" height="72" filterUnits="userSpaceOnUse">
      <feOffset input="SourceAlpha"/>
      <feGaussianBlur stdDeviation="1.5" result="blur-4"/>
      <feFlood flood-opacity="0.161"/>
      <feComposite operator="in" in2="blur-4"/>
      <feComposite in="SourceGraphic"/>
    </filter>
    <clipPath id="clip-Signup_page_-_Instructor_">
      <rect x="3980" width="1920" height="1080"/>
    </clipPath>
  </defs>
  <g id="Signup_page_-_Instructor_" data-name="Signup page - Instructor " class="cls-1">
    <rect class="cls-15" x="3980" width="1920" height="1080"/>
    <ellipse id="Ellipse_7" data-name="Ellipse 7" class="cls-2" cx="907" cy="829.5" rx="907" ry="829.5" transform="translate(3147 -289)"/>
    <g id="Group_7" data-name="Group 7" transform="translate(3980 -22)">
      <text id="SIGN_UP_AS_INSTRUCTOR" data-name="SIGN UP AS INSTRUCTOR" class="cls-3" transform="translate(1207 299)"><tspan x="0" y="0">SIGN UP AS INSTRUCTOR</tspan></text>
      <text id="Email" class="cls-4" transform="translate(1160 391)"><tspan x="0" y="0">Email</tspan></text>
      <text id="Password" class="cls-4" transform="translate(1160 528)"><tspan x="0" y="0">Password</tspan></text>
      <text id="already_has_account_login" data-name="already has account? login" class="cls-5" transform="translate(1160 848)"><tspan x="0" y="0">already has account? login</tspan></text>
      <text id="Confirm_password" data-name="Confirm password" class="cls-4" transform="translate(1160 665)"><tspan x="0" y="0">Confirm password</tspan></text>
      <g id="Input" transform="translate(0 -49)">
        <g class="cls-27" transform="matrix(1, 0, 0, 1, -3980, 71)">
          <g id="base-4" data-name="base" class="cls-6" transform="translate(5140 388)">
            <rect class="cls-23" width="540" height="69" rx="5"/>
            <rect class="cls-11" x="0.5" y="0.5" width="539" height="68" rx="4.5"/>
          </g>
        </g>
        <text id="placeholder" class="cls-5" transform="translate(1195 503)"><tspan x="0" y="0">Example@email.com</tspan></text>
      </g>
      <g id="Input-2" data-name="Input" transform="translate(0 88)">
        <g class="cls-26" transform="matrix(1, 0, 0, 1, -3980, -66)">
          <g id="base-5" data-name="base" class="cls-6" transform="translate(5140 525)">
            <rect class="cls-23" width="540" height="69" rx="5"/>
            <rect class="cls-11" x="0.5" y="0.5" width="539" height="68" rx="4.5"/>
          </g>
        </g>
        <text id="placeholder-2" data-name="placeholder" class="cls-5" transform="translate(1195 503)"><tspan x="0" y="0">Enter your password..</tspan></text>
      </g>
      <g id="Input-3" data-name="Input" transform="translate(0 225)">
        <g class="cls-25" transform="matrix(1, 0, 0, 1, -3980, -203)">
          <g id="base-6" data-name="base" class="cls-6" transform="translate(5140 662)">
            <rect class="cls-23" width="540" height="69" rx="5"/>
            <rect class="cls-11" x="0.5" y="0.5" width="539" height="68" rx="4.5"/>
          </g>
        </g>
        <text id="placeholder-3" data-name="placeholder" class="cls-5" transform="translate(1195 503)"><tspan x="0" y="0">Re enter your password..</tspan></text>
      </g>
      <g id="button" transform="translate(0 94)">
        <g class="cls-24" transform="matrix(1, 0, 0, 1, -3980, -72)">
          <g id="Rectangle_3-2" data-name="Rectangle 3" class="cls-6" transform="translate(5516 788)">
            <rect class="cls-23" width="164" height="63" rx="5"/>
            <rect class="cls-11" x="0.5" y="0.5" width="163" height="62" rx="4.5"/>
          </g>
        </g>
        <text id="Signup" class="cls-7" transform="translate(1618 757)"><tspan x="-44.975" y="0">Signup</tspan></text>
      </g>
    </g>
    <text id="Are_you_instructor_Signup_as_student_" data-name="Are you instructor?  Signup as student " class="cls-8" transform="translate(5291 1026)"><tspan x="0" y="0" xml:space="preserve">Are you instructor?  Signup as student </tspan></text>
    <g id="instructor-illustration" transform="translate(4169.494 369.965)">
      <path id="Path_61" data-name="Path 61" class="cls-9" d="M641.405,451.671a102.147,102.147,0,0,1-8.89,17.1,73.566,73.566,0,0,1-5.385,7.406.377.377,0,0,1-.06.065H25l.081-.065c.542-.423,3.722-3,8.668-7.406,3.548-3.158,8-7.265,13-12.206,40.9-40.225,119.455-135.437,54.028-222.658-60.822-81.083,4.664-95.8,47.863-97.514a123.415,123.415,0,0,1,48.681,7.958c19.958,7.584,56.434,19.21,103.956,24.541,1.56.173,3.131.347,4.724.5a455.128,455.128,0,0,0,75.725,1.376h0c.742-.043,1.49-.1,2.243-.152A449.981,449.981,0,0,0,458.04,159.16c1.576-.385,3.131-.748,4.681-1.111,81.062-18.755,155.79,45.165,137.105,117.4-6.907,26.719-5.152,55.2,17.878,78.239C655.409,391.3,650.843,428.337,641.405,451.671Z" transform="translate(-25 -136.26)"/>
      <path id="Path_62" data-name="Path 62" class="cls-10" d="M641.474,710.723a102.145,102.145,0,0,1-8.89,17.1,73.567,73.567,0,0,1-5.385,7.406H25.15c.542-.423,3.722-3,8.668-7.406,3.548-3.158,8-7.265,13-12.206l63.455-13.11a12.34,12.34,0,0,1,2.492-.255l67.648-.1h.07l33.507-.043h.076l28.279-.032H279.82l77.7-.108h33.431l13.343-.152h4.41l38.811-.054h18.354l44.83-.06h13.349l42.462-.06,35.842-.043a12.7,12.7,0,0,1,2.963.352Z" transform="translate(-25.069 -395.312)"/>
      <path id="Path_63" data-name="Path 63" class="cls-11" d="M33.818,750H632.584a73.584,73.584,0,0,1-5.385,7.406H25.15C25.681,756.956,28.861,754.383,33.818,750Z" transform="translate(-25.069 -417.492)"/>
      <path id="Path_64" data-name="Path 64" class="cls-12" d="M33.818,750H632.584a73.584,73.584,0,0,1-5.385,7.406H25.15C25.681,756.956,28.861,754.383,33.818,750Z" transform="translate(-25.069 -417.492)"/>
      <path id="Path_65" data-name="Path 65" class="cls-10" d="M627.175,307.326l-1.2.233L571.6,318c-15.792,3.034-31.811,6.084-47.853,4.919-11.62-.845-22.477-4.291-33.642-7.314-6.311-1.712-13-2.395-15.142-9.459-2.953-9.751,1.853-24.189,2.985-34.07,1.083-9.7,1.723-19.638-.206-29.222a51.955,51.955,0,0,0-1.69-6.36c-1.934-5.737-4.973-11.7-3.332-17.525,1.295-4.621,5.244-7.92,8.939-10.976,7.238-5.959,14.627-12.639,17.5-21.572,1.409-4.334,1.674-9,3.191-13.3,2.877-8.18,10.1-14.3,18.143-17.536s16.881-3.928,25.554-3.928a173.111,173.111,0,0,1,22.89,1.521c8.287,1.085,16.641,2.867,23.917,6.974s13.408,10.835,15.1,19.037c2.4,11.6-4.264,23.951-.688,35.214,1.8,5.694,5.959,10.293,8.847,15.5a36.931,36.931,0,0,1,2.709,28.713c-3.456,10.71-11.918,21.545-7.584,31.931,2.758,6.6,9.8,10.131,14.708,15.364Q626.606,306.621,627.175,307.326Z" transform="translate(-229.955 -143.301)"/>
      <path id="Path_66" data-name="Path 66" class="cls-13" d="M627.467,361.565v1.6L573.1,373.608c-15.792,3.034-31.811,6.084-47.853,4.919-11.62-.845-22.477-4.291-33.643-7.314-6.311-1.712-13-2.395-15.142-9.459-2.953-9.751,1.853-24.189,2.985-34.07,1.083-9.7,17.764-45.1,15.835-54.684l99.682,4.334c.672,5.293,27.017,31.86,25.375,36.936-3.456,10.71-11.918,21.545-7.584,31.931C615.516,352.8,622.559,356.332,627.467,361.565Z" transform="translate(-231.45 -198.905)"/>
      <path id="Path_67" data-name="Path 67" class="cls-14" d="M540.6,360.055c.591,3.353.9,7.043-.807,9.968-2.281,3.922-7.254,5.174-11.7,6.062l-15.44,3.088a5.992,5.992,0,0,0-2.953,1.17,5.164,5.164,0,0,0-1.376,3.375c-.623,5.591,1.354,11.1,3.158,16.426,3.646,10.786,6.707,21.8,11.317,32.207s10.938,20.343,19.969,27.3,20.982,10.662,32.039,7.942c9.632-2.367,17.531-9.166,24.341-16.377,5.618-5.959,10.873-12.46,13.6-20.191,1.88-5.309,2.492-10.965,3.083-16.567l2.741-25.766c.428-4.031.71-8.565-1.907-11.658a13.887,13.887,0,0,0-4.3-3.1c-5.927-3.148-12.168-5.748-17.683-9.54s-10.407-9.015-12.081-15.494c-1-3.89-.823-8.126-2.53-11.75-1.907-4.063-5.959-6.815-10.293-8.023s-8.906-1.046-13.37-.542-21.67,1.793-23.517,6.826c-.991,2.709,3.12,8.522,4.1,11.187A78.1,78.1,0,0,1,540.6,360.055Z" transform="translate(-246.429 -224.201)"/>
      <path id="Path_68" data-name="Path 68" class="cls-13" d="M540.6,360.055c.591,3.353.9,7.043-.807,9.968-2.281,3.922-7.254,5.174-11.7,6.062l-15.44,3.088a5.992,5.992,0,0,0-2.953,1.17,5.164,5.164,0,0,0-1.376,3.375c-.623,5.591,1.354,11.1,3.158,16.426,3.646,10.786,6.707,21.8,11.317,32.207s10.938,20.343,19.969,27.3,20.982,10.662,32.039,7.942c9.632-2.367,17.531-9.166,24.341-16.377,5.618-5.959,10.873-12.46,13.6-20.191,1.88-5.309,2.492-10.965,3.083-16.567l2.741-25.766c.428-4.031.71-8.565-1.907-11.658a13.887,13.887,0,0,0-4.3-3.1c-5.927-3.148-12.168-5.748-17.683-9.54s-10.407-9.015-12.081-15.494c-1-3.89-.823-8.126-2.53-11.75-1.907-4.063-5.959-6.815-10.293-8.023s-8.906-1.046-13.37-.542-21.67,1.793-23.517,6.826c-.991,2.709,3.12,8.522,4.1,11.187A78.1,78.1,0,0,1,540.6,360.055Z" transform="translate(-246.429 -224.201)"/>
      <path id="Path_69" data-name="Path 69" class="cls-15" d="M571.8,450.755l9.053-19.167c4.242-8.982,8.576-18.419,8.126-28.339-.087-1.972-.108-4.437,1.625-5.331a4.648,4.648,0,0,1,2.378-.3,96.21,96.21,0,0,1,27.905,5.645,11.072,11.072,0,0,1,4.74,2.741,11.315,11.315,0,0,1,2.129,5.038,147.1,147.1,0,0,1,3.1,18.349c1.625,15.288.818,30.712,0,46.049l-2.405,46.823a4.474,4.474,0,0,1-.4,1.929c-.6,1.083-1.939,1.446-3.148,1.652a68.338,68.338,0,0,1-14.123.455c-33.155-1.257-66.483-3.185-99.421.834q.222-7.308-.233-14.627c-1.306-21.069-6.766-41.622-12.13-62.035-3.126-11.918-6.154-24.92-1.121-36.151a15.488,15.488,0,0,1,3.137-4.778,17.824,17.824,0,0,1,7.953-3.993,50.615,50.615,0,0,1,15.326-1.734l34.157,74.366c1.56,3.4,2.844,6.983,4.4,10.342,1.4-5.8-.282-12.6,1.4-18.891A118.951,118.951,0,0,1,571.8,450.755Z" transform="translate(-240.47 -255.991)"/>
      <path id="Path_70" data-name="Path 70" class="cls-16" d="M535.169,500.842c6.111.385,12.048-2.747,16.252-7.173s6.978-10.039,9.323-15.711a154.927,154.927,0,0,0,8.012-24.98c1.625-7.259,2.779-14.773,1.658-22.13-1.549-10.158-7.3-19.389-8.278-29.617-.168-1.788-.06-3.879,1.376-4.957a5.716,5.716,0,0,1,3.164-.823c10.217-.607,21.442-.493,29.357,5.992,2.411,1.972,4.367,4.437,6.723,6.468,5.612,4.876,13.544,7.357,17.146,13.831a47.978,47.978,0,0,1,2.736,7.232c2.069,5.743,5.65,10.792,9.21,15.759-3.451,14.562-7.417,29.135-10.867,43.7-2.021,8.543-4.058,17.119-7.232,25.3-2.08,5.363-4.7,10.835-4.058,16.577a37.856,37.856,0,0,0,1.663,6.6,75.845,75.845,0,0,1,3.191,23.582l-154.582.379c7.406-10.618,9.578-23.642,8.825-36.562a39.952,39.952,0,0,0-4.876-17.78c-4.908-8.4-13.544-13.869-22.055-18.555-5.959-3.25-12.357,15.039-18.8,12.942,1.04-7.357,1.517-35.755,1.083-43.161-.141-2.427-.358-4.919.39-7.238.509-1.587,1.446-3.007,2.08-4.551,2.541-6.181.119-14.085,4.226-19.346,2.839-3.657,7.817-4.7,11.864-6.951,4.155-2.319,7.368-5.959,10.987-9.069A48.86,48.86,0,0,1,478.7,399.432a31.5,31.5,0,0,1,4.773,14.085c.276,3.148.076,6.338.515,9.47.6,4.242,2.357,8.224,4.1,12.146,7.243,16.355,14.513,32.759,23.691,48.118,2.595,4.334,5.417,8.668,9.177,12.043S530.12,501.08,535.169,500.842Z" transform="translate(-207.412 -254.911)"/>
      <path id="Path_71" data-name="Path 71" class="cls-13" d="M535.169,500.842c6.111.385,12.048-2.747,16.252-7.173s6.978-10.039,9.323-15.711a154.927,154.927,0,0,0,8.012-24.98c1.625-7.259,2.779-14.773,1.658-22.13-1.549-10.158-7.3-19.389-8.278-29.617-.168-1.788-.06-3.879,1.376-4.957a5.716,5.716,0,0,1,3.164-.823c10.217-.607,21.442-.493,29.357,5.992,2.411,1.972,4.367,4.437,6.723,6.468,5.612,4.876,13.544,7.357,17.146,13.831a47.978,47.978,0,0,1,2.736,7.232c2.069,5.743,5.65,10.792,9.21,15.759-3.451,14.562-7.417,29.135-10.867,43.7-2.021,8.543-4.058,17.119-7.232,25.3-2.08,5.363-4.7,10.835-4.058,16.577a37.856,37.856,0,0,0,1.663,6.6,75.845,75.845,0,0,1,3.191,23.582l-154.582.379c7.406-10.618,9.578-23.642,8.825-36.562a39.952,39.952,0,0,0-4.876-17.78c-4.908-8.4-13.544-13.869-22.055-18.555-5.959-3.25-12.357,15.039-18.8,12.942,1.04-7.357,1.517-35.755,1.083-43.161-.141-2.427-.358-4.919.39-7.238.509-1.587,1.446-3.007,2.08-4.551,2.541-6.181.119-14.085,4.226-19.346,2.839-3.657,7.817-4.7,11.864-6.951,4.155-2.319,7.368-5.959,10.987-9.069A48.86,48.86,0,0,1,478.7,399.432a31.5,31.5,0,0,1,4.773,14.085c.276,3.148.076,6.338.515,9.47.6,4.242,2.357,8.224,4.1,12.146,7.243,16.355,14.513,32.759,23.691,48.118,2.595,4.334,5.417,8.668,9.177,12.043S530.12,501.08,535.169,500.842Z" transform="translate(-207.412 -254.911)"/>
      <circle id="Ellipse_14" data-name="Ellipse 14" class="cls-14" cx="46.439" cy="46.439" r="46.439" transform="translate(273.143 41.747)"/>
      <path id="Path_72" data-name="Path 72" class="cls-10" d="M538.807,303.163c1.273-12.016-3.722-23.772-9.378-34.45-2.709-5.1-5.613-10.19-6.972-15.8s-.97-11.956,2.508-16.567c2.958-3.922,7.649-6.04,11.989-8.343,12.249-6.5,23.447-16.057,28.832-28.837-3.045,1.658-2.254,6.6.433,8.787s6.349,2.606,9.654,3.646c12.048,3.792,19.275,15.808,25.072,27.033a12.92,12.92,0,0,1,1.9,5.829,11.824,11.824,0,0,1-1.939,5.65c-2.86,5.092-6.36,9.984-7.66,15.678-1.49,6.5.081,13.338,2.124,19.714,2.167,6.783,5.044,13.62,10.244,18.484s13.267,7.281,19.665,4.139c-6.387-10.981-13-23.252-10.51-35.7,1.2-5.959,4.437-11.377,5.813-17.3,2.622-11.306-1.744-22.938-6.03-33.729l-12.807-32.207c-1.956-4.924-4.182-10.179-8.668-12.969-3.034-1.88-6.707-2.367-10.261-2.709-11.442-1.018-23.3-.683-33.946,3.576-19.405,7.752-31.573,26.865-41.227,45.4-2.893,5.553-5.748,11.453-5.629,17.715.065,3.435,1.024,6.777,1.8,10.125,3.175,13.63,3.348,27.754,3.511,41.747.125,10.737-.433,20.857-5.13,30.636,6.436,1.279,15.77,4.729,22.141,2.2C532.647,321.637,537.761,311.523,538.807,303.163Z" transform="translate(-243.593 -153.094)"/>
      <g id="Group_11" data-name="Group 11" class="cls-17" transform="translate(258.395 45.22)">
        <path id="Path_73" data-name="Path 73" d="M507.283,346.315q.033-2.292,0-4.627c-.163-13.993-.336-28.117-3.511-41.747a70.447,70.447,0,0,1-1.658-8.061,21.072,21.072,0,0,0-.146,2.812c.065,3.435,1.024,6.777,1.8,10.125C506.93,318.366,507.125,332.4,507.283,346.315Z" transform="translate(-501.966 -252.777)"/>
        <path id="Path_74" data-name="Path 74" d="M715.507,316.4a32.781,32.781,0,0,0,.7-9.654,30.092,30.092,0,0,1-.7,4.778c-1.376,5.959-4.61,11.328-5.813,17.3a28.709,28.709,0,0,0-.433,8.007,28.4,28.4,0,0,1,.433-3.131C710.9,327.732,714.13,322.341,715.507,316.4Z" transform="translate(-596.91 -259.591)"/>
        <path id="Path_75" data-name="Path 75" d="M619.1,263.365a7.806,7.806,0,0,0,.423-2.389,13.054,13.054,0,0,0-1.9-5.829c-5.8-11.225-13-23.23-25.072-27.033-3.3-1.04-6.961-1.463-9.654-3.646a6.869,6.869,0,0,1-2.373-4.767c-5.873,10.781-15.96,19.026-26.892,24.817-4.334,2.3-9.031,4.421-11.989,8.343-2.779,3.684-3.586,8.478-3.1,13.116a16.582,16.582,0,0,1,3.1-8.24c2.958-3.922,7.649-6.04,11.989-8.343,10.932-5.791,21.02-14.037,26.892-24.817a6.869,6.869,0,0,0,2.373,4.767c2.709,2.167,6.349,2.606,9.654,3.646,12.048,3.792,19.275,15.808,25.072,27.033A21.338,21.338,0,0,1,619.1,263.365Z" transform="translate(-518.666 -219.7)"/>
        <path id="Path_76" data-name="Path 76" d="M682.3,380.186c-5.2-4.876-8.067-11.7-10.244-18.484a53.506,53.506,0,0,1-2.6-11.761c-.5,5.564.878,11.257,2.6,16.637,2.167,6.783,5.044,13.62,10.244,18.484s13.267,7.281,19.665,4.139c-.769-1.316-1.533-2.655-2.292-4C693.727,386.871,686.9,384.487,682.3,380.186Z" transform="translate(-578.668 -279.383)"/>
        <path id="Path_77" data-name="Path 77" d="M538.948,403.039c-1.046,8.359-6.16,18.474-14.486,21.778-5.78,2.292-14.01-.341-20.288-1.8a46.95,46.95,0,0,1-1.853,4.469c6.436,1.279,15.77,4.729,22.141,2.2,8.327-3.3,13.441-13.419,14.486-21.778a37.646,37.646,0,0,0,.119-6.3C539.034,402.091,538.985,402.568,538.948,403.039Z" transform="translate(-502.128 -303.065)"/>
      </g>
      <path id="Path_78" data-name="Path 78" class="cls-15" d="M658.642,649.859c-8.37-1.327-16.865-3.89-25.164-2.167a34.982,34.982,0,0,0-13.208,6.284c2.2,1.761,4.767,3.332,6.165,5.78a22.755,22.755,0,0,1,1.939,5.347,45.5,45.5,0,0,1,1.9,9.947,15.139,15.139,0,0,1-2.557,9.627c10.553,1.04,20.781-1.56,31.075-4.1a8.509,8.509,0,0,0,3.288-1.327c1.625-1.279,2.1-3.554,2.113-5.629a38.539,38.539,0,0,0-2.1-10.873C660.836,658.484,659.9,654.1,658.642,649.859Z" transform="translate(-297.784 -370.345)"/>
      <path id="Path_79" data-name="Path 79" class="cls-16" d="M741.516,483.218c4.155.542,7.379,3.9,9.751,7.341,6.658,9.589,9.529,21.215,12.726,32.445a431.841,431.841,0,0,0,14.015,41.238,62.066,62.066,0,0,0,4.2,9.047c1.338,2.237,2.963,4.388,3.554,6.929,1.43,6.143-3.635,11.918-8.917,15.342a35.291,35.291,0,0,1-9.128,4.4,54.37,54.37,0,0,1-9.708,1.658l-30.072,3.25c-13.842,1.506-27.808,3.012-41.655,1.56-.872-3.034.84-5.179.715-8.337-.087-2.259-1.083-4.361-1.972-6.441A41.17,41.17,0,0,1,681.815,580a15.8,15.8,0,0,0-.775-4.372,4.1,4.1,0,0,0-3.25-2.709c8.126-.807,14.3-2.34,22.423-3.153,3.018-.3,6.154-.645,8.728-2.248,3.191-1.988,4.979-5.575,6.4-9.053,3.516-8.614,5.78-18.105,3.933-27.228-1.517-7.482-5.748-14.448-5.726-22.082,0-4.545,1.549-8.95,3.38-13.11,1.939-4.4,4.469-8.9,8.728-11.127S736.71,482.568,741.516,483.218Z" transform="translate(-324.143 -295.08)"/>
      <path id="Path_80" data-name="Path 80" class="cls-18" d="M741.516,483.218c4.155.542,7.379,3.9,9.751,7.341,6.658,9.589,9.529,21.215,12.726,32.445a431.841,431.841,0,0,0,14.015,41.238,62.066,62.066,0,0,0,4.2,9.047c1.338,2.237,2.963,4.388,3.554,6.929,1.43,6.143-3.635,11.918-8.917,15.342a35.291,35.291,0,0,1-9.128,4.4,54.37,54.37,0,0,1-9.708,1.658l-30.072,3.25c-13.842,1.506-27.808,3.012-41.655,1.56-.872-3.034.84-5.179.715-8.337-.087-2.259-1.083-4.361-1.972-6.441A41.17,41.17,0,0,1,681.815,580a15.8,15.8,0,0,0-.775-4.372,4.1,4.1,0,0,0-3.25-2.709c8.126-.807,14.3-2.34,22.423-3.153,3.018-.3,6.154-.645,8.728-2.248,3.191-1.988,4.979-5.575,6.4-9.053,3.516-8.614,5.78-18.105,3.933-27.228-1.517-7.482-5.748-14.448-5.726-22.082,0-4.545,1.549-8.95,3.38-13.11,1.939-4.4,4.469-8.9,8.728-11.127S736.71,482.568,741.516,483.218Z" transform="translate(-324.143 -295.08)"/>
      <path id="Path_81" data-name="Path 81" class="cls-14" d="M444.352,399.514c1.967-4.67,3.966-9.491,4.02-14.557.06-5.477-2.167-10.678-3.868-15.879a91.818,91.818,0,0,1-4.177-19.606,2.709,2.709,0,0,1,.271-1.88,3.229,3.229,0,0,1,2.08-.932c3.749-.856,6.582-3.884,8.923-6.934a76.029,76.029,0,0,0,9.134-15.256c1.793-3.993,4.22-8.863,8.6-8.9a248.307,248.307,0,0,1-6.544,24.514c4.578-1.17,8.928-2.871,13.506-4.041a8.088,8.088,0,0,1,2.774-.368,4.186,4.186,0,0,1,2.828,6.246c2.237,2.622,5.959,3.326,8.885,5.125s5.027,6.252,2.427,8.511a7.254,7.254,0,0,0-1.522,1.311c-1.257,1.939,1.82,4.166,1.566,6.463-.206,1.88-2.617,2.758-4.442,2.259s-3.25-1.864-4.876-2.866-3.749-1.625-5.325-.585c-.423,5.1-.878,10.293-3.083,14.936-.807,1.7-1.842,3.283-2.492,5.044a24.858,24.858,0,0,0-1.148,5.921l-1.967,17.981C460.534,407.9,452.121,405.088,444.352,399.514Z" transform="translate(-215.296 -218.413)"/>
      <path id="Path_82" data-name="Path 82" class="cls-15" d="M441.884,481.376l-1.728-11.7a19.012,19.012,0,0,1-.276-2.882c0-2.709,1.192-5.293,2.346-7.758,9.562,4.464,19.9,6.051,30.446,6.057,1.392,0,2.98-.13,3.846-1.219,1.793,2.064,1.847,5.385,1.083,8.007s-2.232,4.984-3.207,7.541a10.751,10.751,0,0,1-1.837,3.706c-1.463,1.577-3.836,1.847-5.992,1.837a38.3,38.3,0,0,1-6.761-.645C454.03,483.251,447.659,480.341,441.884,481.376Z" transform="translate(-215.12 -284.159)"/>
      <path id="Path_83" data-name="Path 83" class="cls-16" d="M464.838,494.629q-11.133-1.268-22.12-3.576c-3.592-.753-7.216-1.593-10.878-1.446-2.384.1-4.946.574-7.043-.607a33.908,33.908,0,0,1-.276,21.1c-1.446,4.063-3.651,7.85-4.713,12.032-2.21,8.749.823,18.289-1.939,26.881A6.8,6.8,0,0,1,416.2,552c-.845.775-2,1.176-2.779,2.015-1.148,1.235-1.219,3.093-1.224,4.778l-.049,14.925c-.032,9.5.092,19.579,5.109,27.629A26.233,26.233,0,0,0,445.5,612.529a21,21,0,0,0,7.671-3.754c3.641-2.893,5.959-7.075,8.229-11.149,2.709-4.876,5.417-9.86,6.29-15.348a43.611,43.611,0,0,0-.173-11.756c-2.449-21.67-7.763-43.156-6.62-64.907a19.671,19.671,0,0,1,3.939-10.987Z" transform="translate(-202.41 -297.888)"/>
      <path id="Path_84" data-name="Path 84" class="cls-14" d="M511.245,663.35a65.674,65.674,0,0,1-11.306,0c-2.709-.325-5.352-.991-8.039-1.446a51.525,51.525,0,0,0-41.492,11.528c-2.08,1.777-4.182,4.5-3.034,6.989,1.235,2.676,5.011,2.6,7.92,2.1a23.836,23.836,0,0,0-8.126,6.355,4.8,4.8,0,0,0-1.425,3.451c.33,2.682,3.971,3.169,6.663,2.936-.878.943-.287,2.611.829,3.25a5.559,5.559,0,0,0,3.765.276,27.908,27.908,0,0,0,8-2.768,3.048,3.048,0,0,0,1.625,3.543,6.694,6.694,0,0,0,4.177.385c6.62-1.083,12.146-5.688,18.6-7.5,10.326-2.888,21.128,1.717,31.86,2.042a22.23,22.23,0,0,0,9.865-1.625c3.754-1.707,6.783-4.908,10.748-6.046,4.4-1.257,9.459.19,13.49-1.983,2.931-1.576.287-13.728-.46-16.068-1.371-4.28-2.747-7.119-7.314-7.552C536.036,660.089,522.887,662.678,511.245,663.35Z" transform="translate(-217.797 -376.679)"/>
      <path id="Path_85" data-name="Path 85" class="cls-15" d="M619.88,657.561s17.493,14.806,7.4,30.961l19.5-6.734V667.654c0-.672-7.406-10.764-7.406-10.764l-8.749-1.349Z" transform="translate(-297.605 -374.205)"/>
      <path id="Path_86" data-name="Path 86" class="cls-19" d="M245.334,521.32h6.561a13.544,13.544,0,0,1,13.544,13.544v20.1H231.79v-20.1A13.544,13.544,0,0,1,245.334,521.32Z" transform="translate(-106.218 -238.88)"/>
      <path id="Path_87" data-name="Path 87" class="cls-13" d="M245.334,521.32h6.561a13.544,13.544,0,0,1,13.544,13.544v20.1H231.79v-20.1A13.544,13.544,0,0,1,245.334,521.32Z" transform="translate(-106.218 -238.88)"/>
      <circle id="Ellipse_15" data-name="Ellipse 15" class="cls-19" cx="2.692" cy="2.692" r="2.692" transform="translate(138.357 284.455)"/>
      <circle id="Ellipse_16" data-name="Ellipse 16" class="cls-19" cx="2.692" cy="2.692" r="2.692" transform="translate(138.357 281.091)"/>
      <circle id="Ellipse_17" data-name="Ellipse 17" class="cls-19" cx="2.692" cy="2.692" r="2.692" transform="translate(138.357 277.727)"/>
      <circle id="Ellipse_18" data-name="Ellipse 18" class="cls-19" cx="2.692" cy="2.692" r="2.692" transform="translate(138.357 274.362)"/>
      <circle id="Ellipse_19" data-name="Ellipse 19" class="cls-19" cx="2.692" cy="2.692" r="2.692" transform="translate(138.357 270.998)"/>
      <circle id="Ellipse_20" data-name="Ellipse 20" class="cls-19" cx="2.692" cy="2.692" r="2.692" transform="translate(138.357 267.634)"/>
      <circle id="Ellipse_21" data-name="Ellipse 21" class="cls-19" cx="2.692" cy="2.692" r="2.692" transform="translate(138.357 264.264)"/>
      <circle id="Ellipse_22" data-name="Ellipse 22" class="cls-19" cx="2.692" cy="2.692" r="2.692" transform="translate(142.398 265.613)"/>
      <circle id="Ellipse_23" data-name="Ellipse 23" class="cls-19" cx="2.692" cy="2.692" r="2.692" transform="translate(145.091 264.264)"/>
      <circle id="Ellipse_24" data-name="Ellipse 24" class="cls-19" cx="2.692" cy="2.692" r="2.692" transform="translate(147.783 262.921)"/>
      <circle id="Ellipse_25" data-name="Ellipse 25" class="cls-19" cx="2.692" cy="2.692" r="2.692" transform="translate(138.357 260.9)"/>
      <circle id="Ellipse_26" data-name="Ellipse 26" class="cls-19" cx="2.692" cy="2.692" r="2.692" transform="translate(138.357 257.536)"/>
      <circle id="Ellipse_27" data-name="Ellipse 27" class="cls-19" cx="2.692" cy="2.692" r="2.692" transform="translate(138.357 254.171)"/>
      <circle id="Ellipse_28" data-name="Ellipse 28" class="cls-19" cx="2.692" cy="2.692" r="2.692" transform="translate(138.357 250.807)"/>
      <path id="Path_88" data-name="Path 88" class="cls-16" d="M286.867,580.1q-1.008.146-2.015.211a15.471,15.471,0,0,0,1.734-1.777,11.377,11.377,0,0,0-1.625-3.158,5.536,5.536,0,0,1-2.167.683c-.666.1-1.338.168-2.01.217a33.583,33.583,0,0,0,2.573-2.709,11.431,11.431,0,1,0,3.754,8.457,11.2,11.2,0,0,0-.173-1.967Z" transform="translate(-134.636 -335.283)"/>
      <path id="Path_89" data-name="Path 89" class="cls-16" d="M313.5,611.7a5.222,5.222,0,0,1-2.264.753c-.666.1-1.338.173-2.01.217a19.733,19.733,0,0,0,1.994-2.069,6.739,6.739,0,1,0,2.281,1.083Z" transform="translate(-152.293 -353.513)"/>
      <circle id="Ellipse_29" data-name="Ellipse 29" class="cls-19" cx="2.692" cy="2.692" r="2.692" transform="translate(134.321 265.613)"/>
      <circle id="Ellipse_30" data-name="Ellipse 30" class="cls-19" cx="2.692" cy="2.692" r="2.692" transform="translate(131.628 264.264)"/>
      <circle id="Ellipse_31" data-name="Ellipse 31" class="cls-19" cx="2.692" cy="2.692" r="2.692" transform="translate(128.936 262.921)"/>
      <path id="Path_90" data-name="Path 90" class="cls-16" d="M245.826,611.7a5.222,5.222,0,0,0,2.264.753c.666.1,1.338.173,2.01.217a19.19,19.19,0,0,1-1.994-2.07,6.74,6.74,0,1,1-2.281,1.084Z" transform="translate(-124.93 -353.513)"/>
      <path id="Path_91" data-name="Path 91" class="cls-19" d="M245.32,525h6.561a13.544,13.544,0,0,1,13.544,13.544v17.807a2.3,2.3,0,0,1-2.3,2.3h-29.07a2.3,2.3,0,0,1-2.3-2.3V538.544A13.544,13.544,0,0,1,245.32,525Z" transform="translate(-106.205 -240.567)"/>
      <g id="Group_12" data-name="Group 12" class="cls-17" transform="translate(129.77 235.473)">
        <path id="Path_92" data-name="Path 92" d="M305.607,589.49a10.2,10.2,0,0,1-.867.823,8.815,8.815,0,0,0,.921-.081C305.65,589.983,305.634,589.734,305.607,589.49Z" transform="translate(-282.962 -579.411)"/>
        <path id="Path_93" data-name="Path 93" d="M297.28,581.653c.677-.043,1.344-.114,2.015-.211a6.5,6.5,0,0,0,1.75-.477,11.873,11.873,0,0,0-.943-1.555,4.076,4.076,0,0,1-1.083.461,15.6,15.6,0,0,1-1.739,1.782Z" transform="translate(-279.543 -574.791)"/>
        <path id="Path_94" data-name="Path 94" d="M265.726,583.527a11.42,11.42,0,0,1,17.607-9.621l.173-.184a11.431,11.431,0,1,0-15.072,17.19,11.377,11.377,0,0,1-2.709-7.384Z" transform="translate(-264.54 -570.885)"/>
      </g>
      <g id="Group_13" data-name="Group 13" class="cls-17" transform="translate(150.476 256.864)">
        <path id="Path_95" data-name="Path 95" d="M314.68,615.12c.672-.043,1.344-.114,2.01-.211a5.229,5.229,0,0,0,2.264-.758,6.734,6.734,0,0,1,2.709,4.767,6.166,6.166,0,0,0,.038-.71,6.707,6.707,0,0,0-2.709-5.417,5.222,5.222,0,0,1-2.265.753l-.542.07a13.745,13.745,0,0,1-1.506,1.506Z" transform="translate(-308.222 -611.479)"/>
        <path id="Path_96" data-name="Path 96" d="M309.488,611.714a5.508,5.508,0,0,1,.672.049c.352-.374.7-.775,1.051-1.165a6.718,6.718,0,0,0-8.451,6.5,4.613,4.613,0,0,0,.033.672A6.728,6.728,0,0,1,309.488,611.714Z" transform="translate(-302.76 -610.37)"/>
      </g>
      <g id="Group_14" data-name="Group 14" class="cls-17" transform="translate(118.15 256.864)">
        <path id="Path_97" data-name="Path 97" d="M250.111,615.12c-.672-.043-1.344-.114-2.01-.211a5.228,5.228,0,0,1-2.264-.758,6.734,6.734,0,0,0-2.709,4.767,6.159,6.159,0,0,1-.038-.71,6.707,6.707,0,0,1,2.709-5.417,5.222,5.222,0,0,0,2.264.753l.542.07A12.823,12.823,0,0,0,250.111,615.12Z" transform="translate(-243.09 -611.479)"/>
        <path id="Path_98" data-name="Path 98" d="M254.093,611.714a5.686,5.686,0,0,0-.677.049c-.347-.374-.693-.775-1.046-1.165a6.718,6.718,0,0,1,8.451,6.5,4.617,4.617,0,0,1-.033.672A6.729,6.729,0,0,0,254.093,611.714Z" transform="translate(-247.343 -610.37)"/>
      </g>
      <path id="Path_99" data-name="Path 99" class="cls-16" d="M175.177,710.4H122.248A2.248,2.248,0,0,1,120,708.148V683.1a2.248,2.248,0,0,1,3.213-2.032c15.207,7.216,31.589,9.692,50.924.114a2.254,2.254,0,0,1,3.25,2.01v24.92A2.248,2.248,0,0,1,175.177,710.4Z" transform="translate(-68.534 -385.803)"/>
      <path id="Path_100" data-name="Path 100" class="cls-13" d="M175.177,710.4H122.248A2.248,2.248,0,0,1,120,708.148V683.1a2.248,2.248,0,0,1,3.213-2.032c15.207,7.216,31.589,9.692,50.924.114a2.254,2.254,0,0,1,3.25,2.01v24.92A2.248,2.248,0,0,1,175.177,710.4Z" transform="translate(-68.534 -385.803)"/>
      <ellipse id="Ellipse_32" data-name="Ellipse 32" class="cls-19" cx="3.131" cy="4.101" rx="3.131" ry="4.101" transform="translate(76.679 297.349)"/>
      <ellipse id="Ellipse_33" data-name="Ellipse 33" class="cls-19" cx="3.131" cy="4.101" rx="3.131" ry="4.101" transform="translate(76.679 292.338)"/>
      <ellipse id="Ellipse_34" data-name="Ellipse 34" class="cls-19" cx="3.131" cy="4.101" rx="3.131" ry="4.101" transform="translate(76.679 287.321)"/>
      <ellipse id="Ellipse_35" data-name="Ellipse 35" class="cls-19" cx="3.131" cy="4.101" rx="3.131" ry="4.101" transform="translate(76.679 282.31)"/>
      <ellipse id="Ellipse_36" data-name="Ellipse 36" class="cls-19" cx="3.131" cy="4.101" rx="3.131" ry="4.101" transform="translate(76.679 277.293)"/>
      <ellipse id="Ellipse_37" data-name="Ellipse 37" class="cls-19" cx="3.131" cy="4.101" rx="3.131" ry="4.101" transform="translate(76.679 272.277)"/>
      <ellipse id="Ellipse_38" data-name="Ellipse 38" class="cls-19" cx="3.131" cy="4.101" rx="3.131" ry="4.101" transform="translate(76.679 267.265)"/>
      <path id="Path_101" data-name="Path 101" class="cls-16" d="M171.322,553.2a15.946,15.946,0,0,0,1.165-1.717l-8.235-1.354,8.906.065a15.012,15.012,0,0,0,.287-11.918l-11.946,6.2,11.019-8.126a15.012,15.012,0,1,0-24.8,16.794,14.682,14.682,0,0,0-1.712,2.736l10.683,5.613-11.377-3.846a15.028,15.028,0,0,0,2.422,14.085,15.012,15.012,0,1,0,23.6,0,15.012,15.012,0,0,0,0-18.56Z" transform="translate(-79.766 -316.15)"/>
      <path id="Path_102" data-name="Path 102" class="cls-13" d="M144.49,590.743a14.947,14.947,0,0,0,3.213,9.28,15.012,15.012,0,1,0,23.6,0C173.311,597.471,144.49,589.058,144.49,590.743Z" transform="translate(-79.756 -344.411)"/>
      <path id="Path_103" data-name="Path 103" class="cls-16" d="M175.177,711.724H122.248A2.248,2.248,0,0,1,120,709.475V683.1a2.248,2.248,0,0,1,3.213-2.032c15.207,7.216,27.266,15.629,50.924.114a2.2,2.2,0,0,1,3.25,2.01v26.275A2.248,2.248,0,0,1,175.177,711.724Z" transform="translate(-68.534 -385.803)"/>
      <path id="Path_104" data-name="Path 104" class="cls-20" d="M820.18,564.691l-78.087,10.331-3.906.515L700.01,555.146v-4.773l119.3-13.013Z" transform="translate(-320.782 -246.231)"/>
      <path id="Path_105" data-name="Path 105" class="cls-21" d="M740.85,565.754l84.594-9.974-.867,15.619-65.893,4.832Z" transform="translate(-339.497 -254.672)"/>
      <path id="Path_106" data-name="Path 106" class="cls-12" d="M767.088,717.159v5.125l-3.906.542L725,702.413V697.64l36.443,19.5S766.222,717.593,767.088,717.159Z" transform="translate(-345.777 -393.498)"/>
      <path id="Path_107" data-name="Path 107" class="cls-19" d="M815.431,575.358,797.9,656.648a5.19,5.19,0,0,0,5.753,6.246l110.912-14.681a5.19,5.19,0,0,0,4.247-3.51l23.929-72.161a5.2,5.2,0,0,0-5.179-6.826l-117.3,5.569A5.2,5.2,0,0,0,815.431,575.358Z" transform="translate(-379.129 -333.04)"/>
      <ellipse id="Ellipse_39" data-name="Ellipse 39" class="cls-15" cx="4.713" cy="3.028" rx="4.713" ry="3.028" transform="translate(490.729 276.363) rotate(-84)"/>
    </g>
    <g id="simple-footer" transform="translate(3980)">
      <rect id="footer-base" class="cls-11" width="1920" height="97" transform="translate(0 983)"/>
      <text id="copyright_text" data-name="copyright text" class="cls-5" transform="translate(173 1038)"><tspan x="0" y="0">Copyright 2020 @ M.A.Dole</tspan></text>
    </g>
    <g id="simple-header" transform="translate(3980)">
      <rect id="header-base" class="cls-11" width="1920" height="162"/>
      <text id="logo" class="cls-22" transform="translate(173 101)"><tspan x="0" y="0">MyQuiz</tspan></text>
      <text id="login-link" class="cls-4" transform="translate(1506 93)"><tspan x="0" y="0">Login</tspan></text>
      <text id="sign-up-link" class="cls-4" transform="translate(1620 93)"><tspan x="0" y="0">Signup</tspan></text>
    </g>
  </g>
</svg>
