<svg xmlns="http://www.w3.org/2000/svg" xmlns:xlink="http://www.w3.org/1999/xlink" viewBox="10161 2979 1920 1261">
  <defs>
    <style>
      .cls-1 {
        clip-path: url(#clip-students);
      }

      .cls-2, .cls-7, .cls-9 {
        fill: #fff;
      }

      .cls-10, .cls-3, .cls-8 {
        fill: #a7289e;
      }

      .cls-3 {
        font-size: 48px;
        font-family: Montserrat-Medium, Montserrat;
        font-weight: 500;
      }

      .cls-11, .cls-4 {
        fill: #3f3d56;
      }

      .cls-4, .cls-9 {
        font-size: 25px;
      }

      .cls-11, .cls-4, .cls-7, .cls-9 {
        font-family: Montserrat-Regular, Montserrat;
      }

      .cls-5 {
        fill: none;
        stroke: #dcdcdc;
      }

      .cls-6 {
        fill: #b54cad;
      }

      .cls-7 {
        font-size: 20px;
      }

      .cls-10 {
        stroke: #95989a;
      }

      .cls-11 {
        font-size: 30px;
      }

      .cls-12 {
        fill: #f9f9f9;
      }

      .cls-13 {
        filter: url(#title_base-5);
      }

      .cls-14 {
        filter: url(#title_base-4);
      }

      .cls-15 {
        filter: url(#title_base-3);
      }

      .cls-16 {
        filter: url(#title_base-2);
      }

      .cls-17 {
        filter: url(#title_base);
      }
    </style>
    <filter id="title_base" x="10261" y="3185" width="1721" height="249" filterUnits="userSpaceOnUse">
      <feOffset dy="3" input="SourceAlpha"/>
      <feGaussianBlur stdDeviation="25" result="blur"/>
      <feFlood flood-color="#3f3d56" flood-opacity="0.161"/>
      <feComposite operator="in" in2="blur"/>
      <feComposite in="SourceGraphic"/>
    </filter>
    <filter id="title_base-2" x="10261" y="3320" width="1721" height="233" filterUnits="userSpaceOnUse">
      <feOffset dy="3" input="SourceAlpha"/>
      <feGaussianBlur stdDeviation="25" result="blur-2"/>
      <feFlood flood-color="#3f3d56" flood-opacity="0.161"/>
      <feComposite operator="in" in2="blur-2"/>
      <feComposite in="SourceGraphic"/>
    </filter>
    <filter id="title_base-3" x="10261" y="3427" width="1721" height="306" filterUnits="userSpaceOnUse">
      <feOffset dy="3" input="SourceAlpha"/>
      <feGaussianBlur stdDeviation="25" result="blur-3"/>
      <feFlood flood-color="#3f3d56" flood-opacity="0.161"/>
      <feComposite operator="in" in2="blur-3"/>
      <feComposite in="SourceGraphic"/>
    </filter>
    <filter id="title_base-4" x="10261" y="3608" width="1721" height="306" filterUnits="userSpaceOnUse">
      <feOffset dy="3" input="SourceAlpha"/>
      <feGaussianBlur stdDeviation="25" result="blur-4"/>
      <feFlood flood-color="#3f3d56" flood-opacity="0.161"/>
      <feComposite operator="in" in2="blur-4"/>
      <feComposite in="SourceGraphic"/>
    </filter>
    <filter id="title_base-5" x="10261" y="3790" width="1721" height="306" filterUnits="userSpaceOnUse">
      <feOffset dy="3" input="SourceAlpha"/>
      <feGaussianBlur stdDeviation="25" result="blur-5"/>
      <feFlood flood-color="#3f3d56" flood-opacity="0.161"/>
      <feComposite operator="in" in2="blur-5"/>
      <feComposite in="SourceGraphic"/>
    </filter>
    <clipPath id="clip-students">
      <rect x="10161" y="2979" width="1920" height="1261"/>
    </clipPath>
  </defs>
  <g id="students" class="cls-1">
    <rect class="cls-12" x="10161" y="2979" width="1920" height="1261"/>
    <g id="header" transform="translate(10161 2979)">
      <rect id="header-base" class="cls-2" width="1920" height="162"/>
      <text id="logo" class="cls-3" transform="translate(173 101)"><tspan x="0" y="0">MyQuiz</tspan></text>
      <text id="login-link" class="cls-4" transform="translate(1657 93)"><tspan x="0" y="0">Logout</tspan></text>
      <path id="Path_255" data-name="Path 255" class="cls-5" d="M0,0H1920" transform="translate(0 161.5)"/>
      <text id="login-link-2" data-name="login-link" class="cls-4" transform="translate(1430 93)"><tspan x="0" y="0">Welcome Anver!</tspan></text>
    </g>
    <g id="Group_16" data-name="Group 16" transform="translate(10161 3160)">
      <rect id="footer-base" class="cls-6" width="1920" height="70" transform="translate(0 1010)"/>
      <text id="copyright_text" data-name="copyright text" class="cls-7" transform="translate(175 1052)"><tspan x="0" y="0">Copyright 2020 @ M.A.Dole</tspan></text>
      <line id="Line_2" data-name="Line 2" class="cls-5" x2="1920" transform="translate(0 1010.5)"/>
    </g>
    <path id="Path_254" data-name="Path 254" class="cls-8" d="M0,0H1920V66H0Z" transform="translate(10161 3140)"/>
    <text id="login-link-3" data-name="login-link" class="cls-9" transform="translate(10571 3183)"><tspan x="0" y="0">My exams</tspan></text>
    <path id="Path_253" data-name="Path 253" class="cls-5" d="M0,0H1920" transform="translate(10161 3206.5)"/>
    <text id="login-link-4" data-name="login-link" class="cls-9" transform="translate(10336 3183)"><tspan x="0" y="0">Dashboard</tspan></text>
    <rect id="Rectangle_57" data-name="Rectangle 57" class="cls-2" width="125" height="6" rx="3" transform="translate(10787 3140)"/>
    <text id="login-link-5" data-name="login-link" class="cls-9" transform="translate(10792 3183)"><tspan x="0" y="0">Students</tspan></text>
    <text id="current_page_no" data-name="current page no" class="cls-4" transform="translate(11518 4115)"><tspan x="0" y="0">Page 1 of 10</tspan></text>
    <g id="pink_button" data-name="pink button" transform="translate(10162 3177)">
      <path id="base" class="cls-10" d="M20,.5H181A19.5,19.5,0,0,1,200.5,20V42A19.5,19.5,0,0,1,181,61.5H20A19.5,19.5,0,0,1,.5,42V20A19.5,19.5,0,0,1,20,.5Z" transform="translate(1109 898)"/>
      <text id="content" class="cls-9" transform="translate(1210 938)"><tspan x="-31.275" y="0">Back</tspan></text>
    </g>
    <g id="pink_button-2" data-name="pink button" transform="translate(10598 3177)">
      <path id="base-2" data-name="base" class="cls-10" d="M20,.5H181A19.5,19.5,0,0,1,200.5,20V42A19.5,19.5,0,0,1,181,61.5H20A19.5,19.5,0,0,1,.5,42V20A19.5,19.5,0,0,1,20,.5Z" transform="translate(1109 898)"/>
      <text id="content-2" data-name="content" class="cls-9" transform="translate(1210 938)"><tspan x="-29.275" y="0">Next</tspan></text>
    </g>
    <g id="page_title" data-name="page title" transform="translate(10161 2979)">
      <g class="cls-17" transform="matrix(1, 0, 0, 1, -10161, -2979)">
        <rect id="title_base-6" data-name="title base" class="cls-2" width="1571" height="99" rx="20" transform="translate(10336 3257)"/>
      </g>
      <text id="login-link-6" data-name="login-link" class="cls-11" transform="translate(224 338)"><tspan x="0" y="0">Students</tspan></text>
    </g>
    <g class="cls-16" transform="matrix(1, 0, 0, 1, 0, 0)">
      <rect id="title_base-7" data-name="title base" class="cls-2" width="1571" height="83" rx="20" transform="translate(10336 3392)"/>
    </g>
    <text id="login-link-7" data-name="login-link" class="cls-4" transform="translate(10412 3442)"><tspan x="0" y="0">Id</tspan></text>
    <text id="login-link-8" data-name="login-link" class="cls-4" transform="translate(10499 3442)"><tspan x="0" y="0">Name</tspan></text>
    <text id="login-link-9" data-name="login-link" class="cls-4" transform="translate(10736 3442)"><tspan x="0" y="0">Age</tspan></text>
    <text id="login-link-10" data-name="login-link" class="cls-4" transform="translate(10886 3442)"><tspan x="0" y="0">Address</tspan></text>
    <text id="login-link-11" data-name="login-link" class="cls-4" transform="translate(11301 3442)"><tspan x="0" y="0">Phone</tspan></text>
    <text id="login-link-12" data-name="login-link" class="cls-4" transform="translate(11534 3442)"><tspan x="0" y="0">Email</tspan></text>
    <g id="Group_39" data-name="Group 39" transform="translate(10161 2989)">
      <g class="cls-15" transform="matrix(1, 0, 0, 1, -10161, -2989)">
        <rect id="title_base-8" data-name="title base" class="cls-2" width="1571" height="156" rx="20" transform="translate(10336 3499)"/>
      </g>
      <text id="login-link-13" data-name="login-link" class="cls-4" transform="translate(251 572)"><tspan x="0" y="0">01</tspan></text>
      <text id="login-link-14" data-name="login-link" class="cls-4" transform="translate(338 572)"><tspan x="0" y="0">Hellow world</tspan></text>
      <text id="login-link-15" data-name="login-link" class="cls-4" transform="translate(575 572)"><tspan x="0" y="0">16</tspan></text>
      <text id="login-link-16" data-name="login-link" class="cls-4" transform="translate(725 572)"><tspan x="0" y="0">82/F/4 Somaweera</tspan><tspan x="0" y="30">mawatha, Walpola,</tspan><tspan x="0" y="60">Ragama.</tspan></text>
      <text id="login-link-17" data-name="login-link" class="cls-4" transform="translate(1140 572)"><tspan x="0" y="0">0769961925</tspan></text>
      <text id="login-link-18" data-name="login-link" class="cls-4" transform="translate(1373 572)"><tspan x="0" y="0">Helloworld@gmail.com</tspan></text>
    </g>
    <g id="Group_40" data-name="Group 40" transform="translate(10161 3170)">
      <g class="cls-14" transform="matrix(1, 0, 0, 1, -10161, -3170)">
        <rect id="title_base-9" data-name="title base" class="cls-2" width="1571" height="156" rx="20" transform="translate(10336 3680)"/>
      </g>
      <text id="login-link-19" data-name="login-link" class="cls-4" transform="translate(251 572)"><tspan x="0" y="0">01</tspan></text>
      <text id="login-link-20" data-name="login-link" class="cls-4" transform="translate(338 572)"><tspan x="0" y="0">Hellow world</tspan></text>
      <text id="login-link-21" data-name="login-link" class="cls-4" transform="translate(575 572)"><tspan x="0" y="0">16</tspan></text>
      <text id="login-link-22" data-name="login-link" class="cls-4" transform="translate(725 572)"><tspan x="0" y="0">82/F/4 Somaweera</tspan><tspan x="0" y="30">mawatha, Walpola,</tspan><tspan x="0" y="60">Ragama.</tspan></text>
      <text id="login-link-23" data-name="login-link" class="cls-4" transform="translate(1140 572)"><tspan x="0" y="0">0769961925</tspan></text>
      <text id="login-link-24" data-name="login-link" class="cls-4" transform="translate(1373 572)"><tspan x="0" y="0">Helloworld@gmail.com</tspan></text>
    </g>
    <g id="Group_41" data-name="Group 41" transform="translate(10161 3352)">
      <g class="cls-13" transform="matrix(1, 0, 0, 1, -10161, -3352)">
        <rect id="title_base-10" data-name="title base" class="cls-2" width="1571" height="156" rx="20" transform="translate(10336 3862)"/>
      </g>
      <text id="login-link-25" data-name="login-link" class="cls-4" transform="translate(251 572)"><tspan x="0" y="0">01</tspan></text>
      <text id="login-link-26" data-name="login-link" class="cls-4" transform="translate(338 572)"><tspan x="0" y="0">Hellow world</tspan></text>
      <text id="login-link-27" data-name="login-link" class="cls-4" transform="translate(575 572)"><tspan x="0" y="0">16</tspan></text>
      <text id="login-link-28" data-name="login-link" class="cls-4" transform="translate(725 572)"><tspan x="0" y="0">82/F/4 Somaweera</tspan><tspan x="0" y="30">mawatha, Walpola,</tspan><tspan x="0" y="60">Ragama.</tspan></text>
      <text id="login-link-29" data-name="login-link" class="cls-4" transform="translate(1140 572)"><tspan x="0" y="0">0769961925</tspan></text>
      <text id="login-link-30" data-name="login-link" class="cls-4" transform="translate(1373 572)"><tspan x="0" y="0">Helloworld@gmail.com</tspan></text>
    </g>
  </g>
</svg>
