<svg xmlns="http://www.w3.org/2000/svg" viewBox="703 3476.5 40 28">
  <defs>
    <style>
      .cls-1 {
        fill: #fff;
      }
    </style>
  </defs>
  <path id="users" class="cls-1" d="M6,44a4,4,0,1,0-4-4A4,4,0,0,0,6,44Zm28,0a4,4,0,1,0-4-4A4,4,0,0,0,34,44Zm2,2H32a3.988,3.988,0,0,0-2.819,1.162A9.142,9.142,0,0,1,33.875,54H38a2,2,0,0,0,2-2V50A4,4,0,0,0,36,46ZM20,46a7,7,0,1,0-7-7A7,7,0,0,0,20,46Zm4.8,2h-.519a9.665,9.665,0,0,1-8.562,0H15.2A7.2,7.2,0,0,0,8,55.2V57a3,3,0,0,0,3,3H29a3,3,0,0,0,3-3V55.2A7.2,7.2,0,0,0,24.8,48Zm-13.981-.837A3.988,3.988,0,0,0,8,46H4a4,4,0,0,0-4,4v2a2,2,0,0,0,2,2H6.119A9.165,9.165,0,0,1,10.819,47.163Z" transform="translate(703 3444.5)"/>
</svg>
